<svg xmlns="http://www.w3.org/2000/svg" width="726.936" height="437.022" viewBox="0 0 726.936 437.022">
  <g id="Ilustración2_Tema3" transform="translate(-494.682 -810.415)">
    <path id="Trazado_114658" data-name="Trazado 114658" d="M717.2,811.209c111.335-6.46,228.065,27.191,210.907,75.973s91.733-17.327,135.189.261c30.938,12.521,18.57,50.639,33.537,66,34.318,35.217,69.415-9.13,113.091,17.478s-45.745,274.948-91.373,276.335l-520.419-3.162-37.347-3.356s-103.306-56.49-29.406-108.6c49.966-35.236,14.013-60.823,8.579-76.955-6.24-18.521-20.8-50.868,42.637-74.607s47.056-75.39,45.5-86.085-22.226-76.817,89.109-83.277Z" fill="#d3c6fb" opacity="0.1"/>
    <g id="Grupo_81464" data-name="Grupo 81464">
      <g id="Grupo_81457" data-name="Grupo 81457">
        <path id="Trazado_114659" data-name="Trazado 114659" d="M590.7,1134.224c-11.971-17.846-14.869-39.811-15.193-55.095a147.244,147.244,0,0,1,2.2-29.239l-.829-.268a148.176,148.176,0,0,0-2.218,29.442c.324,15.434,3.255,37.624,15.374,55.691Z" fill="#a588f7"/>
      </g>
      <g id="Grupo_81458" data-name="Grupo 81458">
        <path id="Trazado_114660" data-name="Trazado 114660" d="M580.385,1046.756a12.617,12.617,0,0,1-3.891,8.983,14.784,14.784,0,0,1-3.168-9.843,12.617,12.617,0,0,1,3.891-8.983A14.791,14.791,0,0,1,580.385,1046.756Z" fill="#a588f7"/>
      </g>
      <g id="Grupo_81459" data-name="Grupo 81459">
        <path id="Trazado_114661" data-name="Trazado 114661" d="M573.043,1055.694a14.767,14.767,0,0,1,2.263,10.085,12.772,12.772,0,0,1-7.924-5.818,14.766,14.766,0,0,1-2.263-10.085A12.772,12.772,0,0,1,573.043,1055.694Z" fill="#a588f7"/>
      </g>
      <g id="Grupo_81460" data-name="Grupo 81460">
        <path id="Trazado_114662" data-name="Trazado 114662" d="M569.073,1066.043a14.081,14.081,0,0,1,6.078,8.145,10.914,10.914,0,0,1-9.2-1.343,14.081,14.081,0,0,1-6.078-8.145A10.914,10.914,0,0,1,569.073,1066.043Z" fill="#a588f7"/>
      </g>
      <g id="Grupo_81461" data-name="Grupo 81461">
        <ellipse id="Elipse_4834" data-name="Elipse 4834" cx="3.701" cy="7.147" rx="3.701" ry="7.147" transform="matrix(0.568, -0.823, 0.823, 0.568, 561.368, 1082.577)" fill="#a588f7"/>
      </g>
      <g id="Grupo_81462" data-name="Grupo 81462">
        <path id="Trazado_114663" data-name="Trazado 114663" d="M580.071,1063.021a9.36,9.36,0,0,1,8.15-.782,10.561,10.561,0,0,1-4.868,7.022,9.358,9.358,0,0,1-8.149.782A10.557,10.557,0,0,1,580.071,1063.021Z" fill="#a588f7"/>
      </g>
      <g id="Grupo_81463" data-name="Grupo 81463">
        <path id="Trazado_114664" data-name="Trazado 114664" d="M580.127,1072.835a9.364,9.364,0,0,1,8.15-.782,10.561,10.561,0,0,1-4.868,7.022,9.36,9.36,0,0,1-8.15.782A10.561,10.561,0,0,1,580.127,1072.835Z" fill="#a588f7"/>
      </g>
    </g>
    <g id="Grupo_81473" data-name="Grupo 81473">
      <g id="Grupo_81465" data-name="Grupo 81465">
        <path id="Trazado_114665" data-name="Trazado 114665" d="M578.368,1221.865c-25.094-9.136-42.647-30.929-52.953-47.6a178.9,178.9,0,0,1-16.544-34.407l-1.109.442a180.156,180.156,0,0,0,16.653,34.65c10.4,16.84,28.14,38.855,53.545,48.1Z" fill="#d9cdfb"/>
      </g>
      <g id="Grupo_81466" data-name="Grupo 81466">
        <path id="Trazado_114666" data-name="Trazado 114666" d="M509.851,1133.99a18.137,18.137,0,0,1,1.46,13.436,15.682,15.682,0,0,1-9.972-8.1,18.136,18.136,0,0,1-1.46-13.436A15.688,15.688,0,0,1,509.851,1133.99Z" fill="#d9cdfb"/>
      </g>
      <g id="Grupo_81467" data-name="Grupo 81467">
        <path id="Trazado_114667" data-name="Trazado 114667" d="M507.394,1150.451a16,16,0,0,1,9.109,9.177,15.294,15.294,0,0,1-12.712.6,16,16,0,0,1-9.109-9.176A15.29,15.29,0,0,1,507.394,1150.451Z" fill="#d9cdfb"/>
      </g>
      <g id="Grupo_81468" data-name="Grupo 81468">
        <ellipse id="Elipse_4835" data-name="Elipse 4835" cx="11.795" cy="5.179" rx="11.795" ry="5.179" transform="matrix(0.99, -0.141, 0.141, 0.99, 497.699, 1167.178)" fill="#d9cdfb"/>
      </g>
      <g id="Grupo_81469" data-name="Grupo 81469">
        <ellipse id="Elipse_4836" data-name="Elipse 4836" cx="11.795" cy="5.179" rx="11.795" ry="5.179" transform="translate(506.546 1181.572) rotate(-8.113)" fill="#d9cdfb"/>
      </g>
      <g id="Grupo_81470" data-name="Grupo 81470">
        <path id="Trazado_114668" data-name="Trazado 114668" d="M517.792,1157.451A17.709,17.709,0,0,1,522.73,1146,15.379,15.379,0,0,1,526.4,1157.3a17.708,17.708,0,0,1-4.938,11.448A15.38,15.38,0,0,1,517.792,1157.451Z" fill="#d9cdfb"/>
      </g>
      <g id="Grupo_81471" data-name="Grupo 81471">
        <path id="Trazado_114669" data-name="Trazado 114669" d="M527.03,1172.349a17.766,17.766,0,0,1,4.772-11.534,15.307,15.307,0,0,1,3.834,11.217,17.77,17.77,0,0,1-4.772,11.535A15.311,15.311,0,0,1,527.03,1172.349Z" fill="#d9cdfb"/>
      </g>
      <g id="Grupo_81472" data-name="Grupo 81472">
        <path id="Trazado_114670" data-name="Trazado 114670" d="M533.587,1194.754a6.2,6.2,0,0,1,5.4-.254,7.152,7.152,0,0,1-3.522,4.456,6.2,6.2,0,0,1-5.4.254A7.152,7.152,0,0,1,533.587,1194.754Z" fill="#d9cdfb"/>
      </g>
    </g>
    <path id="Trazado_114671" data-name="Trazado 114671" d="M638.545,1197.7s19.509-43.073,12.987-52.684c-9.013-13.281-20.22,27.476-20.766,23.893-5.163-33.83-4.082-76.5-28.224-82.964-13.724-3.676.907,31.866-.8,41.024s-24.534-23.537-38.595-40.834-22.669-7.754-14.519,13.231c7.881,20.291,36.432,44.068,30.041,46.1s-42.228-26.232-47.629-15.814c-6.623,12.773,48.583,35.32,43.044,37.863s-31.838-9.414-31.838.761S578.59,1181,577.644,1185.4c-1.53,7.124-24.357-11.115-26.14-1.23-1.824,10.109,30.988,10.876,29.842,18.783-.659,4.544-8.923-.212-10.418,6.035-3.408,14.245,48.3,34.207,48.3,34.207Z" fill="#a588f7"/>
    <path id="Trazado_114672" data-name="Trazado 114672" d="M673.811,1207.186c7.85,3.678,5.733,12.809,5.733,12.809s21.283-16.618,29.239-6.919,3.776,28.714-5.557,31.8-90.5.925-90.5.925S666.75,1203.878,673.811,1207.186Z" fill="#d9cdfb"/>
    <g id="Grupo_81484" data-name="Grupo 81484">
      <g id="Grupo_81483" data-name="Grupo 81483">
        <g id="Grupo_81474" data-name="Grupo 81474">
          <path id="Trazado_114673" data-name="Trazado 114673" d="M618.2,1230.615l.752-.641c-17.052-20.775-24.334-46.814-27.44-65a179.839,179.839,0,0,1-2.682-34.893l-1.035-.186a180.948,180.948,0,0,0,2.693,35.113C593.615,1183.348,600.963,1209.619,618.2,1230.615Z" fill="#beaaf9"/>
        </g>
        <g id="Grupo_81475" data-name="Grupo 81475">
          <path id="Trazado_114674" data-name="Trazado 114674" d="M591.108,1126.781c.505,4.483-.655,8.357-2.9,10.845a20.127,20.127,0,0,1-5.425-11.586c-.505-4.483.655-8.357,2.9-10.845A20.123,20.123,0,0,1,591.108,1126.781Z" fill="#beaaf9"/>
        </g>
        <g id="Grupo_81476" data-name="Grupo 81476">
          <path id="Trazado_114675" data-name="Trazado 114675" d="M584.456,1137.223a19.7,19.7,0,0,1,4.419,11.911,17.306,17.306,0,0,1-10.207-6.6,19.694,19.694,0,0,1-4.419-11.911A17.314,17.314,0,0,1,584.456,1137.223Z" fill="#beaaf9"/>
        </g>
        <g id="Grupo_81477" data-name="Grupo 81477">
          <path id="Trazado_114676" data-name="Trazado 114676" d="M581.711,1149.7a19.719,19.719,0,0,1,8.487,9.448c-3.078,1.225-7.011.905-10.882-1.228a19.719,19.719,0,0,1-8.488-9.448C573.906,1147.245,577.839,1147.564,581.711,1149.7Z" fill="#beaaf9"/>
        </g>
        <g id="Grupo_81478" data-name="Grupo 81478">
          <path id="Trazado_114677" data-name="Trazado 114677" d="M588.631,1170.234a8.211,8.211,0,0,1,3.81,3.715,5.253,5.253,0,0,1-4.554-.161,8.211,8.211,0,0,1-3.81-3.715A5.253,5.253,0,0,1,588.631,1170.234Z" fill="#beaaf9"/>
        </g>
        <g id="Grupo_81479" data-name="Grupo 81479">
          <path id="Trazado_114678" data-name="Trazado 114678" d="M590.731,1177.89a8.22,8.22,0,0,1,3.81,3.715,5.25,5.25,0,0,1-4.554-.16,8.211,8.211,0,0,1-3.81-3.715A5.256,5.256,0,0,1,590.731,1177.89Z" fill="#beaaf9"/>
        </g>
        <g id="Grupo_81480" data-name="Grupo 81480">
          <path id="Trazado_114679" data-name="Trazado 114679" d="M593.9,1145.661a10.214,10.214,0,0,1,9.289-1.258,10.937,10.937,0,0,1-4.377,8.551,10.213,10.213,0,0,1-9.289,1.258A10.937,10.937,0,0,1,593.9,1145.661Z" fill="#beaaf9"/>
        </g>
        <g id="Grupo_81481" data-name="Grupo 81481">
          <path id="Trazado_114680" data-name="Trazado 114680" d="M595.713,1157.338A10.214,10.214,0,0,1,605,1156.08a10.937,10.937,0,0,1-4.377,8.551,10.213,10.213,0,0,1-9.289,1.258A10.935,10.935,0,0,1,595.713,1157.338Z" fill="#beaaf9"/>
        </g>
        <g id="Grupo_81482" data-name="Grupo 81482">
          <path id="Trazado_114681" data-name="Trazado 114681" d="M596.908,1174.2a6.648,6.648,0,0,1,6.046-.818,7.117,7.117,0,0,1-2.849,5.565,6.648,6.648,0,0,1-6.046.819A7.122,7.122,0,0,1,596.908,1174.2Z" fill="#beaaf9"/>
        </g>
      </g>
    </g>
    <path id="Trazado_114682" data-name="Trazado 114682" d="M631.057,1246.2s-24.929-32.008-35.351-36.912c-11.1-5.225-1.475,12.882-1.475,12.882s-23.744-23.325-29.321-17.5.378,11.274.378,11.274-19.882-3.694-22.781,3.754c-4.454,11.445,28.247,17.138,28.247,17.138s-15.666-3.438-12.532,3.647C562.95,1251.173,631.057,1246.2,631.057,1246.2Z" fill="#beaaf9"/>
    <path id="Trazado_114683" data-name="Trazado 114683" d="M542.507,1219.7c2.9-7.448,22.781-3.754,22.781-3.754s-5.955-5.449-.378-11.273,24.163,7.929,24.163,7.929-2.88-12.641,11.082-2.7c9.972,7.1,29.22,33.595,29.22,33.595Z" fill="#d9cdfb"/>
    <g id="Grupo_81486" data-name="Grupo 81486">
      <g id="Grupo_81485" data-name="Grupo 81485">
        <path id="Trazado_114684" data-name="Trazado 114684" d="M612.726,1245.724s39.723,2.809,47.461-4.305.061-20,.061-20,13.631-10.775,13.418-17.811-9.093-3.466-9.093-3.466,15.052-19.38,11.481-23.066c-6.649-6.866-24.052,13.28-24.052,13.28s5.164-9.583-.284-11.1c-8.217-2.295-14.261,21.34-14.261,21.34s1.533-9.334-4.13-8.095C623.165,1194.719,612.726,1245.724,612.726,1245.724Z" fill="#beaaf9"/>
      </g>
    </g>
    <path id="Trazado_114685" data-name="Trazado 114685" d="M645.715,1246.161H642.39l12.391-64.382,2.764.526Z" fill="#7346f2"/>
    <path id="Trazado_114686" data-name="Trazado 114686" d="M1017.438,1136.208l3.207-7.777c2.488-5.719,8.855-8.45,14.221-6.1h0c13.522,5.923,19.4,22.408,13.13,36.821l-4.584,10.537a13.269,13.269,0,0,0,1.4,13.276,11.719,11.719,0,0,1,1.156,11.694l-2.417,5.555a22.04,22.04,0,0,1-13.745,12.305,13.375,13.375,0,0,0-8.3,7.525l-3.422,7.866c-3.783,8.7-13.463,12.849-21.622,9.275l-4.654-2.038c-8.159-3.574-11.706-13.52-7.922-22.216h0c6.117-10.4,5.629-18.159,3.462-23.422a31.585,31.585,0,0,1,.3-24.571l.484-1.112a31.2,31.2,0,0,1,19.037-17.287C1010.86,1145.358,1014.712,1142.475,1017.438,1136.208Z" fill="#beaaf9"/>
    <path id="Trazado_114687" data-name="Trazado 114687" d="M959.158,1245.443c6.562-8.536,43.024-53.876,66.486-61.5,25.9-8.413,1.49,25,1.49,25s45.943-50.408,62.8-45.864c15.455,4.166,0,35.411,0,35.411s17.407-17.3,38.515-17.3c20.544,0-14.263,62.91-16.145,66.194Z" fill="#d9cdfb"/>
    <g id="Grupo_81489" data-name="Grupo 81489">
      <g id="Grupo_81487" data-name="Grupo 81487">
        <path id="Trazado_114688" data-name="Trazado 114688" d="M1097.578,1148.415c-18.771,29.417-32.447,63.551-40.28,98.266l-1.858-.021a317.211,317.211,0,0,1,40.7-97.774c4.356-6.83,9.059-14.931,17.213-17.595.158-.052.217.188.067.245C1105.967,1134.352,1101.653,1142.029,1097.578,1148.415Z" fill="#a588f7"/>
      </g>
      <g id="Grupo_81488" data-name="Grupo 81488">
        <path id="Trazado_114689" data-name="Trazado 114689" d="M1061.566,1246.743a381.545,381.545,0,0,1,77.034-78.381c.3-.23.711.3.406.535a377.6,377.6,0,0,0-75.52,77.862Z" fill="#a588f7"/>
      </g>
      <path id="Trazado_114690" data-name="Trazado 114690" d="M1099.293,1130.173c.483.712,2.333,2.572,2.877,5.016a10.362,10.362,0,0,1,.091,5.118,11.16,11.16,0,0,0,2.853-4.953c.922-2.95.277-7.043-.87-8.4-1.981-3.065-5.442-3.376-6.114-1.889C1097.417,1126.542,1098.321,1128.551,1099.293,1130.173Z" fill="#a588f7"/>
      <path id="Trazado_114691" data-name="Trazado 114691" d="M1103.784,1156.43c-.7-.5-2.518-2.391-4.941-2.985a10.268,10.268,0,0,0-5.1-.193,11.116,11.116,0,0,1,4.991-2.764c2.958-.866,7.023-.138,8.352,1.039,3.015,2.048,3.256,5.526,1.762,6.17C1107.365,1158.384,1105.381,1157.437,1103.784,1156.43Z" fill="#a588f7"/>
      <path id="Trazado_114692" data-name="Trazado 114692" d="M1097.007,1167.938c-.7-.5-2.517-2.391-4.941-2.985a10.268,10.268,0,0,0-5.1-.193,11.115,11.115,0,0,1,4.991-2.764c2.958-.866,7.023-.138,8.352,1.039,3.015,2.048,3.256,5.526,1.762,6.17C1100.588,1169.892,1098.6,1168.945,1097.007,1167.938Z" fill="#a588f7"/>
      <path id="Trazado_114693" data-name="Trazado 114693" d="M1121.18,1194.631c-.7-.5-2.518-2.391-4.942-2.985a10.265,10.265,0,0,0-5.1-.193,11.116,11.116,0,0,1,4.991-2.764c2.958-.866,7.023-.138,8.352,1.039,3.015,2.047,3.256,5.525,1.762,6.17C1124.761,1196.585,1122.777,1195.637,1121.18,1194.631Z" fill="#a588f7"/>
      <path id="Trazado_114694" data-name="Trazado 114694" d="M1133.53,1183.714c-.7-.5-2.518-2.392-4.942-2.985a10.265,10.265,0,0,0-5.1-.193,11.116,11.116,0,0,1,4.991-2.764c2.958-.867,7.023-.138,8.351,1.039,3.016,2.047,3.257,5.525,1.763,6.17C1137.111,1185.668,1135.127,1184.721,1133.53,1183.714Z" fill="#a588f7"/>
      <path id="Trazado_114695" data-name="Trazado 114695" d="M1089.811,1143.194c.589.628,2.708,2.172,3.629,4.5a10.359,10.359,0,0,1,.894,5.039,11.168,11.168,0,0,0,2.039-5.342c.447-3.059-.834-7-2.179-8.156-2.438-2.713-5.9-2.473-6.334-.9C1087.388,1139.906,1088.6,1141.746,1089.811,1143.194Z" fill="#a588f7"/>
      <path id="Trazado_114696" data-name="Trazado 114696" d="M1079.845,1156.245c.839.447,3.769,1.256,5.243,3.456a8.947,8.947,0,0,1,1.769,5.238c-.157.144,2.088-3.23,1.991-6.841.208-3.607-1.927-7.451-3.809-8.163-3.484-1.977-7.942-.214-8.308,1.729C1076.31,1153.62,1078.1,1155.153,1079.845,1156.245Z" fill="#a588f7"/>
      <path id="Trazado_114697" data-name="Trazado 114697" d="M1069.357,1176.012c.9.3,3.926.6,5.747,2.522a8.947,8.947,0,0,1,2.622,4.865c-.131.168,1.517-3.536.816-7.079-.4-3.591-3.149-7.021-5.123-7.4-3.766-1.362-7.865,1.129-7.9,3.1C1065.432,1174.021,1067.451,1175.23,1069.357,1176.012Z" fill="#a588f7"/>
      <path id="Trazado_114698" data-name="Trazado 114698" d="M1100.394,1189.782c.657.411,2.994,1.236,4.068,3.11a7.3,7.3,0,0,1,1.141,4.362,12.075,12.075,0,0,0,2.008-5.451c.374-2.922-1.144-6.171-2.635-6.858-2.722-1.807-6.448-.627-6.856.932C1097.667,1187.444,1099.034,1188.793,1100.394,1189.782Z" fill="#a588f7"/>
      <path id="Trazado_114699" data-name="Trazado 114699" d="M1116.552,1134.8a7.926,7.926,0,0,0-2.793-1.983,6.093,6.093,0,0,0-3.007-.338,6.6,6.6,0,0,1,3.073-1.416c1.787-.383,4.16.227,4.9.981,1.694,1.344,1.685,3.412.773,3.728C1118.585,1136.114,1117.453,1135.466,1116.552,1134.8Z" fill="#a588f7"/>
      <path id="Trazado_114700" data-name="Trazado 114700" d="M1112.789,1126.4a7.971,7.971,0,0,1-.141,3.43,6.121,6.121,0,0,1-1.569,2.6,6.569,6.569,0,0,0,2.994-1.577c1.393-1.187,2.361-3.445,2.214-4.489-.026-2.167-1.664-3.422-2.47-2.89C1112.993,1123.983,1112.813,1125.278,1112.789,1126.4Z" fill="#a588f7"/>
      <path id="Trazado_114701" data-name="Trazado 114701" d="M1142.424,1172.593a7.914,7.914,0,0,0-2.793-1.982,6.094,6.094,0,0,0-3.007-.338,6.587,6.587,0,0,1,3.073-1.416c1.787-.383,4.16.226,4.9.981,1.694,1.344,1.685,3.412.773,3.728C1144.457,1173.907,1143.324,1173.259,1142.424,1172.593Z" fill="#a588f7"/>
      <path id="Trazado_114702" data-name="Trazado 114702" d="M1137.884,1164.121a7.97,7.97,0,0,1,.14,3.43,6.122,6.122,0,0,1-1.352,2.716,6.585,6.585,0,0,0,2.855-1.818c1.292-1.3,2.072-3.627,1.84-4.656-.2-2.157-1.938-3.274-2.7-2.678C1137.89,1161.695,1137.817,1163,1137.884,1164.121Z" fill="#a588f7"/>
    </g>
    <path id="Trazado_114703" data-name="Trazado 114703" d="M1117.449,1212.907c.125.789.944,3.08.439,5.343a9.585,9.585,0,0,1-1.936,4.326,10.285,10.285,0,0,0,4.338-3.022c1.933-2.108,3-5.793,2.573-7.384-.455-3.353-3.233-4.983-4.381-4C1117.3,1209.121,1117.272,1211.163,1117.449,1212.907Z" fill="#a588f7"/>
    <path id="Trazado_114704" data-name="Trazado 114704" d="M1100.563,1218.974c.125.789.944,3.08.439,5.343a9.591,9.591,0,0,1-1.936,4.326,10.3,10.3,0,0,0,4.339-3.022c1.932-2.108,3-5.794,2.573-7.384-.456-3.353-3.234-4.984-4.382-4C1100.418,1215.188,1100.386,1217.23,1100.563,1218.974Z" fill="#a588f7"/>
    <path id="Trazado_114705" data-name="Trazado 114705" d="M1083.406,1226.648c.124.788.943,3.079.438,5.343a9.577,9.577,0,0,1-1.935,4.325,10.288,10.288,0,0,0,4.338-3.021c1.933-2.108,3-5.794,2.573-7.385-.455-3.353-3.233-4.983-4.381-4C1083.261,1222.862,1083.229,1224.9,1083.406,1226.648Z" fill="#a588f7"/>
    <path id="Trazado_114706" data-name="Trazado 114706" d="M1122.49,1228.737a11.474,11.474,0,0,0-2.649-4.182,8.807,8.807,0,0,0-3.832-2.105,9.5,9.5,0,0,1,4.878-.2c2.6.471,5.434,2.589,6,4,1.53,2.725.389,5.483-1,5.4C1124.489,1231.609,1123.33,1230.122,1122.49,1228.737Z" fill="#a588f7"/>
    <path id="Trazado_114707" data-name="Trazado 114707" d="M1104.926,1234.975a11.486,11.486,0,0,0-2.649-4.183,8.823,8.823,0,0,0-3.832-2.1,9.5,9.5,0,0,1,4.878-.2c2.6.471,5.434,2.589,6,4,1.53,2.725.389,5.483-1,5.4C1106.925,1237.847,1105.766,1236.36,1104.926,1234.975Z" fill="#a588f7"/>
    <path id="Trazado_114708" data-name="Trazado 114708" d="M1135.866,1222.316a7.332,7.332,0,0,0-2.214-2.275,5.639,5.639,0,0,0-2.683-.814,6.1,6.1,0,0,1,3.036-.773,5.977,5.977,0,0,1,4.3,1.716c1.319,1.509.966,3.392.082,3.526C1137.5,1223.854,1136.576,1223.074,1135.866,1222.316Z" fill="#a588f7"/>
    <path id="Trazado_114709" data-name="Trazado 114709" d="M1133.839,1214.03a7.365,7.365,0,0,1-.7,3.1,5.664,5.664,0,0,1-1.863,2.1,6.094,6.094,0,0,0,2.991-.935,6.01,6.01,0,0,0,2.767-3.718c.337-1.979-.945-3.4-1.769-3.049C1134.429,1211.862,1134.049,1213.012,1133.839,1214.03Z" fill="#a588f7"/>
    <path id="Trazado_114710" data-name="Trazado 114710" d="M1044.393,993.495a1.632,1.632,0,0,0,1.649-1.984c-.414-1.549-.8-3.106-1.2-4.66-.877-3.431-1.018-3.539-.777-3.829.574-.692,1.96.114,2.442.458a19.247,19.247,0,0,0,3.175,2.343c2.379,1.05,4.739-.3,4.353-3.026-.353-2.492-.852-4.983-1.365-7.459,2.488,1.332,4.941,2.735,7.447,4.03a1.116,1.116,0,0,0,1.666-1.172c-.266-2.191-1.054-8.676-1.314-10.814-.067-.552-.685-3.092-.125-3.377.5-.255,2.17.79,2.569.975,2.205,1.021,3,1.351,10.246,4.509a1.307,1.307,0,0,0,1.666-1.53c-3.07-8.9-1.954-9.3-3.52-10.885a.617.617,0,0,0-1.028.224c-.5,1.054-.54,1.341.4,5.432q.363,1.586.806,3.151c-8.73-4-10.835-5.219-12.678-3.541-1.279,1.165-.979,1.674.544,13.944-2.537-1.531-5.152-2.9-7.759-4.327a1.271,1.271,0,0,0-1.9,1.336c1.313,8.919,1.71,9.1,1.614,9.914,0,.023.442.275-.253,0-1.179-.469-2.884-2.893-5.282-3.315-2.11-.37-4.549.718-4.748,3.078-.116,1.371.228,1.972,1.37,7.008a32.893,32.893,0,0,0-7.794.21,5.109,5.109,0,0,0-2.853,1.179,1.363,1.363,0,0,0,.495,2.286C1034.981,994.3,1036.776,992.56,1044.393,993.495Z" fill="#feca7b"/>
    <path id="Trazado_114711" data-name="Trazado 114711" d="M1085.825,1029.413a40.841,40.841,0,0,1,1.614-7.039c.147-.451.32-1.321.865-1.469,1.311-.357,2.4,2.038,6.375,4.232,1.725.953,5.208,3.073,6.756.835.793-1.147,1-2.831,1.389-4.15.293-1,.627-1.991.94-2.987,6.324,4,5.809,4.29,7.577,4.074a.919.919,0,0,0,.728-1.069c-.475-1.686-.414-1.227-8.337-6.355a1.422,1.422,0,0,0-2.123.692c-.4,1.356-1.866,7.595-2.169,8.331-.056-.07-.4-.106-.476-.13-2.853-.958-4.965-2.722-7.26-4.58-1.88-1.522-4.786-2.4-6.274.138a28.414,28.414,0,0,0-2.052,6.927c-3.8-2.6-7.59-5.221-11.408-7.791a1.563,1.563,0,0,0-2.339.763c-.63,2.8-1.354,5.566-2.1,8.332a26.5,26.5,0,0,1-5.871-5.6c-1.226-1.591-3.862,0-.5,3.806a25.593,25.593,0,0,0,6.435,5.532,1.574,1.574,0,0,0,2.346-.765c.818-2.716,1.513-5.473,2.153-8.239,3.82,2.538,7.669,5.04,11.487,7.58A1.451,1.451,0,0,0,1085.825,1029.413Z" fill="#735bba"/>
    <path id="Trazado_114712" data-name="Trazado 114712" d="M1083.976,1088.807a1.571,1.571,0,0,0,.889,1.911,34.531,34.531,0,0,0,11.442,3.834c2.119.257,2.292-2.96.257-3.334a41.981,41.981,0,0,1-9.437-2.689,33.435,33.435,0,0,1,2.985-6.577,1.615,1.615,0,0,0-.761-2.373c-2.513-.673-12.1-2.932-12.217-2.856a.508.508,0,0,0,.069-.253c.114-1.058,1.865-4.245,2.252-5.825.434-1.773-1.7-3.1-3.066-3.653-2.772-1.124-6.549-.006-9-1.941-2.356-1.862,1.9-5.16.719-9.079-.908-3.02-3.992-3.111-8.76-3.584-1.17-.116-2.314-.217-3.2.706a.8.8,0,0,0-.179.923c.981,1.665,2.779,1.582,7.1,2.127.551.069,1.529.022,1.881.548,1.171,1.755-2.164,4.627-1.213,8.169.742,2.759,3.486,4.042,6.012,4.474,1.979.338,4.668-.072,6.4,1.2-.6,1.627-1.25,3.256-1.722,4.917-.516,1.816.033,3.351,1.81,4.043a50.487,50.487,0,0,0,6.18,1.619c1.372.341,2.741.687,4.115,1.016A37.88,37.88,0,0,0,1083.976,1088.807Z" fill="#b9a2f9"/>
    <path id="Trazado_114713" data-name="Trazado 114713" d="M1004.269,950.427c-8.151-12.053-16.013-5.731-14-1.136a3.128,3.128,0,0,0,4.906,1.374,1.284,1.284,0,0,0-.724-2.224c-.918.013-.833-1,.169-1.1,1.348-.14,2.547,1.176,3.418,2.032,2.035,2,4.7,4.562,4.211,7.713-.732,4.7-6.752,8.116-12.778,3.453-8.692-6.726-3.44-22.659,7.772-22.227a15.393,15.393,0,0,1,13.565,10.154c.409,1.114,1.94.408,1.845-.615-.718-7.749-8.769-13.018-16.168-12.666-7.589.36-13.169,6.586-14.228,13.894-1.109,7.664,3.351,15.643,11.246,17.139C1002.158,967.855,1009.968,958.854,1004.269,950.427Z" fill="#b9a2f9"/>
    <path id="Trazado_114714" data-name="Trazado 114714" d="M1071.824,1111.843c-1.393-1.754-4.8-3.59-6.692-1.547a2.078,2.078,0,0,0,.186,3.224c1.143.792,2.526.463,3.155,1.926.539,1.254-.394,2.546-1.428,3.218-3.15,2.051-7.872-.271-10.206-2.624a7.051,7.051,0,0,1,3.085-11.912,15.836,15.836,0,0,1,5.378-.086c1,.06,1.885-1.283,1.048-2.074-3.221-3.043-8.629-1.978-11.835.577a11.284,11.284,0,0,0-3.546,11.629c1.3,4.579,5.649,7.962,10.095,9.233C1070.3,1126.046,1076.338,1117.523,1071.824,1111.843Z" fill="#a588f7"/>
    <g id="Grupo_81490" data-name="Grupo 81490">
      <path id="Trazado_114715" data-name="Trazado 114715" d="M648.064,1032.491a36.147,36.147,0,0,0-3.255-17.308c-2.265-4.75-7.871-7.445-12.982-7.452-16.232-.021-18.3,21.59-28.628,29.926-3.157,2.547-6.686,4.621-9.673,7.368-11.031,10.143-6.062,28.919,4.067,37.812,7.029,6.17,18.076,9.676,26.739,4.853,4.522-2.518,7.955-6.7,10.4-11.29,3.471-6.509,5.708-14.019,8.177-20.956C645.538,1048.06,647.74,1040.374,648.064,1032.491Z" fill="#7346f2"/>
      <path id="Trazado_114716" data-name="Trazado 114716" d="M613.255,1034.938s-11.922-21.441-14.822-26-10.456-22.669-10.726-23.383,5.2-9.285,3.982-9.579-2.574,4.519-3.877,3.944-5.111-12.159-5.854-11.585c-1.39,1.076,2.052,7.187,1.312,7.572s-2.985-6.724-4.44-6.515,2.767,6.516,2.36,7.073-4.79-5.385-5.583-4.118c-.431.688,4.03,5.187,3.173,5.608s-4.825-2.483-5.245-1.645,3.67,1.984,4.893,4.241,3.306,3.234,4.171,7.415,2.157,19.31,6.588,26.858,14.174,24.254,14.174,24.254Z" fill="#ffc9ac"/>
      <path id="Trazado_114717" data-name="Trazado 114717" d="M676.338,1113.84,657.8,1099.652s-1.865-13.236-4.361-24.982c-3.128.887-5.95,3.348-9.081,4.207l4.713,26.3,24.293,12.575,6.862,8.849,1.561-9.084Z" fill="#ffc9ac"/>
      <path id="Trazado_114718" data-name="Trazado 114718" d="M650.716,1061.208c-5.07-15.432-10.74-14.774-10.74-14.774l4.385,32.443c3.131-.859,7.207-2.771,10.334-3.657A141.825,141.825,0,0,0,650.716,1061.208Z" fill="#feca7b"/>
      <path id="Trazado_114719" data-name="Trazado 114719" d="M597.326,1223.413s-1.143,7.978-3.11,10.551a20.362,20.362,0,0,0-2.659,3.519c-1.232,2.43-.551,6.049.358,8.042.467,1.023-.033,1.02,1.03,1.35a6.516,6.516,0,0,0,7.834-3.7,18.857,18.857,0,0,0,1.537-6.8c.336-7.243,2.576-10.926,2.576-10.926Z" fill="#ffc9ac"/>
      <path id="Trazado_114720" data-name="Trazado 114720" d="M631.744,1227.062s.707,8.995.133,11.918c-.306,1.566-2.015,4.788-1.231,6.261a3.94,3.94,0,0,0,1.679,1.841l20.317.329c1.107.018.376-.7-.517-1.358-1.46-1.08-2.639-1.794-7.3-4.064-.3-.147-1.412-.856-1.811-1.1a14.071,14.071,0,0,1-2.906-2.581c-1.459-1.634-1.587-9.555-1.587-9.555Z" fill="#ffc9ac"/>
      <path id="Trazado_114721" data-name="Trazado 114721" d="M647.624,1107.5s2.558,14.6.878,24.179S638.76,1230,638.76,1230l-8.96.509s-1.878-37.073-1.542-42.228,2.995-13.783,2.995-13.783l-.892-29.932,11.307-39.322Z" fill="#7a4ff3"/>
      <path id="Trazado_114722" data-name="Trazado 114722" d="M621.29,1104.425s-7.055,10.679-8.734,19.517,1.233,36-2,47.582c-1.749,6.269-8.379,15.951-9.386,24.053s-4.962,29.323-4.962,29.323l8.956,1.785,20.813-53,16.326-47.9,4.183-24.671Z" fill="#8f6bf5"/>
      <path id="Trazado_114723" data-name="Trazado 114723" d="M627,1043.663s-9.341-.6-13.037,3.453,8.2,36.1,8.87,41.25-3.426,18.864-3.426,18.864,21.943,4.441,28.215.267c0,0,.672-37.073,0-40.756s-6.272-18.659-7.616-20.132S627,1043.663,627,1043.663Z" fill="#fedfaf"/>
      <path id="Trazado_114724" data-name="Trazado 114724" d="M630.111,1031.111s-.048.276-.135.747c-.416,2.259-2.02,9.751-3.1,11.811-1.309,2.489,4.483,10.428,10.057,9.459,1.66-.289-1.4-7.3-1.255-8.037.282-1.42.664-3.358,1.055-5.345.22-1.121.443-2.258.653-3.326.6-3.036,1.083-5.519,1.083-5.519Z" fill="#ffc9ac"/>
      <path id="Trazado_114725" data-name="Trazado 114725" d="M629.976,1031.858c.087-.471.135-.747.135-.747l8.354-.21s-.487,2.483-1.083,5.519c-.208,1.062-.43,2.192-.65,3.307a7.812,7.812,0,0,1-3.988-2.011,10.6,10.6,0,0,1-3.021-4.519C629.826,1032.666,629.911,1032.208,629.976,1031.858Z" fill="#d39479"/>
      <path id="Trazado_114726" data-name="Trazado 114726" d="M635.733,1012.015a7.506,7.506,0,0,0-6.4,2.753c-2.468,3.21-5.128,13.137,1,18.535s12.189-.712,13.087-7.19S644.665,1011.781,635.733,1012.015Z" fill="#ffc9ac"/>
      <path id="Trazado_114727" data-name="Trazado 114727" d="M645.232,1026.017c-.732,1.431-1.961,2.223-2.744,1.77s-.825-1.981-.094-3.412,1.961-2.223,2.744-1.769S645.963,1024.587,645.232,1026.017Z" fill="#ffc9ac"/>
      <path id="Trazado_114728" data-name="Trazado 114728" d="M636.174,1010.954s-5.26,9.44-9.023,9.877-4.258,5.452-4.258,5.452,1.346-11.559,5.071-13.788A13.769,13.769,0,0,1,636.174,1010.954Z" fill="#7346f2"/>
      <path id="Trazado_114729" data-name="Trazado 114729" d="M601.389,1241.582c-4.881.9-8.128-1.976-9.818-4.126-1.241,2.435-1.846,6.069-.933,8.069.8,1.762,3.152,1.711,5,1.781a4.827,4.827,0,0,0,4.439-2.732A16.365,16.365,0,0,0,601.389,1241.582Z" fill="#3f1ea1"/>
      <path id="Trazado_114730" data-name="Trazado 114730" d="M643.006,1240.886a18.3,18.3,0,0,1-11.567-.457c-.573,1.633-1.332,3.682-.93,4.863.494,1.447,1.2,1.774,1.816,1.79,4.908.13,17.978.306,21.72.355a.615.615,0,0,0,.475-1.01C653.592,1245.312,643.406,1241.132,643.006,1240.886Z" fill="#3f1ea1"/>
      <path id="Trazado_114731" data-name="Trazado 114731" d="M628.137,1023.2c.306,1.676-.309,3.214-1.374,3.434s-2.177-.961-2.483-2.637.309-3.214,1.375-3.434S627.831,1021.526,628.137,1023.2Z" fill="#ffc9ac"/>
      <path id="Trazado_114732" data-name="Trazado 114732" d="M609.955,1027.99S623.142,1042.25,625.1,1048s-1.911,13.968-7.258,14.328-17.245-25.311-17.245-25.311Z" fill="#feca7b"/>
    </g>
    <g id="Grupo_81507" data-name="Grupo 81507">
      <rect id="Rectángulo_33916" data-name="Rectángulo 33916" width="182.808" height="256.609" rx="37.794" transform="translate(832.346 989.049)" fill="#feca7b"/>
      <rect id="Rectángulo_33917" data-name="Rectángulo 33917" width="151.611" height="39.146" transform="translate(848.807 1010.155)" fill="#b9a2f9"/>
      <path id="Trazado_114733" data-name="Trazado 114733" d="M852.829,1015.79h147.588v-5.635H848.807V1049.3h4.022Z" fill="#b9a2f9" opacity="0.5" style="mix-blend-mode: multiply;isolation: isolate"/>
      <path id="Rectángulo_33918" data-name="Rectángulo 33918" d="M2.906,0H40.6A2.906,2.906,0,0,1,43.5,2.906V11.2A2.905,2.905,0,0,1,40.6,14.1H2.906A2.906,2.906,0,0,1,0,11.2V2.906A2.906,2.906,0,0,1,2.906,0Z" transform="translate(848.807 1060.468)" fill="#735bba"/>
      <rect id="Rectángulo_33919" data-name="Rectángulo 33919" width="43.502" height="14.103" rx="2.905" transform="translate(902.861 1060.468)" fill="#735bba"/>
      <rect id="Rectángulo_33920" data-name="Rectángulo 33920" width="43.502" height="14.103" rx="2.905" transform="translate(956.916 1060.468)" fill="#735bba"/>
      <rect id="Rectángulo_33921" data-name="Rectángulo 33921" width="33.666" height="31.616" rx="6.514" transform="translate(848.807 1085.738)" fill="#735bba"/>
      <path id="Rectángulo_33922" data-name="Rectángulo 33922" d="M6.514,0H27.153a6.514,6.514,0,0,1,6.514,6.514V25.1a6.515,6.515,0,0,1-6.515,6.515H6.514A6.514,6.514,0,0,1,0,25.1V6.514A6.514,6.514,0,0,1,6.514,0Z" transform="translate(888.122 1085.738)" fill="#fedfaf"/>
      <path id="Rectángulo_33923" data-name="Rectángulo 33923" d="M6.514,0H27.153a6.514,6.514,0,0,1,6.514,6.514V25.1a6.515,6.515,0,0,1-6.515,6.515H6.514A6.514,6.514,0,0,1,0,25.1V6.514A6.514,6.514,0,0,1,6.514,0Z" transform="translate(927.437 1085.738)" fill="#fedfaf"/>
      <path id="Rectángulo_33924" data-name="Rectángulo 33924" d="M6.515,0H27.152a6.514,6.514,0,0,1,6.514,6.514V25.1a6.515,6.515,0,0,1-6.515,6.515H6.514A6.514,6.514,0,0,1,0,25.1V6.515A6.515,6.515,0,0,1,6.515,0Z" transform="translate(848.807 1124.714)" fill="#735bba"/>
      <rect id="Rectángulo_33925" data-name="Rectángulo 33925" width="33.666" height="31.616" rx="6.515" transform="translate(888.122 1124.714)" fill="#fedfaf"/>
      <path id="Rectángulo_33926" data-name="Rectángulo 33926" d="M6.515,0H27.153a6.514,6.514,0,0,1,6.514,6.514V25.1a6.515,6.515,0,0,1-6.515,6.515H6.515A6.515,6.515,0,0,1,0,25.1V6.515A6.515,6.515,0,0,1,6.515,0Z" transform="translate(927.437 1124.714)" fill="#fedfaf"/>
      <path id="Trazado_114734" data-name="Trazado 114734" d="M993.559,1085.738H973.61a6.87,6.87,0,0,0-6.858,6.882v56.828a6.87,6.87,0,0,0,6.858,6.882h19.949a6.87,6.87,0,0,0,6.859-6.882V1092.62A6.87,6.87,0,0,0,993.559,1085.738Z" fill="#fedfaf"/>
      <path id="Rectángulo_33927" data-name="Rectángulo 33927" d="M6.515,0H27.152a6.514,6.514,0,0,1,6.514,6.514V25.1a6.514,6.514,0,0,1-6.514,6.514H6.514A6.514,6.514,0,0,1,0,25.1V6.515A6.515,6.515,0,0,1,6.515,0Z" transform="translate(848.807 1163.69)" fill="#735bba"/>
      <path id="Rectángulo_33928" data-name="Rectángulo 33928" d="M6.515,0H27.153a6.514,6.514,0,0,1,6.514,6.514V25.1a6.514,6.514,0,0,1-6.514,6.514H6.514A6.514,6.514,0,0,1,0,25.1V6.515A6.515,6.515,0,0,1,6.515,0Z" transform="translate(888.122 1163.69)" fill="#fedfaf"/>
      <path id="Rectángulo_33929" data-name="Rectángulo 33929" d="M6.515,0H27.153a6.514,6.514,0,0,1,6.514,6.514V25.1a6.514,6.514,0,0,1-6.514,6.514H6.514A6.514,6.514,0,0,1,0,25.1V6.515A6.515,6.515,0,0,1,6.515,0Z" transform="translate(927.437 1163.69)" fill="#fedfaf"/>
      <path id="Rectángulo_33930" data-name="Rectángulo 33930" d="M6.515,0H27.153a6.514,6.514,0,0,1,6.514,6.514V25.1a6.514,6.514,0,0,1-6.514,6.514H6.514A6.514,6.514,0,0,1,0,25.1V6.515A6.515,6.515,0,0,1,6.515,0Z" transform="translate(966.752 1163.69)" fill="#fedfaf"/>
      <rect id="Rectángulo_33931" data-name="Rectángulo 33931" width="33.666" height="31.616" rx="6.514" transform="translate(848.807 1202.667)" fill="#735bba"/>
      <rect id="Rectángulo_33932" data-name="Rectángulo 33932" width="33.666" height="31.616" rx="6.514" transform="translate(888.122 1202.667)" fill="#fedfaf"/>
      <rect id="Rectángulo_33933" data-name="Rectángulo 33933" width="33.666" height="31.616" rx="6.514" transform="translate(927.437 1202.667)" fill="#fedfaf"/>
      <rect id="Rectángulo_33934" data-name="Rectángulo 33934" width="33.666" height="31.616" rx="6.514" transform="translate(966.752 1202.667)" fill="#7158b9"/>
      <g id="Grupo_81491" data-name="Grupo 81491">
        <path id="Trazado_114735" data-name="Trazado 114735" d="M871.4,1171.191v1.6l-7.772,16.313h-2.5l7.745-15.845v-.055h-8.734v-2.012Z" fill="#fff"/>
      </g>
      <g id="Grupo_81492" data-name="Grupo 81492">
        <path id="Trazado_114736" data-name="Trazado 114736" d="M899.061,1184.556c0-2.259,1.346-3.858,3.543-4.8l-.028-.082a4.436,4.436,0,0,1-2.828-4.023c0-2.839,2.389-4.768,5.52-4.768,3.46,0,5.19,2.177,5.19,4.409a4.55,4.55,0,0,1-2.938,4.189v.083c2.224.881,3.6,2.452,3.6,4.629,0,3.114-2.664,5.208-6.07,5.208C901.313,1189.406,899.061,1187.174,899.061,1184.556Zm9.612-.11c0-2.177-1.51-3.224-3.927-3.913-2.087.607-3.213,1.984-3.213,3.693a3.306,3.306,0,0,0,3.57,3.417C907.273,1187.643,908.673,1186.293,908.673,1184.446Zm-6.646-8.956c0,1.792,1.346,2.756,3.405,3.307a3.527,3.527,0,0,0,2.719-3.251,2.78,2.78,0,0,0-3.021-2.922A2.844,2.844,0,0,0,902.027,1175.49Z" fill="#fff"/>
      </g>
      <g id="Grupo_81493" data-name="Grupo 81493">
        <path id="Trazado_114737" data-name="Trazado 114737" d="M911.145,1218.452c0,6.09-2.252,9.452-6.207,9.452-3.488,0-5.85-3.279-5.9-9.2,0-6.007,2.581-9.314,6.206-9.314C909,1209.386,911.145,1212.747,911.145,1218.452Zm-9.7.275c0,4.657,1.429,7.3,3.626,7.3,2.471,0,3.652-2.893,3.652-7.468,0-4.409-1.126-7.3-3.625-7.3C902.988,1211.259,901.45,1213.85,901.45,1218.727Z" fill="#fff"/>
      </g>
      <g id="Grupo_81494" data-name="Grupo 81494">
        <path id="Trazado_114738" data-name="Trazado 114738" d="M940.561,1187.4a10.043,10.043,0,0,0,1.95-.083,6.722,6.722,0,0,0,3.735-1.736,7.869,7.869,0,0,0,2.362-4.767h-.083a5.359,5.359,0,0,1-9.475-3.555,6.132,6.132,0,0,1,6.1-6.366c3.653,0,5.905,2.976,5.905,7.551,0,3.94-1.318,6.7-3.076,8.405a8.908,8.908,0,0,1-5.19,2.4,11.248,11.248,0,0,1-2.225.138Zm.879-10.306c0,2.232,1.346,3.8,3.433,3.8a3.992,3.992,0,0,0,3.515-1.874,1.6,1.6,0,0,0,.22-.881c0-3.059-1.126-5.4-3.653-5.4C942.9,1172.735,941.44,1174.553,941.44,1177.089Z" fill="#fff"/>
      </g>
      <g id="Grupo_81495" data-name="Grupo 81495">
        <path id="Trazado_114739" data-name="Trazado 114739" d="M867.284,1149.364v-4.878H858.99v-1.6l7.964-11.436h2.609v11.133h2.5v1.9h-2.5v4.878Zm0-6.779v-5.98q0-1.406.082-2.811h-.082c-.549,1.048-.989,1.819-1.483,2.646l-4.367,6.09v.055Z" fill="#fff"/>
      </g>
      <g id="Grupo_81496" data-name="Grupo 81496">
        <path id="Trazado_114740" data-name="Trazado 114740" d="M909.937,1133.491h-6.811l-.687,4.6a9.522,9.522,0,0,1,1.456-.11,7.521,7.521,0,0,1,3.845.965,5.109,5.109,0,0,1,2.554,4.6c0,3.5-2.774,6.118-6.647,6.118a8.721,8.721,0,0,1-4.449-1.1l.6-1.847a7.957,7.957,0,0,0,3.817.993,3.944,3.944,0,0,0,4.229-3.886c-.027-2.315-1.565-3.968-5.135-3.968a18.353,18.353,0,0,0-2.472.193l1.153-8.6h8.542Z" fill="#fff"/>
      </g>
      <g id="Grupo_81497" data-name="Grupo 81497">
        <path id="Trazado_114741" data-name="Trazado 114741" d="M949.349,1133.161a8.679,8.679,0,0,0-1.812.11,7.269,7.269,0,0,0-6.207,6.365h.082a5.317,5.317,0,0,1,4.312-2.066c3.158,0,5.383,2.287,5.383,5.787,0,3.279-2.225,6.31-5.932,6.31-3.818,0-6.317-2.976-6.317-7.633a11.281,11.281,0,0,1,3.021-8.074,9.7,9.7,0,0,1,5.712-2.646,11.616,11.616,0,0,1,1.758-.138Zm-.687,10.333c0-2.562-1.455-4.106-3.68-4.106a3.977,3.977,0,0,0-3.46,2.205,2.067,2.067,0,0,0-.275,1.075c.055,2.949,1.4,5.125,3.928,5.125C947.262,1147.793,948.662,1146.057,948.662,1143.494Z" fill="#fff"/>
      </g>
      <g id="Grupo_81498" data-name="Grupo 81498">
        <path id="Trazado_114742" data-name="Trazado 114742" d="M865.059,1095.628H865l-3.1,1.681-.467-1.846,3.9-2.094h2.06v17.912h-2.335Z" fill="#fff"/>
      </g>
      <g id="Grupo_81499" data-name="Grupo 81499">
        <path id="Trazado_114743" data-name="Trazado 114743" d="M899.281,1111.281v-1.488l1.9-1.847c4.559-4.354,6.618-6.669,6.646-9.369a3.191,3.191,0,0,0-3.543-3.5,6.069,6.069,0,0,0-3.79,1.516l-.769-1.709a7.819,7.819,0,0,1,5.053-1.819c3.845,0,5.466,2.646,5.466,5.209,0,3.307-2.39,5.979-6.152,9.617l-1.428,1.323v.055h8.019v2.012Z" fill="#fff"/>
      </g>
      <g id="Grupo_81500" data-name="Grupo 81500">
        <path id="Trazado_114744" data-name="Trazado 114744" d="M939.737,1108.5a8.056,8.056,0,0,0,3.954,1.13c3.1,0,4.065-1.984,4.038-3.472-.028-2.508-2.28-3.582-4.614-3.582h-1.346v-1.819h1.346c1.758,0,3.982-.909,3.982-3.031,0-1.433-.906-2.7-3.131-2.7a6.543,6.543,0,0,0-3.57,1.185l-.632-1.764a8.476,8.476,0,0,1,4.669-1.378c3.515,0,5.108,2.1,5.108,4.272a4.445,4.445,0,0,1-3.3,4.216v.055a4.661,4.661,0,0,1,3.982,4.6c0,2.866-2.225,5.374-6.509,5.374a9.046,9.046,0,0,1-4.641-1.213Z" fill="#fff"/>
      </g>
      <g id="Grupo_81501" data-name="Grupo 81501">
        <ellipse id="Elipse_4837" data-name="Elipse 4837" cx="2.153" cy="2.16" rx="2.153" ry="2.16" transform="translate(863.487 1223.079)" fill="#fff"/>
      </g>
      <g id="Grupo_81502" data-name="Grupo 81502">
        <path id="Trazado_114745" data-name="Trazado 114745" d="M996.374,1122.174H985.042V1110.8h-2.914v11.371H970.8v2.924h11.332v11.371h2.914V1125.1h11.332Z" fill="#fff"/>
      </g>
      <g id="Grupo_81503" data-name="Grupo 81503">
        <path id="Trazado_114746" data-name="Trazado 114746" d="M951.812,1225.2l-6-6.02,6-6.02-1.543-1.548-6,6.02-6-6.02-1.543,1.548,6,6.02-6,6.02,1.543,1.548,6-6.02,6,6.02Z" fill="#fff"/>
      </g>
      <g id="Grupo_81504" data-name="Grupo 81504">
        <rect id="Rectángulo_33935" data-name="Rectángulo 33935" width="18.977" height="2.916" transform="translate(973.396 1178.877)" fill="#fff"/>
      </g>
      <g id="Grupo_81505" data-name="Grupo 81505">
        <rect id="Rectángulo_33936" data-name="Rectángulo 33936" width="18.977" height="2.916" transform="translate(974.096 1212.579)" fill="#fff"/>
      </g>
      <g id="Grupo_81506" data-name="Grupo 81506">
        <rect id="Rectángulo_33937" data-name="Rectángulo 33937" width="18.977" height="2.916" transform="translate(974.096 1219.92)" fill="#fff"/>
      </g>
    </g>
    <path id="Trazado_114747" data-name="Trazado 114747" d="M873.645,847.356h0l-.049-.017c-.466-.168-.941-.317-1.42-.456-.164-.047-.326-.1-.491-.14s-.349-.087-.524-.129-.355-.085-.534-.123-.34-.07-.51-.1c-.191-.037-.383-.072-.575-.1-.163-.027-.327-.053-.492-.077-.208-.029-.417-.055-.627-.08-.152-.017-.3-.036-.457-.05-.24-.023-.481-.04-.723-.055-.127-.008-.253-.019-.381-.026-.371-.017-.744-.028-1.119-.028h-172.2q-.6,0-1.2.03-1.188.062-2.342.238-.576.089-1.143.205a23.3,23.3,0,0,0-18.541,22.827v353.138a23.3,23.3,0,0,0,15.318,21.913h0c.04.015.08.027.12.041.443.158.893.3,1.348.432.164.047.327.1.493.14s.348.087.523.129.356.085.535.124.339.069.509.1c.191.037.383.071.576.1.163.027.327.053.491.076.208.03.417.056.627.08.152.018.3.036.458.051.239.022.481.039.722.055.127.008.254.019.381.025.371.018.744.029,1.12.029h172.2a23.207,23.207,0,0,0,23.1-20.918,23.736,23.736,0,0,0,.12-2.382V869.27A23.3,23.3,0,0,0,873.645,847.356Z" fill="#735bba"/>
    <rect id="Rectángulo_33938" data-name="Rectángulo 33938" width="196.133" height="336.225" transform="translate(681.573 877.726)" fill="#fcfbff"/>
    <rect id="Rectángulo_33939" data-name="Rectángulo 33939" width="83.927" height="4.213" rx="0.868" transform="translate(737.836 862.947)" fill="#fff"/>
    <ellipse id="Elipse_4838" data-name="Elipse 4838" cx="9.633" cy="9.665" rx="9.633" ry="9.665" transform="translate(769.895 1220.485)" fill="#f1ecfe" opacity="0.3"/>
    <rect id="Rectángulo_33940" data-name="Rectángulo 33940" width="196.133" height="14.107" transform="translate(681.573 1199.845)" fill="#b9a2f9" opacity="0.2"/>
    <rect id="Rectángulo_33941" data-name="Rectángulo 33941" width="196.133" height="17.843" transform="translate(681.573 877.726)" fill="#b9a2f9" opacity="0.2"/>
    <g id="Grupo_81508" data-name="Grupo 81508">
      <path id="Trazado_114748" data-name="Trazado 114748" d="M721.115,885.949H550.779a10.672,10.672,0,0,0-10.654,10.69v70.533a10.672,10.672,0,0,0,10.654,10.69H684.885c5.427,7.6,15.267,21.208,16.136,21.208.813,0-.752-12.854-1.856-21.208h21.95a10.672,10.672,0,0,0,10.654-10.69V896.639A10.672,10.672,0,0,0,721.115,885.949Z" fill="#f1ecfe" opacity="0.3" style="mix-blend-mode: multiply;isolation: isolate"/>
      <path id="Trazado_114749" data-name="Trazado 114749" d="M714.083,867.653H543.746a10.671,10.671,0,0,0-10.653,10.69v70.533a10.671,10.671,0,0,0,10.653,10.69H677.852c5.427,7.6,15.268,21.208,16.136,21.208.814,0-.752-12.854-1.856-21.208h21.951a10.672,10.672,0,0,0,10.653-10.69V878.343A10.672,10.672,0,0,0,714.083,867.653Z" fill="#d3c6fb"/>
      <rect id="Rectángulo_33942" data-name="Rectángulo 33942" width="83.983" height="4.657" rx="0.959" transform="translate(550.708 890.523)" fill="#fff"/>
      <path id="Rectángulo_33943" data-name="Rectángulo 33943" d="M.959,0h34.26a.959.959,0,0,1,.959.959V3.7a.96.96,0,0,1-.96.96H.959A.959.959,0,0,1,0,3.7V.959A.959.959,0,0,1,.959,0Z" transform="translate(550.708 902.81)" fill="#fff"/>
      <path id="Rectángulo_33944" data-name="Rectángulo 33944" d="M.959,0H111.636a.96.96,0,0,1,.96.96V3.7a.96.96,0,0,1-.96.96H.959A.959.959,0,0,1,0,3.7V.959A.959.959,0,0,1,.959,0Z" transform="translate(590.965 902.81)" fill="#fff"/>
      <rect id="Rectángulo_33945" data-name="Rectángulo 33945" width="60.628" height="4.657" rx="0.959" transform="translate(643.274 890.523)" fill="#fff"/>
      <path id="Rectángulo_33946" data-name="Rectángulo 33946" d="M.959,0H152.234a.959.959,0,0,1,.959.959V3.7a.96.96,0,0,1-.96.96H.959A.959.959,0,0,1,0,3.7V.959A.959.959,0,0,1,.959,0Z" transform="translate(550.708 926.896)" fill="#fff"/>
      <path id="Rectángulo_33947" data-name="Rectángulo 33947" d="M.96,0H78.18a.959.959,0,0,1,.959.959V3.7a.96.96,0,0,1-.96.96H.96A.96.96,0,0,1,0,3.7V.96A.96.96,0,0,1,.96,0Z" transform="translate(550.708 915.098)" fill="#fff"/>
      <path id="Rectángulo_33948" data-name="Rectángulo 33948" d="M.959,0H68.5a.959.959,0,0,1,.959.959V3.7a.96.96,0,0,1-.96.96H.959A.959.959,0,0,1,0,3.7V.959A.959.959,0,0,1,.959,0Z" transform="translate(634.443 915.098)" fill="#fff"/>
    </g>
    <path id="Rectángulo_33949" data-name="Rectángulo 33949" d="M.858,0H51.5a.858.858,0,0,1,.858.858V3.3a.857.857,0,0,1-.857.857H.858A.858.858,0,0,1,0,3.3V.858A.858.858,0,0,1,.858,0Z" transform="translate(905.971 847.545) rotate(180)" fill="#fff"/>
    <path id="Trazado_114750" data-name="Trazado 114750" d="M838.235,831.677H990.412a9.534,9.534,0,0,1,9.518,9.55V904.24a9.534,9.534,0,0,1-9.518,9.55H870.6c-4.848,6.789-13.64,18.947-14.416,18.947-.727,0,.673-11.483,1.658-18.947h-19.61a9.534,9.534,0,0,1-9.518-9.55V841.227A9.534,9.534,0,0,1,838.235,831.677Z" fill="#f1ecfe" opacity="0.3" style="mix-blend-mode: multiply;isolation: isolate"/>
    <path id="Trazado_114751" data-name="Trazado 114751" d="M844.518,815.331H996.7a9.534,9.534,0,0,1,9.517,9.55V887.9a9.534,9.534,0,0,1-9.517,9.55H876.886c-4.848,6.789-13.64,18.947-14.416,18.947-.726,0,.672-11.483,1.658-18.947h-19.61A9.535,9.535,0,0,1,835,887.9V824.881A9.535,9.535,0,0,1,844.518,815.331Z" fill="#d3c6fb"/>
    <path id="Rectángulo_33950" data-name="Rectángulo 33950" d="M.858,0H45.666a.857.857,0,0,1,.857.857V3.3a.857.857,0,0,1-.857.857H.857A.857.857,0,0,1,0,3.3V.858A.858.858,0,0,1,.858,0Z" transform="translate(986.681 839.923) rotate(180)" fill="#fff"/>
    <path id="Rectángulo_33951" data-name="Rectángulo 33951" d="M.857,0H30.568a.857.857,0,0,1,.857.857V3.3a.857.857,0,0,1-.857.857H.856A.856.856,0,0,1,0,3.3V.857A.857.857,0,0,1,.857,0Z" transform="translate(986.681 853.51) rotate(180)" fill="#fff"/>
    <path id="Rectángulo_33952" data-name="Rectángulo 33952" d="M.857,0H37.816a.856.856,0,0,1,.856.856V3.3a.856.856,0,0,1-.856.856H.857A.857.857,0,0,1,0,3.3V.857A.857.857,0,0,1,.857,0Z" transform="translate(951.459 853.51) rotate(180)" fill="#fff"/>
    <rect id="Rectángulo_33953" data-name="Rectángulo 33953" width="54.048" height="4.16" rx="0.857" transform="translate(907.889 853.51) rotate(180)" fill="#fff"/>
    <path id="Rectángulo_33954" data-name="Rectángulo 33954" d="M.857,0H77.173a.858.858,0,0,1,.858.858V3.3a.857.857,0,0,1-.857.857H.858A.858.858,0,0,1,0,3.3V.857A.857.857,0,0,1,.857,0Z" transform="translate(931.645 839.923) rotate(180)" fill="#fff"/>
    <path id="Rectángulo_33955" data-name="Rectángulo 33955" d="M.857,0H132.209a.857.857,0,0,1,.857.857V3.3a.857.857,0,0,1-.857.857H.858A.858.858,0,0,1,0,3.3V.857A.857.857,0,0,1,.857,0Z" transform="translate(986.681 880.124) rotate(180)" fill="#fff"/>
    <path id="Rectángulo_33956" data-name="Rectángulo 33956" d="M.858,0H67.885a.857.857,0,0,1,.857.857V3.3a.857.857,0,0,1-.857.857H.857A.857.857,0,0,1,0,3.3V.858A.858.858,0,0,1,.858,0Z" transform="translate(986.681 866.974) rotate(180)" fill="#fff"/>
    <path id="Rectángulo_33957" data-name="Rectángulo 33957" d="M.857,0h59.2a.857.857,0,0,1,.857.857V3.3a.857.857,0,0,1-.857.857H.858A.858.858,0,0,1,0,3.3V.857A.857.857,0,0,1,.857,0Z" transform="translate(914.529 866.974) rotate(180)" fill="#fff"/>
    <g id="Grupo_81509" data-name="Grupo 81509">
      <path id="Trazado_114752" data-name="Trazado 114752" d="M730.64,1005.193s-38.017,5.486-32.207,42.175c5.416,34.206,38.016,27.259,46.388,25.545S730.64,1005.193,730.64,1005.193Z" fill="#feca7b"/>
      <path id="Trazado_114753" data-name="Trazado 114753" d="M744.821,1072.913c3.9-.8,1.091-15.536-3.021-31.058-13.995,2.743-29.586,5.805-42.821,8.417C705.742,1081.169,736.7,1074.577,744.821,1072.913Z" fill="#fdb74d"/>
      <path id="Trazado_114754" data-name="Trazado 114754" d="M752.51,1079.256s8.349,29.812,6.151,52.976c-2.05,21.6,1.025,25.2,9.055,24.516s27.509-5.486,27.851-13.2-3.247-47.318-16.745-68.577S752.51,1079.256,752.51,1079.256Z" fill="#d9cdfb"/>
      <path id="Trazado_114755" data-name="Trazado 114755" d="M765.486,1066.823c-5.353,3.6-12.976,12.433-12.976,12.433s8.349,29.812,6.151,52.976c-2.05,21.6,1.025,25.2,9.055,24.516a67.675,67.675,0,0,0,11.947-2.356C782.866,1101.3,769.17,1072.83,765.486,1066.823Z" fill="#beaaf9"/>
      <path id="Trazado_114756" data-name="Trazado 114756" d="M845.8,932.93s-63.048,45.9-83.423,59.791l-11.917,17.744,8.457,51.69,20.375,10.029,99.569,19.673-2.306-11.187-18.069-50.146-9.226-57.09-2.691-35.1Z" fill="#d9cdfb"/>
      <path id="Trazado_114757" data-name="Trazado 114757" d="M858.486,1030.524l-2.419-14.967-100.76,24.538,3.61,22.061,20.375,10.029,99.569,19.673-2.307-11.187Z" fill="#beaaf9"/>
      <path id="Trazado_114758" data-name="Trazado 114758" d="M762.377,992.721s-8.329,43.846,16.915,79.463a4.414,4.414,0,0,1-1.666,5.358l-18.794,4.8s-8.714,3.086-16.061-9.429-20.333-40.632-12.644-71.663c0,0,1.88-8.4,12.131-9.944l13.669-2.571S761.993,987.792,762.377,992.721Z" fill="#a588f7"/>
      <path id="Trazado_114759" data-name="Trazado 114759" d="M845.8,932.93s16.4-12.086,25.885-11.829,18.966,12.858,25.116,23.145,22.3,50.661,23.836,77.92,1.281,66.091-12.046,70.72-29.73-1.029-29.73-1.029-21.528-18.516-34.086-76.12S845.8,932.93,845.8,932.93Z" fill="#8f6bf5"/>
      <path id="Trazado_114760" data-name="Trazado 114760" d="M899.151,1094.429s15.331-19.929,7.518-73.738c-12.3-84.72-43.313-97.533-43.313-97.533s-22.953,17.491-1.026,99.363C880.4,1089.984,899.151,1094.429,899.151,1094.429Z" fill="#a588f7"/>
      <path id="Trazado_114761" data-name="Trazado 114761" d="M854.991,988.07a311.457,311.457,0,0,0,7.339,34.451c1.751,6.537,3.508,12.475,5.254,17.882,9.535-3.313,24.954-11.613,18.369-32.669C879.852,988.224,863.968,987.032,854.991,988.07Z" fill="#feca7b"/>
      <path id="Trazado_114762" data-name="Trazado 114762" d="M862.33,1022.521c1.751,6.537,3.508,12.475,5.254,17.882,9.4-3.267,24.527-11.386,18.628-31.8l-25.914,5.992Q861.243,1018.454,862.33,1022.521Z" fill="#fdb74d"/>
      <path id="Trazado_114763" data-name="Trazado 114763" d="M779.292,1072.184a97.181,97.181,0,0,1-15.131-34.308l-33.309,6.308a114.431,114.431,0,0,0,11.919,28.729c7.347,12.515,16.061,9.429,16.061,9.429l18.794-4.8A4.414,4.414,0,0,0,779.292,1072.184Z" fill="#a588f7" opacity="0.3" style="mix-blend-mode: multiply;isolation: isolate"/>
    </g>
    <g id="Grupo_81514" data-name="Grupo 81514">
      <g id="Grupo_81510" data-name="Grupo 81510">
        <path id="Trazado_114764" data-name="Trazado 114764" d="M1100.6,896.093l-.152,16.513,10.465-9.851,32.986-22.4-26.923,5.872s-13.455,5.1-14.122,5.873A34.063,34.063,0,0,0,1100.6,896.093Z" fill="#4929a6"/>
        <path id="Trazado_114765" data-name="Trazado 114765" d="M1087.334,887.774l56.562-7.421-43.3,15.74Z" fill="#735bba"/>
        <path id="Trazado_114766" data-name="Trazado 114766" d="M1120.806,910.186l-16.3-10.12,39.394-19.713Z" fill="#735bba"/>
      </g>
      <g id="Grupo_81513" data-name="Grupo 81513">
        <g id="Grupo_81511" data-name="Grupo 81511">
          <path id="Trazado_114767" data-name="Trazado 114767" d="M1028.87,964.258a36.946,36.946,0,0,1,.256-3.973c.146-1.217.355-2.451.623-3.666l1.312.291c-.259,1.172-.461,2.362-.6,3.535a34.991,34.991,0,0,0-.246,3.826c0,.372,0,.744.007,1.115l-1.343.03C1028.869,965.024,1028.867,964.634,1028.87,964.258Zm3.687-16a51.265,51.265,0,0,1,4.328-7.659l1.109.76a49.877,49.877,0,0,0-4.214,7.457Zm41.949-7.9c-.084-.039-.166-.08-.249-.121l.6-1.2c.072.037.144.072.205.1a.72.72,0,0,0,.139.026,6.172,6.172,0,0,0,3.646-.921,5.7,5.7,0,0,0,1.855-2.72l1.27.439a7.128,7.128,0,0,1-2.3,3.346,7.449,7.449,0,0,1-4.63,1.194A1.729,1.729,0,0,1,1074.506,940.356Zm-32.16-6.632a69.949,69.949,0,0,1,6.321-6.076l.867,1.029a68.56,68.56,0,0,0-6.2,5.958Zm25.553-3.145a16.43,16.43,0,0,1,0-3.989,19.709,19.709,0,0,1,.4-2.236l1.306.317a18.124,18.124,0,0,0-.376,2.079,15.034,15.034,0,0,0,0,3.66,12.482,12.482,0,0,0,.569,2.466l-1.271.436A13.848,13.848,0,0,1,1067.9,930.579Zm5.566-7.606-.179-.06.418-1.281.2.065a13.524,13.524,0,0,1,6.977,5.322l-1.132.726A12.151,12.151,0,0,0,1073.465,922.973Zm-17.123.279a30.688,30.688,0,0,1,5.433-1.984c1.095-.189,2.1-.325,3.08-.416l.123,1.342c-.942.088-1.915.22-2.975.4a27.751,27.751,0,0,0-5.114,1.888Zm15.591-7.009a30.085,30.085,0,0,1,5.907-6.6l.857,1.038a28.766,28.766,0,0,0-5.644,6.3Z" fill="#c0acf9"/>
        </g>
        <g id="Grupo_81512" data-name="Grupo 81512">
          <path id="Trazado_114768" data-name="Trazado 114768" d="M1085.923,906.312a25.823,25.823,0,0,1,4.112-1.318l-.3-1.314a27.186,27.186,0,0,0-4.325,1.386Z" fill="#c0acf9"/>
        </g>
      </g>
    </g>
    <g id="Grupo_81518" data-name="Grupo 81518">
      <path id="Trazado_114769" data-name="Trazado 114769" d="M946.116,1069.005l-.688.617a.844.844,0,0,1-1.189-.029l-12.205-13.463a.836.836,0,0,1,.092-1.181l.688-.617a.844.844,0,0,1,1.189.029l12.205,13.463A.836.836,0,0,1,946.116,1069.005Z" fill="#7a4ff3"/>
      <path id="Trazado_114770" data-name="Trazado 114770" d="M987.494,1058.067c-1.631-1.331-14.247,4.224-14.087,6.158s-8.8,20.678-8.8,20.678l-15.489-12.392-.006,0c-.137-.448-1.6-5.267-1.677-6.13-.074-.9-2.692-2.487-3.907-2.254s1.039,1.764,1.187,2.045c.4.764-1.155,1.051-1.155,1.051s-4.475-2.465-4.57-3.914-1.019-4.487-1.986-3.852c-.5.328-.494,2.483-.339,3.506-.287-1.161-.694-2.472-1.091-2.6-.724-.237-1.084.687-.952,1.141s1.3,5.382,1.656,5.937,7.574,6.385,8.615,7.653c0,0,20.035,22.981,21.461,23.582,1.252.527,5.715-7.392,9.931-12.65S992.592,1062.226,987.494,1058.067Z" fill="#ffc9ac"/>
      <path id="Trazado_114771" data-name="Trazado 114771" d="M1027.919,1227.046s2.753,2.695,2.815,3.684.244,11.587-.88,12.576-4.425,1.691-3.363,2.8c.8.841,6.973.661,11.063.435,1.194-.066,2.691-9.624,3.164-11.029.687-2.04,2.357-6.636,1.732-8.058a11.917,11.917,0,0,0-3.81-3.446,18.782,18.782,0,0,1-4.221-4.511Z" fill="#ffc9ac"/>
      <path id="Trazado_114772" data-name="Trazado 114772" d="M999.4,1233.323s2.464,6.983,2.467,7c.183,1.106.9,3.84.9,4.845,0,3.779-16.982-3.207-13.176-4.881a4.041,4.041,0,0,0,1.538-2.649c.175-1.981-1.43-4.466-1.43-4.466Z" fill="#ffc9ac"/>
      <g id="Grupo_81515" data-name="Grupo 81515">
        <path id="Trazado_114773" data-name="Trazado 114773" d="M972.759,1103.281s-1.239,12.519-1.239,12.706c0,20.252-4,59.81-3.239,63.617,1.856,9.287,21.833,56.662,21.833,56.662l10.8-1.3-14.07-56.721,5.178-22.83,7.327-45.129Z" fill="#8f6bf5"/>
        <path id="Trazado_114774" data-name="Trazado 114774" d="M1009,1114.354l2.049,11.866,5.543,48.834,21.11,47.728s-2.97,6.945-7.351,7.92l-33.6-49-20.87-62.7.733-13.93Z" fill="#7a4ff3"/>
      </g>
      <path id="Trazado_114775" data-name="Trazado 114775" d="M968.452,1073.473l14.972,1.534s.687-12.316.687-18.191c0-7.128-.605-16.308-1.463-16.111a13.047,13.047,0,0,0-7.58,4.55C968.389,1054.464,968.452,1073.473,968.452,1073.473Z" fill="#cab9fa"/>
      <path id="Trazado_114776" data-name="Trazado 114776" d="M975.808,1055.559c-.314,2.173-6.07,61.252-6.07,61.252,27.262,13.211,42.3,2.353,42.3,2.353s-.892-41.486.178-47.132c.707-3.737,1.589-28.561-.824-29.257a60.164,60.164,0,0,0-10.516-2.242c-3.3-.344-16.134-.544-18.43.23A29.364,29.364,0,0,0,975.808,1055.559Z" fill="#d3c6fb"/>
      <path id="Trazado_114777" data-name="Trazado 114777" d="M1038.506,1223.944s-6.345,17.927-8.828,18.792c-.66.23-3.824.813-4.421,2.217a6.094,6.094,0,0,0,0,1.836h13.225s1.673-7.9,2.334-11.369c0,0,3.5-8.479,3.112-9.249S1038.506,1223.944,1038.506,1223.944Z" fill="#7f56f3"/>
      <path id="Trazado_114778" data-name="Trazado 114778" d="M1003.737,1246.416l-1.944-6.164s-4.085,1.733-6.127,1.445a61.738,61.738,0,0,1-6.029-1.445c-8.152,2.692-14.83,4-13.615,6.164h27.715Z" fill="#7f56f3"/>
      <g id="Grupo_81516" data-name="Grupo 81516">
        <path id="Trazado_114779" data-name="Trazado 114779" d="M966.351,1098.677a3.581,3.581,0,0,1-.411-.307c.485-5.788.4-11.4-1.413-13.292.043-.091.439-.935.852-1.81,2.1,1.628,3.095,5.954,2.7,12.976a11.915,11.915,0,0,1-.277,1.454C967.2,1098.368,966.647,1098.8,966.351,1098.677Z" fill="#d39479"/>
      </g>
      <path id="Trazado_114780" data-name="Trazado 114780" d="M1039.042,1117.437a1.672,1.672,0,0,0,.007-.381c-.4-4.091-3.787-38.447-4.357-39.907-.515-1.319-15.7-23.109-15.7-23.109l-7.463,10.2,14.6,19.544c.327,1.242,5.6,24.434,5.6,24.434s1.079,4.227,1.563,6.76c-.221.61-.437,1.186-.629,1.659a15.338,15.338,0,0,1-1.573,2.537,17.4,17.4,0,0,0-1.865,3.309c-.155.6-.433,1.837-.591,2.585s-.374,1.62-.411,2.026a3.926,3.926,0,0,1-.471,1.088.653.653,0,0,0,.769.944c.53-.177.943-.866,1.2-1.3.718-1.212,1.1-3.425,1.28-3.308s.809,3.872.908,4.3a46.443,46.443,0,0,0,1.281,5.581c.426.8.99.664,1.14.165.129-.429-.47-6.53-.47-6.53s-.075-.778.264-.535.9,5.781,1.131,6.591.775,1.24,1.232.589c.556-.792-.4-6.666-.4-6.666s-.107-.738.207-.669.708,4.788.953,5.2a.62.62,0,0,0,1.157-.126c.346-.8-.552-6.037-.552-6.037s.044-.417.24-.279.819,4.137,1.224,4.508a.43.43,0,0,0,.625.009c.744-.51-.4-4.313-.386-6.2s-.863-4.017-.6-6.268C1038.967,1118,1039.013,1117.655,1039.042,1117.437Z" fill="#ffc9ac"/>
      <path id="Trazado_114781" data-name="Trazado 114781" d="M1030.855,1067.84l-12.97,8.738s-7.31-10.915-11.234-14.8c-4.916-4.868,1.791-19.78,4.958-18.936C1018.693,1044.728,1030.855,1067.84,1030.855,1067.84Z" fill="#d3c6fb"/>
      <path id="Trazado_114782" data-name="Trazado 114782" d="M999.927,1027.76l1.94,12.83s-7.085,15.277-11.314,13.952c-3.549-1.112-1.366-14.629-1.366-14.629s1.934-7.259,1.354-10.891S999.927,1027.76,999.927,1027.76Z" fill="#ffc9ac"/>
      <path id="Trazado_114783" data-name="Trazado 114783" d="M990.541,1029.022c-.58-3.633,9.386-1.262,9.386-1.262l.161,1.064a5.915,5.915,0,0,1-1.081,1.788,13.1,13.1,0,0,1-8.714,3.957A19.87,19.87,0,0,0,990.541,1029.022Z" fill="#d39479"/>
      <g id="Grupo_81517" data-name="Grupo 81517">
        <path id="Trazado_114784" data-name="Trazado 114784" d="M1001.562,1009.609c.282-.1,2.258,14.613-1.492,18.662s-11.056,5.374-13.677,2.185c-2.9-3.528-2.753-19.343,3.077-23.508S1001.562,1009.609,1001.562,1009.609Z" fill="#ffc9ac"/>
        <path id="Trazado_114785" data-name="Trazado 114785" d="M991.69,999.076a16.185,16.185,0,0,1,8.5,4.863c2.046.242,4.827,1.377,7.7,6.148,3.531,5.867.923,12.367-3.187,15.555s-4.054,6.873-4.054,6.873l-.65-1.905a10.7,10.7,0,0,1-.515-4.488,8.805,8.805,0,0,1,.665-2.7c.989-2.13-2.124-3.545-3-5.317-.672-1.364-.705-4.485-1.764-6.741l-1.264-1.721s-2.917-2.278-5.771-1.635S985.908,997.893,991.69,999.076Z" fill="#7f56f3"/>
        <path id="Trazado_114786" data-name="Trazado 114786" d="M997.342,1020.726c-.03,1.795.783,3.265,1.816,3.283s1.895-1.424,1.925-3.219-.784-3.265-1.817-3.283S997.371,1018.931,997.342,1020.726Z" fill="#ffc9ac"/>
      </g>
      <path id="Trazado_114787" data-name="Trazado 114787" d="M991.252,1024.874l-5.652-.293a2.479,2.479,0,0,0,2.5,2.362C991.127,1027.188,991.252,1024.874,991.252,1024.874Z" fill="#fff"/>
    </g>
    <path id="Trazado_114788" data-name="Trazado 114788" d="M737.391,1245.872l2.764-.526-11.944-63.568-2.764.526Z" fill="#7346f2"/>
    <path id="Trazado_114789" data-name="Trazado 114789" d="M706.586,1246.161h-3.325l12.391-64.382,2.764.526Z" fill="#7346f2"/>
    <path id="Trazado_114790" data-name="Trazado 114790" d="M676.008,1246.161l2.7.032-11.879-64.126-2.764.526Z" fill="#7346f2"/>
    <path id="Trazado_114791" data-name="Trazado 114791" d="M688.068,1095.07c-10.945,1.177-25.111,2.417-39.331,26.632-15.542,26.465-7.361,66,4.906,76.982s52.332,24.549,86.012,4.243c0,0,20.336-12.306,9.9-32.729-16.061-31.43-13.792-37.984-20.973-50.3S711.3,1092.574,688.068,1095.07Z" fill="#fedfaf"/>
    <path id="Trazado_114792" data-name="Trazado 114792" d="M648.737,1121.7c9.706-16.528,19.386-22.351,28.034-24.758a72.674,72.674,0,0,0-10.131,13.723c-15.542,26.464-7.361,66,4.907,76.982,10.878,9.742,43.618,21.508,74.379,9.885a31.321,31.321,0,0,1-6.271,5.393c-33.68,20.306-73.745,6.742-86.012-4.243S633.2,1148.166,648.737,1121.7Z" fill="#feca7b"/>
    <path id="Trazado_114793" data-name="Trazado 114793" d="M723.21,1135.3l2.813,8.469-8.574-3.384Z" fill="#9b8ace"/>
    <path id="Trazado_114794" data-name="Trazado 114794" d="M714.372,1110.094c.571.023,2.137.547,4.428,4.876,2.925,5.528,7.2,22.226,7.2,22.226l-12.761,4.753-1.639-3.486-2.7-26.833S714.213,1110.087,714.372,1110.094Z" fill="#4929a6"/>
    <path id="Trazado_114795" data-name="Trazado 114795" d="M697.5,1107.687c3.649,0,12.678,1.069,16.868,2.408,0,0,3.079,26.459-2.771,46.564-1.31,4.5,1.083,18.657,1.083,18.657l-37.811-.5s4.479-34.223,2.791-39.751-1.727-24.793-1.727-24.793.259-.041,8.5-1.464A85.5,85.5,0,0,1,697.5,1107.687Z" fill="#735bba"/>
    <path id="Trazado_114796" data-name="Trazado 114796" d="M693.1,1224.425s.837,9.654,2.375,12.328-.081,7.219-.162,7.843-3.238,1.515-8.257.98-4.938-1.693-4.533-3.565,3.076-4.278,3.238-6.06-1.538-8.2-1.538-8.2Z" fill="#ffc9ac"/>
    <path id="Trazado_114797" data-name="Trazado 114797" d="M708.417,1167.347s26.1-1.449,31.929,2.081-1.053,10.778-1.053,10.778-21.25,9.239-56.824,11.292c-8.424.486-9.15-21.965-7.575-23.823S708.417,1167.347,708.417,1167.347Z" fill="#8f6bf5"/>
    <path id="Trazado_114798" data-name="Trazado 114798" d="M686.427,1246.326c-5.168-.551-4.529-3.09-4.112-5.017.261-1.207,1.744-2.63,2.627-3.975a8.616,8.616,0,0,0,3.458,1.681c2.331.688,5.525-.674,7.561-1.528a24.934,24.934,0,0,1,.691,6.667C696.569,1244.8,691.595,1246.876,686.427,1246.326Z" fill="#7f56f3"/>
    <path id="Trazado_114799" data-name="Trazado 114799" d="M689.28,1186.02c1.043,7.891,6.206,47.174,6.206,47.174l-11.98,1.486s-14.733-51.274-13.977-59.117,6.27-8.5,6.27-8.5S686.52,1165.131,689.28,1186.02Z" fill="#a588f7"/>
    <path id="Trazado_114800" data-name="Trazado 114800" d="M675.524,1113.214c3.535-1.327,5.265,30.527,5.741,43.639,6.261.6,17.173,0,19.89-.2,1.278-.1,4.225-1.175,5.5-1.341a12.676,12.676,0,0,1,3.123-.148c.235.041,6.76,2.709,7.319,3.294.692.726,2.564,2.557,2.248,3.349s-3.6-2.206-3.6-2.206l-1.605-.9c2,1.952,5.809,4.522,5.26,5.458-.536.913-3.973-1.695-6.423-3.473,2.1,1.9,4.712,5.294,4.111,5.823-.541.476-3.51-3.456-6.684-4.588-1.176-.419-2.348.743-3.273.883a6.632,6.632,0,0,1-2.4.133l-3.436-.974c-1.171.106-1.2.8-2.382,1.05-1.372.292-3.623.6-5.371,1.026-10.063,2.459-13.419,3.6-16.5,3.6C667.71,1167.631,667.169,1116.348,675.524,1113.214Z" fill="#ffc9ac"/>
    <path id="Trazado_114801" data-name="Trazado 114801" d="M668.815,1143.119c-.662-13.43-.565-29.983,6.963-32.807,2.97-1.114,8.207,5.586,7.265,33.08C679.024,1143.724,673.124,1143.991,668.815,1143.119Z" fill="#4929a6"/>
    <path id="Trazado_114802" data-name="Trazado 114802" d="M710.934,1137.349h-.767L698.63,1165.7l.794-.121Z" fill="#9b8ace"/>
    <path id="Trazado_114803" data-name="Trazado 114803" d="M728.13,1232.683s-1.045,3.352.827,5.568,9.649,4.391,10.67,5.592a3.364,3.364,0,0,1,.944,2.222l-21.83-.6.237-6.593,1.006-4.738Z" fill="#ffc9ac"/>
    <path id="Trazado_114804" data-name="Trazado 114804" d="M730.314,1239.356s-5.609,2.269-8.318.926-2.628-1.716-3.412-1.215-1.065,6.682-1.065,6.682l24.548.721c1.708-.039,2.571-1.3,1.184-2.374a20.051,20.051,0,0,0-2.677-1.592C738.654,1241.4,730.314,1239.356,730.314,1239.356Z" fill="#7f56f3"/>
    <path id="Trazado_114805" data-name="Trazado 114805" d="M727.3,1173.534c1.687-3.551,5.524-8.174,12.276-5.389,6.44,2.655,8.168,9.182,6.137,15.865s-15.408,45.97-15.874,51.372l-10.68.071s1.941-31.109,2.417-38.628C722.037,1189.59,724.383,1179.679,727.3,1173.534Z" fill="#a588f7"/>
    <path id="Trazado_114806" data-name="Trazado 114806" d="M744.64,1137.349h-35.7a2.326,2.326,0,0,0-2.153,1.449l-10.993,26.9H676.113a1,1,0,0,0-1,1h0a1,1,0,0,0,1,1h56.015a3.909,3.909,0,0,0,3.567-2.316l11.069-24.74A2.335,2.335,0,0,0,744.64,1137.349Z"/>
    <path id="Trazado_114807" data-name="Trazado 114807" d="M725.419,1153.013a1.966,1.966,0,1,1-1.472-2.571A2.1,2.1,0,0,1,725.419,1153.013Z" fill="#fff"/>
    <g id="Grupo_81519" data-name="Grupo 81519">
      <path id="Trazado_114808" data-name="Trazado 114808" d="M705.987,1075.37a27.3,27.3,0,0,1-3.158-1.264,15.836,15.836,0,0,0-3.6-1.357c-1.992-.307-5.415-.1-7.305,1.948-2.355,2.554-6.539.461-5.7,13.84.954,15.143,9.374,13.481,9.578,13.225s7.51-9.688,7.51-9.688,2.554,5.587,2.554,5.382S718.911,1079.723,705.987,1075.37Z" fill="#7346f2"/>
      <path id="Trazado_114809" data-name="Trazado 114809" d="M699.595,1102.88l.727,5.411s1.628,7.8-.467,9.3-8.908-9.521-8.908-9.521l.72-13.711Z" fill="#ffc9ac"/>
      <path id="Trazado_114810" data-name="Trazado 114810" d="M691.434,1098.8a15.525,15.525,0,0,0,8.777,8.666l-.616-4.588-7.928-8.522Z" fill="#d39479"/>
      <path id="Trazado_114811" data-name="Trazado 114811" d="M699.165,1079.438a7.214,7.214,0,0,1,8.309,7.3,54.857,54.857,0,0,1-.608,6.941c-.965,6.246-5.227,11.746-8.045,11.255s-9.907-5.879-8.659-14.768C690.933,1084.674,694.506,1080.19,699.165,1079.438Z" fill="#ffc9ac"/>
      <path id="Trazado_114812" data-name="Trazado 114812" d="M692.117,1091.223a2.1,2.1,0,1,1-1.6-2.84A2.324,2.324,0,0,1,692.117,1091.223Z" fill="#ffc9ac"/>
      <path id="Trazado_114813" data-name="Trazado 114813" d="M690.521,1088.383s3.407.846,4.671-1.345,5.786-6.92,11.533-4.96-5.058-4.767-5.517-4.767-5.977-.038-5.977-.038-4.253,3.5-4.407,3.883-1.379,4.575-1.379,4.575Z" fill="#7346f2"/>
    </g>
    <path id="Trazado_114814" data-name="Trazado 114814" d="M696.754,1097.525l6.2,1.186a2.759,2.759,0,0,1-3.332,1.893C696.278,1100.065,696.754,1097.525,696.754,1097.525Z" fill="#fff"/>
    <path id="Trazado_114815" data-name="Trazado 114815" d="M632.694,1028.466l6.2,1.185a2.76,2.76,0,0,1-3.333,1.893C632.218,1031.005,632.694,1028.466,632.694,1028.466Z" fill="#fff"/>
    <path id="Trazado_114816" data-name="Trazado 114816" d="M1134.712,1218.713a97.612,97.612,0,0,0-16.01,2.865,192.8,192.8,0,0,0-27.871,10.192c-4.459,1.944-8.947,3.862-13.321,5.993a47.953,47.953,0,0,0-5.988,3.272,66.672,66.672,0,0,0-6.983,5.713l2.082.062a69.237,69.237,0,0,1,13.9-9.064c17.185-8.279,35.037-16.768,54.2-18.876A.079.079,0,0,0,1134.712,1218.713Z" fill="#a588f7"/>
  </g>
</svg>
