<svg xmlns="http://www.w3.org/2000/svg" xmlns:xlink="http://www.w3.org/1999/xlink" width="120.147" height="131.141" viewBox="0 0 120.147 131.141">
  <defs>
    <clipPath id="clip-path">
      <circle id="Elipse_4857" data-name="Elipse 4857" cx="57.949" cy="57.949" r="57.949" fill="none"/>
    </clipPath>
  </defs>
  <g id="Ilustracion2-Tarletas-Tema4-2" transform="translate(-804.077 -2754)">
    <g id="Grupo_81792" data-name="Grupo 81792" transform="translate(604 2754)">
      <g id="Grupo_81769" data-name="Grupo 81769" transform="translate(200.077)">
        <g id="Grupo_81767" data-name="Grupo 81767" transform="translate(1.486 15.242)">
          <g id="Grupo_81766" data-name="Grupo 81766" clip-path="url(#clip-path)">
            <g id="Grupo_81765" data-name="Grupo 81765" transform="translate(-58.632 -18.173)">
              <rect id="Rectángulo_33991" data-name="Rectángulo 33991" width="180.597" height="180.597" fill="#fdda72"/>
              <g id="Grupo_81764" data-name="Grupo 81764" transform="translate(3.304 2.909)">
                <path id="Trazado_115095" data-name="Trazado 115095" d="M620.777,1779.749,606.93,1765.9l.023-.02-13.92,13.921,3.179,3.181,8.471-8.472v139.4h4.5v-139.4l8.418,8.419Z" transform="translate(-470.792 -1739.141)" fill="#5038a1"/>
                <path id="Trazado_115096" data-name="Trazado 115096" d="M653.591,1743.193l-13.847-13.847.023-.02-13.92,13.921,3.179,3.181,8.471-8.473V1904.1h4.5v-166.15l8.418,8.419Z" transform="translate(-479.604 -1729.325)" fill="#5038a1"/>
                <path id="Trazado_115097" data-name="Trazado 115097" d="M551.846,1849.721,538,1835.874l.023-.021-13.92,13.921,3.179,3.181,8.471-8.472v88.213h4.5v-88.213l8.418,8.42Z" transform="translate(-452.283 -1757.93)" fill="#8c6df2"/>
                <path id="Trazado_115098" data-name="Trazado 115098" d="M517.9,1884.674l-13.846-13.847.022-.02-13.92,13.92,3.18,3.182,8.471-8.473V1942.1h4.5v-62.659l8.419,8.42Z" transform="translate(-443.169 -1767.316)" fill="#86cccc"/>
                <g id="Grupo_81742" data-name="Grupo 81742" transform="translate(17.452 127.847)">
                  <g id="Grupo_81739" data-name="Grupo 81739" transform="translate(7.473 8.578)">
                    <path id="Trazado_115099" data-name="Trazado 115099" d="M463.971,1931.908c.2.236.393.47.6.71l.057.06.045.07a3.734,3.734,0,0,1,0,4.235l-.045.069-.057.063c-2.912,3.277-4.582,6.1-4.582,7.754a6.7,6.7,0,0,0,1.946,4.713H466.7v-14.717Z" transform="translate(-459.994 -1920.148)" fill="#fff"/>
                    <path id="Trazado_115100" data-name="Trazado 115100" d="M461.94,1915.831a6.7,6.7,0,0,0-1.946,4.714,4.756,4.756,0,0,0,.425,1.714H466.7v-6.428Z" transform="translate(-459.994 -1915.831)" fill="#fff"/>
                  </g>
                  <path id="Trazado_115101" data-name="Trazado 115101" d="M469.669,1931.863a2.5,2.5,0,0,1-.319-3.219c2.243-2.53,4.875-6.036,4.875-8.57a7.964,7.964,0,0,0-2.721-5.995H460.962a7.965,7.965,0,0,0-2.719,5.995c0,2.545,2.657,6.073,4.907,8.606a2.458,2.458,0,0,1,0,2.795c-2.249,2.532-4.905,6.059-4.905,8.6a7.964,7.964,0,0,0,2.719,5.994H471.5a7.963,7.963,0,0,0,2.721-5.994c0-2.415-2.39-5.712-4.556-8.207Zm-8.2,12.93a6.7,6.7,0,0,1-1.946-4.713c0-1.651,1.67-4.477,4.582-7.754l.057-.063.045-.069a3.735,3.735,0,0,0,0-4.235l-.045-.07-.057-.06c-2.912-3.279-4.582-6.1-4.582-7.755a6.7,6.7,0,0,1,1.946-4.714h4.763v6.428h6.286a23.027,23.027,0,0,1-3.55,5.329c.2-.227-.192.225,0,0l-2.736,2.958v14.717Z" transform="translate(-452.051 -1906.783)" fill="#e0e0e0"/>
                  <path id="Trazado_115102" data-name="Trazado 115102" d="M459.327,1914.783H463.4l-4.076-4.076Z" transform="translate(-452.342 -1905.877)" fill="#6d939b"/>
                  <path id="Trazado_115103" data-name="Trazado 115103" d="M469.718,1947.427a.87.87,0,1,1-.87-.87A.871.871,0,0,1,469.718,1947.427Z" transform="translate(-454.665 -1915.503)" fill="#0b4b59"/>
                  <path id="Trazado_115104" data-name="Trazado 115104" d="M469.718,1942.673a.87.87,0,1,1-.87-.87A.87.87,0,0,1,469.718,1942.673Z" transform="translate(-454.665 -1914.227)" fill="#0b4b59"/>
                  <path id="Trazado_115105" data-name="Trazado 115105" d="M469.718,1937.92a.87.87,0,1,1-.87-.869A.87.87,0,0,1,469.718,1937.92Z" transform="translate(-454.665 -1912.951)" fill="#0b4b59"/>
                  <path id="Trazado_115106" data-name="Trazado 115106" d="M455.379,1910.707h-2.806l2.806,2.806Z" transform="translate(-450.528 -1905.877)" fill="#0b4b59"/>
                  <g id="Grupo_81740" data-name="Grupo 81740">
                    <rect id="Rectángulo_33993" data-name="Rectángulo 33993" width="14.183" height="4.83" fill="#6d939b"/>
                    <path id="Trazado_115107" data-name="Trazado 115107" d="M480.707,1908.934v-4.83H466.525v4.83h-7.2l4.076,4.076h10.32v-4.076h2.135v37.257h-9.334v4.831h14.183v-4.831h-2.043v-37.257Z" transform="translate(-452.342 -1904.104)" fill="#3c6f7a"/>
                    <path id="Trazado_115108" data-name="Trazado 115108" d="M467.084,1943.888H456.763v4.076h-2.134v-34.451l-2.806-2.806v37.257h-2.045v4.831H463.96v-4.831h7.2v-4.076Z" transform="translate(-449.777 -1905.877)" fill="#6d939b"/>
                  </g>
                  <g id="Grupo_81741" data-name="Grupo 81741" transform="translate(7.898 15.006)">
                    <path id="Trazado_115109" data-name="Trazado 115109" d="M475.453,1924.619h-6.286v8.288l2.736-2.958A21.778,21.778,0,0,0,475.453,1924.619Z" transform="translate(-462.882 -1924.619)" fill="#0b4b59"/>
                    <path id="Trazado_115110" data-name="Trazado 115110" d="M460.575,1924.619a21.723,21.723,0,0,0,3.552,5.332l2.733,2.956v-8.288Z" transform="translate(-460.575 -1924.619)" fill="#86cccc"/>
                    <path id="Trazado_115111" data-name="Trazado 115111" d="M469.167,1950.288v4.228h4.777Z" transform="translate(-462.882 -1931.512)" fill="#0b4b59"/>
                    <path id="Trazado_115112" data-name="Trazado 115112" d="M462.638,1954.516h4.776v-4.228Z" transform="translate(-461.129 -1931.512)" fill="#86cccc"/>
                  </g>
                </g>
                <g id="Grupo_81746" data-name="Grupo 81746" transform="translate(49.642 134.08)">
                  <g id="Grupo_81743" data-name="Grupo 81743">
                    <path id="Trazado_115113" data-name="Trazado 115113" d="M507.69,1920.913a1.638,1.638,0,0,0-1.194.515v0a.871.871,0,0,1-1.477-.626v-3.858h-3.857a.871.871,0,0,1-.872-.872.861.861,0,0,1,.246-.6h0a1.648,1.648,0,1,0-2.265,0h0a.87.87,0,0,1-.628,1.475h-3.856v3.858a.871.871,0,0,0,1.476.627h0a1.647,1.647,0,1,1,0,2.265h0a.863.863,0,0,0-.6-.245.872.872,0,0,0-.872.871v3.856h3.856a.87.87,0,0,0,.628-1.475h0a1.647,1.647,0,1,1,2.265,0h0a.87.87,0,0,0,.626,1.475h3.857v-3.856a.871.871,0,0,1,1.477-.626h0a1.646,1.646,0,1,0,1.194-2.78Z" transform="translate(-493.784 -1912.625)" fill="#77afbf"/>
                    <path id="Trazado_115114" data-name="Trazado 115114" d="M523.049,1920.913a1.64,1.64,0,0,0-1.194.515v0a.871.871,0,0,1-1.478-.626v-3.858h-3.856a.872.872,0,0,1-.873-.872.862.862,0,0,1,.247-.6h0a1.647,1.647,0,1,0-2.265,0h0a.87.87,0,0,1-.628,1.475h-3.856v3.858a.871.871,0,0,0,1.477.627h0a1.647,1.647,0,1,1,0,2.265h0a.871.871,0,0,0-1.477.626v3.856H513a.87.87,0,0,0,.628-1.475h0a1.648,1.648,0,1,1,2.265,0h0a.869.869,0,0,0,.626,1.475h3.856v-3.856a.872.872,0,0,1,1.478-.626h0a1.647,1.647,0,1,0,1.194-2.78Z" transform="translate(-497.909 -1912.625)" fill="#86cccc"/>
                    <path id="Trazado_115115" data-name="Trazado 115115" d="M507.69,1936.275a1.638,1.638,0,0,0-1.194.515h0a.871.871,0,0,1-1.477-.626v-3.856h-3.857a.873.873,0,0,1-.872-.873.863.863,0,0,1,.246-.6h0a1.648,1.648,0,1,0-2.265,0h0a.871.871,0,0,1-.628,1.477h-3.856v3.856a.871.871,0,0,0,.872.871.863.863,0,0,0,.6-.245v0a1.647,1.647,0,1,1,0,2.265h0a.864.864,0,0,0-.6-.246.872.872,0,0,0-.872.872v3.856h3.856a.87.87,0,0,0,.628-1.475h0a1.647,1.647,0,1,1,2.265,0h0a.861.861,0,0,0-.246.6.871.871,0,0,0,.872.871h3.857v-3.856a.871.871,0,0,1,1.477-.627h0a1.646,1.646,0,1,0,1.194-2.78Z" transform="translate(-493.784 -1916.75)" fill="#f58b15"/>
                    <path id="Trazado_115116" data-name="Trazado 115116" d="M523.049,1936.275a1.639,1.639,0,0,0-1.194.515h0a.872.872,0,0,1-1.478-.626v-3.856h-3.856a.873.873,0,0,1-.873-.873.863.863,0,0,1,.247-.6h0a1.647,1.647,0,1,0-2.265,0h0a.871.871,0,0,1-.628,1.477h-3.856v3.856a.871.871,0,0,0,1.477.626v0a1.647,1.647,0,1,1,0,2.265h0a.871.871,0,0,0-1.477.626v3.856H513a.87.87,0,0,0,.628-1.475h0a1.648,1.648,0,1,1,2.265,0h0a.862.862,0,0,0-.247.6.871.871,0,0,0,.873.871h3.856v-3.856a.871.871,0,0,1,1.478-.627h0a1.647,1.647,0,1,0,1.194-2.78Z" transform="translate(-497.909 -1916.75)" fill="#0b4b59"/>
                  </g>
                  <g id="Grupo_81745" data-name="Grupo 81745" transform="translate(2.931 6.634)">
                    <g id="Grupo_81744" data-name="Grupo 81744" transform="translate(0.123 0.121)">
                      <path id="Trazado_115117" data-name="Trazado 115117" d="M504.936,1924.183v-2.324a8.467,8.467,0,0,0-6.977,6.965h2.322v2.775h-2.322a8.468,8.468,0,0,0,6.977,6.965v-2.324h1.374v-12.058Z" transform="translate(-497.959 -1921.859)" fill="#3c627a"/>
                      <path id="Trazado_115118" data-name="Trazado 115118" d="M515.4,1928.826h2.322a8.466,8.466,0,0,0-6.949-6.961v2.32h-1.4v12.058h1.4v2.32a8.464,8.464,0,0,0,6.949-6.961H515.4Z" transform="translate(-501.025 -1921.861)" fill="#0b3b59"/>
                    </g>
                    <path id="Trazado_115119" data-name="Trazado 115119" d="M514.738,1930.175v-.007h0c0-.246-.013-.487-.037-.726-.018-.222-.049-.439-.085-.655v-.007h0a8.468,8.468,0,0,0-6.949-6.961h0c-.22-.036-.443-.068-.669-.088s-.483-.037-.729-.037-.483.013-.72.036c-.218.018-.432.05-.645.083l-.01,0h0a8.468,8.468,0,0,0-6.977,6.965h0v.007c-.035.216-.067.433-.086.655-.023.238-.037.48-.037.726h0v.007c0,.242.014.481.037.718s.05.441.086.658v0h0a8.467,8.467,0,0,0,6.977,6.965h0l.01,0c.213.034.427.064.645.082.237.023.475.037.72.037s.488-.014.729-.037.449-.051.669-.089h0a8.465,8.465,0,0,0,6.949-6.961h0v0c.036-.217.067-.437.086-.658S514.737,1930.417,514.738,1930.175Zm-7.072,7.43v-1.859h-2.775v1.863a7.582,7.582,0,0,1-6.065-6.054h1.861v-2.775h-1.861a7.584,7.584,0,0,1,6.065-6.054v1.863h2.775v-1.86a7.586,7.586,0,0,1,6.038,6.05h-1.862v2.775H513.7A7.585,7.585,0,0,1,507.666,1937.605Z" transform="translate(-497.791 -1921.694)" fill="#fff"/>
                    <path id="Trazado_115120" data-name="Trazado 115120" d="M511.489,1931.168l-.968-.967-2.567,2.569-1.448-1.448-.968.968,2.413,2.413,0,0v0Z" transform="translate(-499.871 -1923.978)" fill="#fff"/>
                  </g>
                </g>
                <g id="Grupo_81761" data-name="Grupo 81761" transform="translate(76.982 29.884)">
                  <g id="Grupo_81760" data-name="Grupo 81760" transform="translate(6.549 3.594)">
                    <path id="Trazado_115121" data-name="Trazado 115121" d="M548.673,1806.755l-4.613-4.613a2.317,2.317,0,0,0-.346-.282v-2.406a.739.739,0,1,0-1.478,0v2.029a2.283,2.283,0,0,0-1.444.658,2.309,2.309,0,0,0,0,3.269l4.614,4.612a2.311,2.311,0,1,0,3.268-3.268Z" transform="translate(-540.113 -1781.436)" fill="#f5b400"/>
                    <rect id="Rectángulo_33994" data-name="Rectángulo 33994" width="4.639" height="2.566" transform="translate(1.591 24.912) rotate(-45)" fill="#e0e0e0"/>
                    <g id="Grupo_81747" data-name="Grupo 81747" transform="translate(41.122 38.929)">
                      <path id="Trazado_115122" data-name="Trazado 115122" d="M596.555,1831.619a2.316,2.316,0,0,1,1.091-3.081h0a2.313,2.313,0,0,1,3.082,1.091l2.809,5.888a2.312,2.312,0,0,1-1.089,3.082h0a2.308,2.308,0,0,1-3.08-1.09Z" transform="translate(-596.331 -1828.312)" fill="#f5b400"/>
                      <rect id="Rectángulo_33995" data-name="Rectángulo 33995" width="4.639" height="2.567" transform="matrix(0.902, -0.431, 0.431, 0.902, 1.367, 5.699)" fill="#e0e0e0"/>
                    </g>
                    <g id="Grupo_81755" data-name="Grupo 81755" transform="translate(23.14 17.448)">
                      <g id="Grupo_81748" data-name="Grupo 81748" transform="translate(4.634 3.601)">
                        <path id="Trazado_115123" data-name="Trazado 115123" d="M580.387,1806.174l-2.3-2.3,1.295,4.755Z" transform="translate(-578.083 -1803.869)" fill="#fff"/>
                      </g>
                      <g id="Grupo_81749" data-name="Grupo 81749" transform="translate(2.31 3.601)">
                        <path id="Trazado_115124" data-name="Trazado 115124" d="M574.906,1806.194l1,2.523,1.32-4.847Z" transform="translate(-574.906 -1803.869)" fill="#e0e0e0"/>
                      </g>
                      <g id="Grupo_81750" data-name="Grupo 81750" transform="translate(1.701 1.073)">
                        <path id="Trazado_115125" data-name="Trazado 115125" d="M575.7,1802.04l-1.627-1.627v1.627h.024a5.154,5.154,0,0,0,2.486.885Z" transform="translate(-574.074 -1800.413)" fill="#f5b400"/>
                      </g>
                      <g id="Grupo_81751" data-name="Grupo 81751" transform="translate(1.701)">
                        <path id="Trazado_115126" data-name="Trazado 115126" d="M574.074,1798.946v1.073l1.627,1.628.884.884c.14.009.279.016.422.016.091,0,.182-.007.274-.012a5.085,5.085,0,0,0,2.628-.885l.011,0v-2.7Z" transform="translate(-574.074 -1798.946)" fill="#f58b15"/>
                      </g>
                      <g id="Grupo_81752" data-name="Grupo 81752" transform="translate(1.701 2.701)">
                        <path id="Trazado_115127" data-name="Trazado 115127" d="M574.1,1802.638h-.024v1.7l.609,1.525,2.324-2.324A5.122,5.122,0,0,1,574.1,1802.638Z" transform="translate(-574.074 -1802.638)" fill="#f8f8f9"/>
                      </g>
                      <g id="Grupo_81753" data-name="Grupo 81753" transform="translate(4.634 2.701)">
                        <path id="Trazado_115128" data-name="Trazado 115128" d="M581.007,1804.338H581v-1.7h0a5.12,5.12,0,0,1-2.909.9l2.3,2.3Z" transform="translate(-578.083 -1802.638)" fill="#e0e0e0"/>
                      </g>
                      <g id="Grupo_81754" data-name="Grupo 81754" transform="translate(0 2.7)">
                        <path id="Trazado_115129" data-name="Trazado 115129" d="M573.449,1802.638h-1.7l1.7,1.7Z" transform="translate(-571.748 -1802.638)" fill="#0b4b59"/>
                      </g>
                    </g>
                    <g id="Grupo_81757" data-name="Grupo 81757" transform="translate(18.901)">
                      <g id="Grupo_81756" data-name="Grupo 81756" transform="translate(1.816 4.165)">
                        <path id="Trazado_115130" data-name="Trazado 115130" d="M577.477,1790.041a28.343,28.343,0,0,0-.721,2.9c0,.344.985,4.4.971,5.414a5.928,5.928,0,0,0,4.312-2.153,11.009,11.009,0,0,0,2.6-5.6,4.715,4.715,0,0,0-3.117-1.254C580.567,1789.349,577.877,1789.612,577.477,1790.041Z" transform="translate(-570.67 -1783.086)" fill="#f58b15"/>
                        <path id="Trazado_115131" data-name="Trazado 115131" d="M582.314,1784.822a6.153,6.153,0,0,1-6.76-.405,5.948,5.948,0,0,1-2.292-3.63c-2.8.539-4.826,2.254-4.826,5.9a11.1,11.1,0,0,0,2.668,7.145,7.293,7.293,0,0,0,1.993,1.6,5.056,5.056,0,0,0,2.388.622h.007c.014-1.018-.007-7.428-.007-7.772,0,0,.523-.372.783-.54a6.735,6.735,0,0,1,3.019-.692,4.715,4.715,0,0,1,3.117,1.254,10.719,10.719,0,0,0,.127-1.463v-.243A7.893,7.893,0,0,0,582.314,1784.822Z" transform="translate(-568.436 -1780.787)" fill="#f5b400"/>
                      </g>
                      <path id="Trazado_115132" data-name="Trazado 115132" d="M583.481,1781.663c-.735-3.807-4.139-6.57-8.662-6.57a9.2,9.2,0,0,0-1.55.131c-5.117.842-8.852,5.8-6.69,11.487,1.532,4.028,2.5,5.273,3.859,5.593a11.1,11.1,0,0,1-2.669-7.145,5.938,5.938,0,0,1,1.333-4.078,3.016,3.016,0,0,1,4.2.037,6.146,6.146,0,0,0,8.349,2.175h0a7.711,7.711,0,0,1,.219,1.866,11.085,11.085,0,0,1-2.729,7.213c1.282-.312,2.232-1.577,3.815-5.661A9.112,9.112,0,0,0,583.481,1781.663Z" transform="translate(-565.953 -1775.093)" fill="#59270b"/>
                    </g>
                    <path id="Trazado_115133" data-name="Trazado 115133" d="M568.052,1811.562l-4.827-4.827,2.4-2.4-1.7-1.7h-1.461a5.134,5.134,0,0,0-3.818,1.7l-5.725,5.727-5.729-5.728-4.583,4.586,5.727,5.726h0c4.469,4.472,6.42,2.751,9.17,0h0l1.206-1.208v13.594h9.846v-14.963Z" transform="translate(-540.783 -1782.489)" fill="#6d939b"/>
                    <path id="Trazado_115134" data-name="Trazado 115134" d="M587.012,1805.957a5.15,5.15,0,0,0-4.809-3.319h-3.164l.012,1.7-1.629,3.956-.729-2.673.759-.759-1.325-1.323-1.325,1.323.759.759-.753,2.766-1.613-4.048-2.4,2.4,5.333,5.332v14.968h9.946v-7.9l4.52,9.53,5.874-2.788Z" transform="translate(-548.351 -1782.489)" fill="#3c6f7a"/>
                    <rect id="Rectángulo_33996" data-name="Rectángulo 33996" width="19.792" height="1.858" transform="translate(17.928 44.546)" fill="#e0e0e0"/>
                    <path id="Trazado_115135" data-name="Trazado 115135" d="M564.622,1838.532v30.315h7.627V1848.86a2.267,2.267,0,0,1,2.268-2.267v-8.061Z" transform="translate(-546.694 -1792.128)" fill="#6d939b"/>
                    <path id="Trazado_115136" data-name="Trazado 115136" d="M576.99,1838.532v.007l-3.16-.007v5.168a3.03,3.03,0,0,0,3.147,2.893h.013a2.269,2.269,0,0,1,2.27,2.267v19.986h7.627v-30.315Z" transform="translate(-549.167 -1792.128)" fill="#3c6f7a"/>
                    <g id="Grupo_81758" data-name="Grupo 81758" transform="translate(17.729 73.162)">
                      <path id="Trazado_115137" data-name="Trazado 115137" d="M568.4,1875.112a4.047,4.047,0,0,0-4.045,4.048h8.092A4.047,4.047,0,0,0,568.4,1875.112Z" transform="translate(-564.35 -1875.112)" fill="#77afbf"/>
                    </g>
                    <rect id="Rectángulo_33997" data-name="Rectángulo 33997" width="8.092" height="1.859" transform="translate(17.729 77.21)" fill="#0b4b59"/>
                    <g id="Grupo_81759" data-name="Grupo 81759" transform="translate(29.909 73.156)">
                      <path id="Trazado_115138" data-name="Trazado 115138" d="M585.05,1875.1A4.048,4.048,0,0,0,581,1879.15h8.1A4.047,4.047,0,0,0,585.05,1875.1Z" transform="translate(-581.001 -1875.104)" fill="#77afbf"/>
                    </g>
                    <rect id="Rectángulo_33998" data-name="Rectángulo 33998" width="8.095" height="1.859" transform="translate(29.909 77.203)" fill="#0b4b59"/>
                  </g>
                  <path id="Trazado_115139" data-name="Trazado 115139" d="M549.857,1779.528a9.348,9.348,0,1,1-9.348-9.348A9.348,9.348,0,0,1,549.857,1779.528Z" transform="translate(-531.16 -1770.18)" fill="#0b4b59"/>
                  <path id="Trazado_115140" data-name="Trazado 115140" d="M548.36,1780.375a6.985,6.985,0,1,0-6.962,7.006A6.991,6.991,0,0,0,548.36,1780.375Z" transform="translate(-532.027 -1771.048)" fill="#fff"/>
                  <path id="Trazado_115141" data-name="Trazado 115141" d="M545.21,1778.007,543,1780.23a1.339,1.339,0,0,0-1.282.007l-3.091-3.072-.527.53,3.091,3.072a1.335,1.335,0,1,0,2.338-.007l2.213-2.227Z" transform="translate(-533.023 -1772.056)" fill="#0b4b59"/>
                </g>
                <path id="Trazado_115142" data-name="Trazado 115142" d="M475.118,1891.4v-1.147H474.3a2.36,2.36,0,0,0-.284-.685l.58-.581-.81-.811-.58.579a2.429,2.429,0,0,0-.686-.282v-.822H471.37v.822a2.435,2.435,0,0,0-.687.282l-.579-.579-.811.811.581.581a2.365,2.365,0,0,0-.285.685h-.821v1.147h.821a2.394,2.394,0,0,0,.285.686l-.581.579.811.811.58-.58a2.413,2.413,0,0,0,.686.285v.82h1.146v-.821a2.42,2.42,0,0,0,.686-.285l.58.58.81-.811-.58-.579a2.388,2.388,0,0,0,.284-.686Zm-3.175.542a1.115,1.115,0,1,1,1.115-1.114A1.116,1.116,0,0,1,471.943,1891.937Z" transform="translate(-437.425 -1771.838)" fill="#0b4b59"/>
                <g id="Grupo_81763" data-name="Grupo 81763" transform="translate(0 155.025)">
                  <path id="Trazado_115143" data-name="Trazado 115143" d="M434.262,1941.259v15.147l2.406-.02.373-.367v-.166a6.726,6.726,0,0,1,1.426-4.069,6.047,6.047,0,0,0,1.9-4.422A6.11,6.11,0,0,0,434.262,1941.259Z" transform="translate(-428.159 -1941.259)" fill="#f58b15"/>
                  <path id="Trazado_115144" data-name="Trazado 115144" d="M432.022,1941.654v-.395a6.1,6.1,0,0,0-4.064,10.656,6.6,6.6,0,0,1,1.285,3.931v.078l.209.5,2.57-.022S432.035,1941.654,432.022,1941.654Z" transform="translate(-425.919 -1941.259)" fill="#f5b400"/>
                  <path id="Trazado_115145" data-name="Trazado 115145" d="M433.281,1961.652v-.786h-2.818v5.412h2.818v-.787h-.039v-3.839Z" transform="translate(-427.139 -1946.524)" fill="#0b4b59"/>
                  <rect id="Rectángulo_33999" data-name="Rectángulo 33999" width="2.776" height="5.412" transform="translate(6.105 14.342)" fill="#083843"/>
                  <g id="Grupo_81762" data-name="Grupo 81762" transform="translate(3.324 15.431)">
                    <rect id="Rectángulo_34000" data-name="Rectángulo 34000" width="2.779" height="1.088" transform="translate(0 2.145)" fill="#77afbf"/>
                    <rect id="Rectángulo_34001" data-name="Rectángulo 34001" width="2.788" height="1.088" transform="translate(2.779 2.145)" fill="#0b4b59"/>
                    <rect id="Rectángulo_34002" data-name="Rectángulo 34002" width="2.777" height="1.089" transform="translate(0.002)" fill="#77afbf"/>
                    <rect id="Rectángulo_34003" data-name="Rectángulo 34003" width="2.789" height="1.089" transform="translate(2.779)" fill="#0b4b59"/>
                  </g>
                </g>
              </g>
            </g>
          </g>
        </g>
        <g id="Grupo_81768" data-name="Grupo 81768">
          <path id="Trazado_115146" data-name="Trazado 115146" d="M596.212,1782.991l8.471-8.472v49.749h4.5v-49.749l8.418,8.419,3.179-3.181-13.845-13.846-13.9,13.9Z" transform="translate(-524.633 -1739.171)" fill="#5038a1"/>
          <path id="Trazado_115147" data-name="Trazado 115147" d="M629.026,1746.435l8.471-8.473v76.489h4.5v-76.489l8.418,8.419,3.178-3.181-13.845-13.846-13.9,13.9Z" transform="translate(-533.444 -1729.355)" fill="#5038a1"/>
          <path id="Trazado_115148" data-name="Trazado 115148" d="M510.487,1850.1v-1.98h-1.418a4.1,4.1,0,0,0-.491-1.184l1-1-1.4-1.4-1,1a4.19,4.19,0,0,0-1.184-.491v-1.417h-1.98v1.417a4.18,4.18,0,0,0-1.184.491l-1-1-1.4,1.4,1,1a4.137,4.137,0,0,0-.491,1.184h-1.417v1.98h1.417a4.162,4.162,0,0,0,.491,1.184l-1,1,1.4,1.4,1-1a4.175,4.175,0,0,0,1.184.491v1.416H506v-1.417a4.2,4.2,0,0,0,1.184-.491l1,1,1.4-1.4-1-1a4.122,4.122,0,0,0,.491-1.184Zm-5.482.936a1.926,1.926,0,1,1,1.926-1.926A1.927,1.927,0,0,1,505,1851.032Z" transform="translate(-499.524 -1760.039)" fill="#f5b400"/>
          <path id="Trazado_115149" data-name="Trazado 115149" d="M600.543,1756.139v-2.4h-1.72a5.038,5.038,0,0,0-.6-1.438l1.217-1.217-1.7-1.7-1.214,1.217a5.094,5.094,0,0,0-1.439-.595v-1.722h-2.4V1750a5.081,5.081,0,0,0-1.44.595l-1.215-1.217-1.7,1.7,1.216,1.217a5.038,5.038,0,0,0-.6,1.438h-1.72v2.4h1.72a5.071,5.071,0,0,0,.6,1.439l-1.216,1.216,1.7,1.7,1.216-1.217a5.012,5.012,0,0,0,1.438.6v1.72l2.4,0v-1.722a5.05,5.05,0,0,0,1.439-.6l1.214,1.217,1.7-1.7-1.217-1.216a5.071,5.071,0,0,0,.6-1.439Zm-6.656,1.137a2.339,2.339,0,1,1,2.339-2.338A2.339,2.339,0,0,1,593.888,1757.276Z" transform="translate(-523.075 -1734.437)" fill="#5038a1"/>
        </g>
      </g>
    </g>
  </g>
</svg>
