<svg id="Ilustracion1-Tarletas-Tema4-2" xmlns="http://www.w3.org/2000/svg" xmlns:xlink="http://www.w3.org/1999/xlink" width="115.978" height="115.899" viewBox="0 0 115.978 115.899">
  <defs>
    <clipPath id="clip-path">
      <circle id="Elipse_4859" data-name="Elipse 4859" cx="57.949" cy="57.949" r="57.949" fill="none"/>
    </clipPath>
  </defs>
  <g id="Grupo_81789" data-name="Grupo 81789">
    <g id="Grupo_81788" data-name="Grupo 81788" clip-path="url(#clip-path)">
      <g id="Grupo_81787" data-name="Grupo 81787" transform="translate(-25.024 -21.836)">
        <rect id="Rectángulo_34004" data-name="Rectángulo 34004" width="166.757" height="166.757" transform="translate(0)" fill="#fdda72"/>
        <g id="Grupo_81770" data-name="Grupo 81770" transform="translate(59.6 47.638)">
          <path id="Trazado_115156" data-name="Trazado 115156" d="M316.351,1799.9l4.97,4.973v-9.365a1.264,1.264,0,0,0-1.263-1.263H274.53a1.264,1.264,0,0,0-1.261,1.263v56.885a1.262,1.262,0,0,0,1.261,1.264h9.6l-6.155-6.153Z" transform="translate(-273.269 -1787.823)" fill="#3c627a"/>
          <path id="Trazado_115157" data-name="Trazado 115157" d="M323.049,1854.468v-47.52l-4.97-4.973-38.376,47.6,6.155,6.153h35.929A1.262,1.262,0,0,0,323.049,1854.468Z" transform="translate(-274.996 -1789.899)" fill="#0b3b59"/>
          <path id="Trazado_115158" data-name="Trazado 115158" d="M318.079,1801.975H279.7v47.6h38.376v-47.6Z" transform="translate(-274.996 -1789.899)" fill="#fff"/>
          <rect id="Rectángulo_34005" data-name="Rectángulo 34005" width="22.947" height="2.812" transform="translate(16.156 25.796)" fill="#e0e0e0"/>
          <rect id="Rectángulo_34006" data-name="Rectángulo 34006" width="22.956" height="2.811" transform="translate(16.156 31.42)" fill="#e0e0e0"/>
          <rect id="Rectángulo_34007" data-name="Rectángulo 34007" width="22.956" height="2.813" transform="translate(16.156 37.04)" fill="#e0e0e0"/>
          <rect id="Rectángulo_34008" data-name="Rectángulo 34008" width="22.956" height="2.812" transform="translate(16.156 42.665)" fill="#e0e0e0"/>
          <rect id="Rectángulo_34009" data-name="Rectángulo 34009" width="22.956" height="2.811" transform="translate(16.156 48.29)" fill="#e0e0e0"/>
          <rect id="Rectángulo_34010" data-name="Rectángulo 34010" width="22.947" height="2.81" transform="translate(16.156 20.175)" fill="#e0e0e0"/>
          <rect id="Rectángulo_34011" data-name="Rectángulo 34011" width="25.845" height="7.932" transform="translate(11.103 6.421)" fill="#f58b15"/>
          <circle id="Elipse_4858" data-name="Elipse 4858" cx="6.421" cy="6.421" r="6.421" transform="translate(17.605)" fill="#e0e0e0"/>
          <path id="Trazado_115159" data-name="Trazado 115159" d="M307.033,1793.712a1.45,1.45,0,1,1-1.451-1.45A1.451,1.451,0,0,1,307.033,1793.712Z" transform="translate(-281.557 -1787.291)" fill="#0b3b59"/>
          <path id="Trazado_115160" data-name="Trazado 115160" d="M289.971,1817.629l-1.3-1.3-3.444,3.445-1.941-1.941-1.3,1.3,3.237,3.237,0,0,0,0Z" transform="translate(-275.611 -1793.755)" fill="#77afbf"/>
          <path id="Trazado_115161" data-name="Trazado 115161" d="M289.971,1832.025l-1.3-1.3-3.444,3.446-1.941-1.942-1.3,1.3,3.237,3.237,0,0,0,0Z" transform="translate(-275.611 -1797.62)" fill="#77afbf"/>
          <path id="Trazado_115162" data-name="Trazado 115162" d="M289.971,1846.42l-1.3-1.3-3.444,3.446-1.941-1.941-1.3,1.3,3.237,3.237,0,0,0,0Z" transform="translate(-275.611 -1801.485)" fill="#77afbf"/>
        </g>
        <path id="Trazado_115163" data-name="Trazado 115163" d="M362.3,1856.807h-4.2v-4.2h-2.848v4.2h-4.2v2.848h4.2v4.2H358.1v-4.2h4.2Z" transform="translate(-234.555 -1755.857)" fill="#e0e0e0"/>
        <path id="Trazado_115164" data-name="Trazado 115164" d="M368.792,1870.559h-2.783v-2.783h-1.886v2.783H361.34v1.886h2.783v2.783h1.886v-2.783h2.783Z" transform="translate(-237.318 -1759.93)" fill="#fff"/>
        <path id="Trazado_115165" data-name="Trazado 115165" d="M383.508,1778.06h-2.783v-2.783h-1.886v2.783h-2.783v1.886h2.783v2.783h1.886v-2.783h2.783Z" transform="translate(-241.269 -1735.092)" fill="#5038a1"/>
        <path id="Trazado_115166" data-name="Trazado 115166" d="M366.2,1807.562h-2.783v-2.783h-1.886v2.783h-2.783v1.886h2.783v2.783h1.886v-2.783H366.2Z" transform="translate(-236.62 -1743.014)" fill="#0b4b59"/>
        <path id="Trazado_115167" data-name="Trazado 115167" d="M407.821,1857.986h-2.783V1855.2h-1.886v2.783h-2.783v1.886h2.783v2.783h1.886v-2.783h2.783Z" transform="translate(-247.798 -1756.554)" fill="#0b4b59"/>
        <path id="Trazado_115168" data-name="Trazado 115168" d="M379.8,1793.335H374.96V1788.5h-3.278v4.838h-4.837v3.278h4.837v4.837h3.278v-4.837H379.8Z" transform="translate(-238.796 -1738.642)" fill="#e0e0e0"/>
        <g id="Grupo_81785" data-name="Grupo 81785" transform="translate(50.126 98.314)">
          <g id="Grupo_81771" data-name="Grupo 81771" transform="translate(0.434 5.833)">
            <rect id="Rectángulo_34012" data-name="Rectángulo 34012" width="3.64" height="3.939" transform="translate(0 2.574) rotate(-44.995)" fill="#0b4b59"/>
          </g>
          <g id="Grupo_81772" data-name="Grupo 81772" transform="translate(1.334 6.894)">
            <path id="Trazado_115169" data-name="Trazado 115169" d="M275.732,1864.17h0v19.884h0a9.942,9.942,0,0,0,0-19.884Z" transform="translate(-265.79 -1864.17)" fill="#fff"/>
            <path id="Trazado_115170" data-name="Trazado 115170" d="M262.14,1874.112a9.942,9.942,0,0,0,9.942,9.942V1864.17A9.942,9.942,0,0,0,262.14,1874.112Z" transform="translate(-262.14 -1864.17)" fill="#77afbf"/>
          </g>
          <g id="Grupo_81773" data-name="Grupo 81773" transform="translate(9.455 2.311)">
            <path id="Trazado_115171" data-name="Trazado 115171" d="M273.243,1859.721v3.561H276.8Z" transform="translate(-273.243 -1858.392)" fill="#a3a198"/>
            <path id="Trazado_115172" data-name="Trazado 115172" d="M276.883,1862.794v-4.89h-3.64v1.329l3.561,3.561Z" transform="translate(-273.243 -1857.905)" fill="#083843"/>
          </g>
          <path id="Trazado_115173" data-name="Trazado 115173" d="M271.593,1884.9a11.275,11.275,0,1,1,11.274-11.275A11.288,11.288,0,0,1,271.593,1884.9Zm0-19.884a8.609,8.609,0,1,0,8.608,8.609A8.619,8.619,0,0,0,271.593,1865.014Z" transform="translate(-260.317 -1856.786)" fill="#0b4b59"/>
          <g id="Grupo_81782" data-name="Grupo 81782" transform="translate(4.222 9.783)">
            <g id="Grupo_81774" data-name="Grupo 81774" transform="translate(6.419)">
              <rect id="Rectángulo_34013" data-name="Rectángulo 34013" width="1.259" height="2.89" fill="#86cccc"/>
            </g>
            <g id="Grupo_81775" data-name="Grupo 81775" transform="translate(1.618 1.624)">
              <rect id="Rectángulo_34014" data-name="Rectángulo 34014" width="1.259" height="2.891" transform="translate(0 0.89) rotate(-45)" fill="#86cccc"/>
            </g>
            <g id="Grupo_81776" data-name="Grupo 81776" transform="translate(0 6.428)">
              <rect id="Rectángulo_34015" data-name="Rectángulo 34015" width="2.89" height="1.259" fill="#86cccc"/>
            </g>
            <g id="Grupo_81777" data-name="Grupo 81777" transform="translate(1.624 9.555)">
              <rect id="Rectángulo_34016" data-name="Rectángulo 34016" width="2.89" height="1.259" transform="translate(0 2.043) rotate(-44.988)" fill="#86cccc"/>
            </g>
            <g id="Grupo_81778" data-name="Grupo 81778" transform="translate(6.429 11.216)">
              <rect id="Rectángulo_34017" data-name="Rectángulo 34017" width="1.259" height="2.891" fill="#86cccc"/>
            </g>
            <g id="Grupo_81779" data-name="Grupo 81779" transform="translate(9.555 9.548)">
              <rect id="Rectángulo_34018" data-name="Rectángulo 34018" width="1.259" height="2.891" transform="translate(0 0.89) rotate(-45.002)" fill="#86cccc"/>
            </g>
            <g id="Grupo_81780" data-name="Grupo 81780" transform="translate(11.216 6.419)">
              <rect id="Rectángulo_34019" data-name="Rectángulo 34019" width="2.89" height="1.259" fill="#86cccc"/>
            </g>
            <g id="Grupo_81781" data-name="Grupo 81781" transform="translate(9.549 1.617)">
              <rect id="Rectángulo_34020" data-name="Rectángulo 34020" width="2.891" height="1.259" transform="translate(0 2.044) rotate(-44.988)" fill="#86cccc"/>
            </g>
          </g>
          <g id="Grupo_81783" data-name="Grupo 81783" transform="translate(10.371 14.217)">
            <path id="Trazado_115174" data-name="Trazado 115174" d="M275.907,1877.51a.828.828,0,0,1-1.17-1.17c.323-.323,3.33-2.158,3.33-2.158S276.231,1877.187,275.907,1877.51Z" transform="translate(-274.495 -1874.181)" fill="#fafeff"/>
          </g>
          <g id="Grupo_81784" data-name="Grupo 81784" transform="translate(7.476)">
            <rect id="Rectángulo_34021" data-name="Rectángulo 34021" width="3.745" height="3.64" fill="#86cccc"/>
            <rect id="Rectángulo_34022" data-name="Rectángulo 34022" width="3.745" height="3.64" transform="translate(3.745)" fill="#0b4b59"/>
          </g>
        </g>
        <path id="Trazado_115175" data-name="Trazado 115175" d="M323.454,1772.069v-2.24h-1.6a4.694,4.694,0,0,0-.554-1.34l1.134-1.134-1.584-1.584-1.135,1.134a4.678,4.678,0,0,0-1.34-.554v-1.6h-2.24v1.6a4.692,4.692,0,0,0-1.341.554l-1.134-1.134-1.584,1.584,1.134,1.134a4.7,4.7,0,0,0-.554,1.34h-1.6v2.24h1.6a4.7,4.7,0,0,0,.554,1.34l-1.134,1.134,1.584,1.584,1.135-1.135a4.709,4.709,0,0,0,1.34.555v1.6h2.24v-1.6a4.708,4.708,0,0,0,1.34-.555l1.135,1.135,1.584-1.584-1.134-1.134a4.716,4.716,0,0,0,.554-1.34Zm-6.2,1.059a2.179,2.179,0,1,1,2.179-2.179A2.18,2.18,0,0,1,317.251,1773.128Z" transform="translate(-269.78 -1724.561)" fill="#5038a1"/>
        <g id="Grupo_81786" data-name="Grupo 81786" transform="translate(99.528 36.34)">
          <path id="Trazado_115176" data-name="Trazado 115176" d="M334.253,1784.6l-1.989-1.988,8.324-8.324,1.989,1.989,2.625.977,5.191,5.191c.036-.37.056-.745.056-1.124a11.3,11.3,0,1,0-11.3,11.3,11.43,11.43,0,0,0,1.385-.088l-5.306-5.305Z" transform="translate(-327.854 -1770.021)" fill="#0b4b59"/>
          <path id="Trazado_115177" data-name="Trazado 115177" d="M352.012,1784.008l-5.191-5.191-2.625-.977-1.989-1.989-8.324,8.323,1.989,1.989.977,2.625,5.306,5.305A11.3,11.3,0,0,0,352.012,1784.008Z" transform="translate(-329.473 -1771.587)" fill="#083843"/>
          <path id="Trazado_115178" data-name="Trazado 115178" d="M347.985,1784.174v-2.546h-1.824a5.331,5.331,0,0,0-.631-1.523l1.29-1.289-1.8-1.8-1.288,1.289a5.351,5.351,0,0,0-1.524-.629v-1.824h-2.546v1.824a5.346,5.346,0,0,0-1.523.629l-1.289-1.289-1.8,1.8,1.289,1.289a5.373,5.373,0,0,0-.631,1.523h-1.824v2.545h1.824a5.376,5.376,0,0,0,.631,1.524l-1.289,1.288,1.8,1.8,1.289-1.289a5.375,5.375,0,0,0,1.523.63v1.823h2.546v-1.823a5.38,5.38,0,0,0,1.524-.63l1.288,1.288,1.8-1.8-1.29-1.288a5.334,5.334,0,0,0,.631-1.524Zm-7.051,1.205a2.478,2.478,0,1,1,2.477-2.478A2.478,2.478,0,0,1,340.934,1785.379Z" transform="translate(-329.473 -1771.587)" fill="#86cccc"/>
        </g>
      </g>
    </g>
  </g>
  <g id="Grupo_81790" data-name="Grupo 81790" transform="translate(79.295 3.883)">
    <path id="Trazado_115183" data-name="Trazado 115183" d="M362.3,1856.807h-4.2v-4.2h-2.848v4.2h-4.2v2.848h4.2v4.2H358.1v-4.2h4.2Z" transform="translate(-338.874 -1781.576)" fill="#5038a1"/>
    <path id="Trazado_115184" data-name="Trazado 115184" d="M368.792,1870.559h-2.783v-2.783h-1.886v2.783H361.34v1.886h2.783v2.783h1.886v-2.783h2.783Z" transform="translate(-341.637 -1785.65)" fill="#8c6df2"/>
    <path id="Trazado_115185" data-name="Trazado 115185" d="M366.2,1807.562h-2.783v-2.783h-1.886v2.783h-2.783v1.886h2.783v2.783h1.886v-2.783H366.2Z" transform="translate(-340.939 -1768.734)" fill="#5038a1"/>
    <path id="Trazado_115186" data-name="Trazado 115186" d="M374.96,1793.335V1788.5h-3.278v4.838H367.3v2.318h-.456v.96h4.837v4.837h3.278v-4.837H379.8v-3.278Z" transform="translate(-343.115 -1764.362)" fill="#8c6df2"/>
  </g>
</svg>
