<svg xmlns="http://www.w3.org/2000/svg" width="91.769" height="91.769" viewBox="0 0 91.769 91.769">
  <g id="Grupo_82500" data-name="Grupo 82500" transform="translate(-1254.844 -2348.007)">
    <g id="Grupo_82492" data-name="Grupo 82492" transform="translate(1254.843 2348.007)">
      <ellipse id="Elipse_4751" data-name="Elipse 4751" cx="45.884" cy="45.884" rx="45.884" ry="45.884" transform="translate(0 0)" fill="none"/>
      <g id="Grupo_82491" data-name="Grupo 82491" transform="translate(18.012 9.908)">
        <path id="Trazado_116158" data-name="Trazado 116158" d="M1275.934,2447.44a2.917,2.917,0,1,1-2.889,2.917A2.9,2.9,0,0,1,1275.934,2447.44Z" transform="translate(-1227.787 -2405.694)" fill="#5038a1"/>
        <path id="Trazado_116159" data-name="Trazado 116159" d="M1251.921,2418.453a2.917,2.917,0,1,1-2.889,2.917A2.9,2.9,0,0,1,1251.921,2418.453Z" transform="translate(-1224.05 -2401.182)" fill="#5038a1"/>
        <path id="Trazado_116160" data-name="Trazado 116160" d="M1234.639,2454.62a7.6,7.6,0,1,1-7.6-7.67A7.643,7.643,0,0,1,1234.639,2454.62Zm-12.609,0a5.012,5.012,0,1,0,5.012-5.06A5.042,5.042,0,0,0,1222.029,2454.62Z" transform="translate(-1219.444 -2405.618)" fill="#5038a1"/>
        <ellipse id="Elipse_4896" data-name="Elipse 4896" cx="2.889" cy="2.917" rx="2.889" ry="2.917" transform="translate(4.708 46.085)" fill="#5038a1"/>
        <path id="Trazado_116161" data-name="Trazado 116161" d="M1258.651,2420.494a7.6,7.6,0,1,1-7.6-7.67A7.642,7.642,0,0,1,1258.651,2420.494Zm-12.609,0a5.012,5.012,0,1,0,5.013-5.059A5.042,5.042,0,0,0,1246.041,2420.494Z" transform="translate(-1223.182 -2400.306)" fill="#5038a1"/>
        <path id="Trazado_116162" data-name="Trazado 116162" d="M1282.664,2449.481a7.6,7.6,0,1,1-7.6-7.671A7.643,7.643,0,0,1,1282.664,2449.481Zm-12.609,0a5.012,5.012,0,1,0,5.012-5.06A5.042,5.042,0,0,0,1270.054,2449.481Z" transform="translate(-1226.919 -2404.818)" fill="#5038a1"/>
        <path id="Trazado_116163" data-name="Trazado 116163" d="M1229.5,2463.332v15.28a1.293,1.293,0,1,1-2.585,0v-15.28a1.293,1.293,0,1,1,2.585,0Z" transform="translate(-1220.606 -2407.965)" fill="#5038a1"/>
        <path id="Trazado_116164" data-name="Trazado 116164" d="M1229.5,2399.3v41.333a1.293,1.293,0,1,1-2.585,0V2399.3a1.293,1.293,0,1,1,2.585,0Z" transform="translate(-1220.606 -2397.998)" fill="#5038a1"/>
        <path id="Trazado_116165" data-name="Trazado 116165" d="M1253.509,2429.206V2473.3a1.293,1.293,0,1,1-2.585,0v-44.095a1.293,1.293,0,1,1,2.585,0Z" transform="translate(-1224.344 -2402.653)" fill="#5038a1"/>
        <path id="Trazado_116166" data-name="Trazado 116166" d="M1253.509,2399.3v12.519a1.293,1.293,0,1,1-2.585,0V2399.3a1.293,1.293,0,1,1,2.585,0Z" transform="translate(-1224.344 -2397.998)" fill="#5038a1"/>
        <path id="Trazado_116167" data-name="Trazado 116167" d="M1277.521,2399.3V2436.3a1.293,1.293,0,1,1-2.585,0V2399.3a1.293,1.293,0,1,1,2.585,0Z" transform="translate(-1228.082 -2397.998)" fill="#5038a1"/>
        <path id="Trazado_116168" data-name="Trazado 116168" d="M1277.521,2458.193v19.62a1.293,1.293,0,1,1-2.585,0v-19.62a1.293,1.293,0,1,1,2.585,0Z" transform="translate(-1228.082 -2407.165)" fill="#5038a1"/>
      </g>
    </g>
  </g>
</svg>
