<svg xmlns="http://www.w3.org/2000/svg" width="120.322" height="120.322" viewBox="0 0 120.322 120.322">
  <g id="Grupo_82465" data-name="Grupo 82465" transform="translate(-1131.226 -1437.955)">
    <g id="Grupo_82462" data-name="Grupo 82462" transform="translate(1131.226 1437.955)">
      <circle id="Elipse_4753" data-name="Elipse 4753" cx="60.161" cy="60.161" r="60.161" fill="#fedc72"/>
      <g id="Grupo_82461" data-name="Grupo 82461" transform="translate(22.993 23.569)">
        <g id="Grupo_82460" data-name="Grupo 82460">
          <path id="Trazado_116098" data-name="Trazado 116098" d="M1312.029,1468.146h-9.01a4.506,4.506,0,0,0-4.506,4.505,4.505,4.505,0,0,1-9.01,0,4.505,4.505,0,0,0-4.5-4.505h-11.263a4.506,4.506,0,0,0-4.506,4.505,4.505,4.505,0,0,1-9.01,0,4.505,4.505,0,0,0-4.5-4.505h-9.01a4.505,4.505,0,0,0-4.5,4.505v51.81a4.5,4.5,0,0,0,4.5,4.5h65.325a4.505,4.505,0,0,0,4.505-4.5v-51.81A4.506,4.506,0,0,0,1312.029,1468.146Zm-50.371,20.475a6.516,6.516,0,1,1-6.516,6.516A6.516,6.516,0,0,1,1261.658,1488.621Zm10.951,25.417a1.561,1.561,0,0,1-1.5,1.615h-18.9a1.56,1.56,0,0,1-1.5-1.615V1512.5a5.131,5.131,0,0,1,4.928-5.312h12.043a5.132,5.132,0,0,1,4.929,5.313Zm30.41-1.4h-20.273a2.816,2.816,0,1,1,0-5.631h20.273a2.816,2.816,0,0,1,0,5.631Zm0-11.263h-20.273a2.816,2.816,0,1,1,0-5.631h20.273a2.816,2.816,0,1,1,0,5.631Z" transform="translate(-1242.199 -1468.146)" fill="#5038a1"/>
          <path id="Trazado_116099" data-name="Trazado 116099" d="M1310.054,1550.956h-63.073a3.379,3.379,0,0,0,0,6.757h63.073a3.379,3.379,0,1,0,0-6.757Z" transform="translate(-1242.477 -1484.531)" fill="#5038a1"/>
        </g>
      </g>
    </g>
  </g>
</svg>
