<svg id="Grupo_82464" data-name="Grupo 82464" xmlns="http://www.w3.org/2000/svg" width="120.322" height="120.322" viewBox="0 0 120.322 120.322">
  <circle id="Elipse_4752" data-name="Elipse 4752" cx="60.161" cy="60.161" r="60.161" fill="#fedc72"/>
  <g id="Grupo_82458" data-name="Grupo 82458" transform="translate(33.17 22.402)">
    <g id="Grupo_82457" data-name="Grupo 82457">
      <path id="Trazado_116096" data-name="Trazado 116096" d="M890.868,1484.468H840.885a2,2,0,0,0-2,2v53.981a2,2,0,0,0,2,2h49.983a2,2,0,0,0,2-2v-53.981A2,2,0,0,0,890.868,1484.468Zm-41.486,9.676h12.5a2.5,2.5,0,1,1,0,5h-12.5a2.5,2.5,0,0,1,0-5Zm0,11.817h12.5a2.5,2.5,0,1,1,0,5h-12.5a2.5,2.5,0,0,1,0-5Zm30.49,28.99h-30.49a2.5,2.5,0,0,1,0-5h30.49a2.5,2.5,0,1,1,0,5Zm0-12h-30.49a2.5,2.5,0,0,1,0-5h30.49a2.5,2.5,0,1,1,0,5Zm3-15.314a2,2,0,0,1-2,2h-8a2,2,0,0,1-2-2v-11a2,2,0,0,1,2-2h8a2,2,0,0,1,2,2Z" transform="translate(-838.886 -1466.931)" fill="#5038a1"/>
      <path id="Trazado_116097" data-name="Trazado 116097" d="M884.464,1462.647l-44.311,9.2a1.648,1.648,0,0,0,.382,3.252H884.87a2,2,0,0,0,2-2v-8.491A2,2,0,0,0,884.464,1462.647Z" transform="translate(-838.886 -1462.605)" fill="#5038a1"/>
    </g>
  </g>
</svg>
