<svg xmlns="http://www.w3.org/2000/svg" xmlns:xlink="http://www.w3.org/1999/xlink" width="554.336" height="419.392" viewBox="0 0 554.336 419.392">
  <defs>
    <clipPath id="clip-path">
      <path id="Trazado_116251" data-name="Trazado 116251" d="M160.576,3023.336c48.37-47.843,62.355-68.87,82.36-106.935,19.151-36.44,146.108-95.759,256.234-50.37,141.19,58.194,171.067,126.386,181.716,185.994S665.5,3186.107,543.619,3239.813c-57.213,25.211-305.3,59.064-381.735-39.122C113.456,3138.48,122.464,3061.031,160.576,3023.336Z" transform="translate(-128.713 -2859.245)" fill="none"/>
    </clipPath>
    <clipPath id="clip-path-2">
      <path id="Trazado_116253" data-name="Trazado 116253" d="M159.763,3019.325c47.137-46.738,60.765-67.28,80.26-104.466,18.662-35.6,142.382-93.548,249.7-49.206,137.589,56.85,166.7,123.468,177.082,181.7s-15,130.986-133.767,183.452c-55.754,24.629-297.518,57.7-372-38.219C113.845,3131.81,122.624,3056.149,159.763,3019.325Z" transform="translate(-128.713 -2849.618)" fill="none"/>
    </clipPath>
  </defs>
  <g id="Grupo_132541" data-name="Grupo 132541" transform="translate(-214.9 -1513.542)">
    <g id="Grupo_132504" data-name="Grupo 132504" transform="translate(271.1 1565.227)">
      <g id="Grupo_132489" data-name="Grupo 132489">
        <rect id="Rectángulo_43920" data-name="Rectángulo 43920" width="355.132" height="263.667" rx="23.682" transform="translate(0)" fill="#b1ccfc"/>
        <path id="Trazado_116174" data-name="Trazado 116174" d="M548.273,2904.127H219.023c-7.148,0-12.941,6.235-12.941,13.925v9.588H561.214v-9.588C561.214,2910.362,555.42,2904.127,548.273,2904.127Z" transform="translate(-206.082 -2904.127)" fill="#6e92f9"/>
        <g id="Grupo_132488" data-name="Grupo 132488" transform="translate(25.73 7.464)">
          <ellipse id="Elipse_5293" data-name="Elipse 5293" cx="3.989" cy="4.293" rx="3.989" ry="4.293" transform="translate(26.263)" fill="#3838ba"/>
          <ellipse id="Elipse_5294" data-name="Elipse 5294" cx="3.989" cy="4.293" rx="3.989" ry="4.293" transform="translate(13.131)" fill="#3838ba"/>
          <ellipse id="Elipse_5295" data-name="Elipse 5295" cx="3.989" cy="4.293" rx="3.989" ry="4.293" fill="#3838ba"/>
        </g>
      </g>
      <g id="Grupo_132490" data-name="Grupo 132490" transform="translate(290.583 46.249)">
        <rect id="Rectángulo_43921" data-name="Rectángulo 43921" width="30.106" height="4.909" rx="2.454" fill="#3838ba"/>
        <rect id="Rectángulo_43922" data-name="Rectángulo 43922" width="47.592" height="4.909" rx="2.454" transform="translate(0 10.308)" fill="#3838ba"/>
        <rect id="Rectángulo_43923" data-name="Rectángulo 43923" width="47.592" height="4.909" rx="2.454" transform="translate(0 20.616)" fill="#3838ba"/>
      </g>
      <g id="Grupo_132491" data-name="Grupo 132491" transform="translate(201.633 33.486)">
        <rect id="Rectángulo_43924" data-name="Rectángulo 43924" width="84.389" height="55.957" rx="15.443" fill="#6e92f9"/>
        <path id="Trazado_116175" data-name="Trazado 116175" d="M534.622,2994.309l19.78-12.872a2.369,2.369,0,0,0,0-4.046l-19.78-12.871a2.7,2.7,0,0,0-4.225,2.023v25.742A2.7,2.7,0,0,0,534.622,2994.309Z" transform="translate(-496.451 -2954.012)" fill="#cae0ff"/>
      </g>
      <g id="Grupo_132497" data-name="Grupo 132497" transform="translate(9.022 32.239)">
        <g id="Grupo_132496" data-name="Grupo 132496">
          <rect id="Rectángulo_43933" data-name="Rectángulo 43933" width="178.22" height="148.018" rx="17.078" transform="translate(1.247 1.248)" fill="#cae0ff"/>
          <path id="Trazado_116178" data-name="Trazado 116178" d="M388.289,3099.023H229.43a10.941,10.941,0,0,1-10.928-10.928V2959.437a10.94,10.94,0,0,1,10.928-10.927H388.289a10.94,10.94,0,0,1,10.928,10.927v128.658A10.941,10.941,0,0,1,388.289,3099.023ZM229.43,2951a8.442,8.442,0,0,0-8.433,8.432v128.658a8.442,8.442,0,0,0,8.433,8.433H388.289a8.443,8.443,0,0,0,8.433-8.433V2959.437a8.442,8.442,0,0,0-8.433-8.432Z" transform="translate(-218.502 -2948.509)" fill="#6e92f9"/>
          <path id="Trazado_116179" data-name="Trazado 116179" d="M389.107,2950.226H229.551c-5.154,0-9.332,4.5-9.332,10.042v3.962h178.22v-3.962C398.439,2954.722,394.261,2950.226,389.107,2950.226Z" transform="translate(-218.972 -2948.979)" fill="#6e92f9"/>
        </g>
      </g>
      <g id="Grupo_132499" data-name="Grupo 132499" transform="translate(10.269 189.917)">
        <rect id="Rectángulo_43934" data-name="Rectángulo 43934" width="178.22" height="11.414" rx="5.707" fill="#6e92f9"/>
        <g id="Grupo_132498" data-name="Grupo 132498" transform="translate(6.247 4.027)">
          <path id="Trazado_116180" data-name="Trazado 116180" d="M391.966,3174.145h0l-161.816-.338a1.341,1.341,0,0,1,0-2.683h0l161.816.339a1.341,1.341,0,0,1,0,2.682Z" transform="translate(-228.82 -3171.124)" fill="#e1efff"/>
        </g>
        <path id="Trazado_116181" data-name="Trazado 116181" d="M230.147,3173.807l27.479.263v-2.683l-27.473-.263h0a1.341,1.341,0,0,0,0,2.683Z" transform="translate(-222.573 -3167.097)" fill="#b1ccfc"/>
        <path id="Trazado_116182" data-name="Trazado 116182" d="M271.208,3172.34a2.885,2.885,0,1,1-2.885-2.91A2.9,2.9,0,0,1,271.208,3172.34Z" transform="translate(-232.592 -3166.634)" fill="#3838ba"/>
      </g>
      <g id="Grupo_132503" data-name="Grupo 132503" transform="translate(12.986 213.785)">
        <g id="Grupo_132500" data-name="Grupo 132500" transform="translate(34.103)">
          <path id="Trazado_116183" data-name="Trazado 116183" d="M272.8,3212.007l8.874-5.775a1.062,1.062,0,0,0,0-1.814l-8.874-5.775a1.211,1.211,0,0,0-1.9.908V3211.1A1.21,1.21,0,0,0,272.8,3212.007Z" transform="translate(-270.909 -3198.438)" fill="#6e92f9"/>
          <rect id="Rectángulo_43935" data-name="Rectángulo 43935" width="2.285" height="13.773" rx="1.143" transform="translate(11.896)" fill="#6e92f9"/>
        </g>
        <g id="Grupo_132501" data-name="Grupo 132501" transform="translate(0)">
          <path id="Trazado_116184" data-name="Trazado 116184" d="M237.339,3212.007l-8.874-5.775a1.062,1.062,0,0,1,0-1.814l8.874-5.775a1.211,1.211,0,0,1,1.9.908V3211.1A1.211,1.211,0,0,1,237.339,3212.007Z" transform="translate(-225.053 -3198.438)" fill="#6e92f9"/>
          <rect id="Rectángulo_43936" data-name="Rectángulo 43936" width="2.285" height="13.773" rx="1.143" transform="translate(2.285 13.773) rotate(180)" fill="#6e92f9"/>
        </g>
        <g id="Grupo_132502" data-name="Grupo 132502" transform="translate(20.716 0)">
          <rect id="Rectángulo_43937" data-name="Rectángulo 43937" width="2.285" height="13.773" rx="1.143" transform="translate(6.853 13.773) rotate(180)" fill="#6e92f9"/>
          <rect id="Rectángulo_43938" data-name="Rectángulo 43938" width="2.285" height="13.773" rx="1.143" transform="translate(2.285 13.773) rotate(180)" fill="#6e92f9"/>
        </g>
        <path id="Trazado_116185" data-name="Trazado 116185" d="M386.132,3212.178H368.471a1.1,1.1,0,0,1-1.06-1.141v-11.382a1.1,1.1,0,0,1,1.06-1.141h17.661a1.1,1.1,0,0,1,1.061,1.141v11.382A1.1,1.1,0,0,1,386.132,3212.178Zm-16.6-2.282h15.54v-9.1h-15.54Z" transform="translate(-263.21 -3198.459)" fill="#6e92f9"/>
      </g>
    </g>
    <g id="Grupo_132516" data-name="Grupo 132516" transform="translate(214.9 1523.169)">
      <g id="Grupo_132515" data-name="Grupo 132515" clip-path="url(#clip-path)">
        <path id="Trazado_139920" data-name="Trazado 139920" d="M910.587,358.57a4.747,4.747,0,0,0-.389.364,3.4,3.4,0,0,0,.965,5.569,6.248,6.248,0,0,0,7.216-.975,116.866,116.866,0,0,1,20.747-16.916,138.679,138.679,0,0,1,25-12.8l1.661-.656,1.683-.608c1.119-.413,2.253-.791,3.387-1.166q3.4-1.141,6.865-2.069c1.15-.323,2.319-.59,3.474-.887,1.162-.279,2.33-.529,3.491-.794,1.174-.221,2.333-.478,3.513-.661s2.344-.4,3.52-.555,2.342-.329,3.512-.445c.586-.06,1.169-.132,1.754-.18l1.75-.136c1.166-.11,2.325-.127,3.481-.2,1.154-.029,2.3-.058,3.447-.057,1.139.022,2.279.012,3.4.083.56.032,1.123.047,1.68.084l1.655.135c.277.024.551.039.829.071l.839.1,1.672.208c1.108.179,2.216.332,3.312.541a108.334,108.334,0,0,1,25.137,8.078c8.054,3.607,15.855,7.9,23.946,12.378,4.051,2.233,8.157,4.533,12.446,6.81,2.131,1.146,4.334,2.268,6.563,3.39,1.134.554,2.251,1.116,3.411,1.662l3.377,1.593c8.653,4.063,17.659,8.154,27.324,11.882a209.643,209.643,0,0,0,31.478,9.573,148.515,148.515,0,0,0,18.125,2.754,128.476,128.476,0,0,0,19.894.233c3.433-.233,6.911-.619,10.392-1.165,1.742-.269,3.483-.591,5.221-.941.868-.179,1.71-.351,2.6-.563s1.79-.421,2.673-.655a104.452,104.452,0,0,0,20.255-7.527c1.586-.789,3.15-1.6,4.674-2.467.81-.451,1.41-.812,2.086-1.2l1.986-1.158c1.322-.778,2.623-1.6,3.917-2.438s2.56-1.719,3.839-2.587a109.859,109.859,0,0,0,14.238-11.852,92.691,92.691,0,0,0,11.676-13.984,85.432,85.432,0,0,0,14.815-47.1,109.044,109.044,0,0,0-3.731-30,131.325,131.325,0,0,0-4.638-14.253c-.922-2.354-1.92-4.7-3.026-7.075-.557-1.19-1.133-2.388-1.769-3.625-.319-.62-.646-1.244-1.012-1.906l-.582-1.029-.341-.574-.214-.342-.335-.5c-11.793-15.872-38.329-20.789-59.26-10.983s-28.339,30.625-16.545,46.5l-.1-.184c-.022-.045,0-.029,0-.029h.018c.016-.006.07.04.107.063a3.765,3.765,0,0,1,.3.251c.218.193.457.434.7.676.484.493.989,1.038,1.484,1.6.994,1.138,1.986,2.349,2.939,3.589a78.413,78.413,0,0,1,5.27,7.734,66.688,66.688,0,0,1,7.1,16,41.717,41.717,0,0,1,1.559,15.307,30.514,30.514,0,0,1-1.542,7.186,33.632,33.632,0,0,1-3.316,6.969,43.1,43.1,0,0,1-5.251,6.828c-.549.55-1.069,1.119-1.637,1.675-.59.545-1.147,1.113-1.76,1.658l-1.787,1.582c-.457.423-.947.83-1.437,1.231a33.826,33.826,0,0,1-6.669,4.143c-.3.149-.612.281-.92.424l-1.025.424c-.7.277-1.4.547-2.133.791-1.455.5-2.979.94-4.579,1.322a78.393,78.393,0,0,1-22.349,1.569q-3.112-.157-6.306-.513t-6.458-.852c-4.347-.662-8.767-1.51-13.229-2.494-8.929-1.964-17.993-4.475-27.265-7.183l-3.329-.976c-1.073-.313-2.152-.659-3.238-.989-2.17-.693-4.35-1.4-6.553-2.163-4.4-1.5-8.872-3.126-13.412-4.8-9.09-3.325-18.536-6.8-28.65-9.625a143.162,143.162,0,0,0-32.136-5.5c-1.395-.074-2.805-.086-4.2-.12-1.415.012-2.792,0-4.224.041l-2.133.057c-.709.03-1.413.08-2.119.12-1.411.066-2.807.218-4.2.345A122.084,122.084,0,0,0,989,316.577a163.623,163.623,0,0,0-29.415,10.444,204.39,204.39,0,0,0-25.942,14.421,252.515,252.515,0,0,0-23.031,17.108Z" transform="translate(-743.041 -54.008)" fill="#fdb74d"/>
        <g id="Grupo_132514" data-name="Grupo 132514" transform="translate(5.238 154.559)">
          <g id="Grupo_132513" data-name="Grupo 132513">
            <path id="Trazado_116186" data-name="Trazado 116186" d="M333.27,3247.651s-27.221,45.8-30.678,51.634-15.555,24.2-2.376,33.919,39.752-11.667,57.9-44.073S333.27,3247.651,333.27,3247.651Z" transform="translate(-179.232 -3113.083)" fill="#f6ad83"/>
            <g id="Grupo_132505" data-name="Grupo 132505" transform="translate(196.142 6.671)">
              <path id="Trazado_116187" data-name="Trazado 116187" d="M421.876,3120.3c2.068,5.532.376,11.276-3.779,12.829s-9.2-1.672-11.268-7.206-.376-11.276,3.779-12.828S419.808,3114.764,421.876,3120.3Z" transform="translate(-405.947 -3082.831)" fill="#f6ad83"/>
              <path id="Trazado_116188" data-name="Trazado 116188" d="M493.379,3120.3c-2.068,5.532-.376,11.276,3.779,12.829s9.2-1.672,11.268-7.206.376-11.276-3.779-12.828S495.447,3114.764,493.379,3120.3Z" transform="translate(-429.628 -3082.831)" fill="#f6ad83"/>
              <path id="Trazado_116189" data-name="Trazado 116189" d="M438.072,3147.472s2.16,31.11,0,35.215,41.048,0,41.048,0-4.1-19.228-4.753-33.054S438.072,3147.472,438.072,3147.472Z" transform="translate(-414.716 -3091.085)" fill="#f6ad83"/>
              <path id="Trazado_116190" data-name="Trazado 116190" d="M476.1,3165.619c-.783-5.257-1.472-10.976-1.706-15.987-.649-13.827-36.3-2.16-36.3-2.16s.573,8.248.834,16.81a35.933,35.933,0,0,0,37.168,1.337Z" transform="translate(-414.745 -3091.085)" fill="#f4a076"/>
              <ellipse id="Elipse_5296" data-name="Elipse 5296" cx="34.135" cy="37.591" rx="34.135" ry="37.591" transform="translate(6.938)" fill="#f6ad83"/>
            </g>
            <path id="Trazado_116191" data-name="Trazado 116191" d="M417.534,3063.448s4.812,1.512,13.1,1.08,29.244-7.561,41.127,6.914,16.124,64.164-20.563,65.677-34.222-36.779-34.7-43.774-7.05-13.094-5.014-15.422a7.38,7.38,0,0,1,4.276-2.006S405.651,3067.337,417.534,3063.448Z" transform="translate(-211.214 -3062.395)" fill="#003177"/>
            <path id="Trazado_116192" data-name="Trazado 116192" d="M563.806,3256.578s31.558,60.68,17.948,71.481-23.765,9.291-49.906-27.22S561.569,3252.11,563.806,3256.578Z" transform="translate(-242.352 -3115.285)" fill="#f6ad83"/>
            <path id="Trazado_116193" data-name="Trazado 116193" d="M310.327,3345.069c14.171,1.792,36.383-18.078,52.2-46.319,3.423-6.112,4.669-11.394,4.44-15.942C359.676,3296.144,336.455,3335.313,310.327,3345.069Z" transform="translate(-183.643 -3122.703)" fill="#f4a076"/>
            <path id="Trazado_116194" data-name="Trazado 116194" d="M526.456,3301.142a39.813,39.813,0,0,0,5.818,11.139c19.041,26.595,29.6,34.617,39.191,32.84-.648-.351-1.323-.71-2.047-1.083-28.533-14.69-31.742-44.936-31.742-44.936S532.291,3294.428,526.456,3301.142Z" transform="translate(-242.778 -3126.728)" fill="#f4a076"/>
            <rect id="Rectángulo_43939" data-name="Rectángulo 43939" width="484.799" height="23.526" rx="11.763" transform="translate(0 214.503)" fill="#8cb6f4"/>
            <path id="Trazado_116195" data-name="Trazado 116195" d="M137.964,3384.709a3.985,3.985,0,0,1-.983-.138c1.128,3.864,3.386,6.506,5.991,6.506h471.28c2.575,0,4.813-2.577,5.954-6.368Z" transform="translate(-136.213 -3150.546)" fill="#6e92f9"/>
            <path id="Trazado_116196" data-name="Trazado 116196" d="M479.44,3198.461c-4.2-2.8-15.551-9.523-32.968-10.465v0c0,3.825-8.726,6.925-19.491,6.925-10.392,0-18.882-2.89-19.457-6.532-19.691,1.771-29.051,3.1-39.715,10.068C352.043,3208.769,323.8,3260.7,323.8,3260.7c12.688,1.52,25.989,10.594,33.324,17.553l3.9,55.152,122.02-2.314,1.557-55.809c7.129-16.519,29.366-26.581,29.366-26.581C507.165,3228.613,491.224,3206.315,479.44,3198.461Z" transform="translate(-187.33 -3096.761)" fill="#9952bd"/>
            <path id="Trazado_116197" data-name="Trazado 116197" d="M364.593,3302.261s-18.472-18.792-39.245-18.459c-.987,1.966-1.544,3.113-1.544,3.113,12.688,1.521,25.989,10.594,33.324,17.554l3.3,72.458,4.891.639Z" transform="translate(-187.33 -3122.974)" fill="#543e8b"/>
            <path id="Trazado_116198" data-name="Trazado 116198" d="M542.308,3296.583c7.129-16.52,29.366-26.581,29.366-26.581-.456-1.347-.985-2.74-1.571-4.167-8.782,4.157-24.123,13.1-33.845,28.271l-1.556,74.934,6.37-3.4Z" transform="translate(-245.034 -3118.059)" fill="#543e8b"/>
            <g id="Grupo_132507" data-name="Grupo 132507" transform="translate(40.059 129.853)">
              <path id="Trazado_116199" data-name="Trazado 116199" d="M212.3,3260.48s-7.04-20.58-13-15.705-.657,11.632,3.192,14.48S213.921,3265.354,212.3,3260.48Z" transform="translate(-192.59 -3241.945)" fill="#a9ca5a"/>
              <g id="Grupo_132506" data-name="Grupo 132506" transform="translate(30.715 11.542)">
                <path id="Trazado_116200" data-name="Trazado 116200" d="M234.492,3273.684c1.152-2.015,4.671-14.532,9.862-16.09,3.157-.948,5.912-.69,7.328,1.021.912,1.1,1.268,2.8.817,5.177C249.546,3279.367,228.264,3284.584,234.492,3273.684Z" transform="translate(-233.357 -3257.05)" fill="#a9ca5a"/>
                <path id="Trazado_116201" data-name="Trazado 116201" d="M234.492,3275.172c.83-1.452,2.889-8.355,5.916-12.683q.142,1.642.188,3.479a71.3,71.3,0,0,1-.937,14.331C234.945,3281.963,231.462,3280.476,234.492,3275.172Z" transform="translate(-233.357 -3258.538)" fill="#14966a"/>
              </g>
              <path id="Trazado_116202" data-name="Trazado 116202" d="M209.333,3263.086a46.986,46.986,0,0,1,.888-12.659,63.662,63.662,0,0,1,5.531,11.8C216.971,3265.885,213.012,3264.973,209.333,3263.086Z" transform="translate(-196.047 -3243.696)" fill="#14966a"/>
              <path id="Trazado_116203" data-name="Trazado 116203" d="M224.8,3287.564c1.026-.324,7.121-6.065,6.637-26.711s-10.774-22.271-15.106-17.4-3.756,18.1-2.961,23.133S213.773,3291.057,224.8,3287.564Z" transform="translate(-197.021 -3241.161)" fill="#a9ca5a"/>
              <path id="Trazado_116204" data-name="Trazado 116204" d="M214.744,3278.12c-.908-4.528-1.031-9.363-1.374-11.528-.795-5.028-1.371-18.259,2.961-23.133a6.669,6.669,0,0,1,4.65-2.288c-1.678,3.221-3.476,8.839-3.669,18.276-.2,10.048,3.612,21.384,3.612,21.384Z" transform="translate(-197.021 -3241.164)" fill="#14966a" opacity="0.5"/>
              <path id="Trazado_116205" data-name="Trazado 116205" d="M233.7,3249.372c1.471,3.106,2.487,7.571,2.632,13.728.23,9.834-1.031,16.284-2.528,20.38l-3.1-1.463s1.108-1.108,2.5-15.864A112.009,112.009,0,0,0,233.7,3249.372Z" transform="translate(-201.917 -3243.407)" fill="#14966a" opacity="0.5"/>
              <path id="Trazado_116206" data-name="Trazado 116206" d="M210.158,3324.461h14.419a9.43,9.43,0,0,0,9.353-8.228l2.173-16.907h-37.47l2.173,16.907A9.431,9.431,0,0,0,210.158,3324.461Z" transform="translate(-193.141 -3257.076)" fill="#9952bd"/>
              <path id="Trazado_116207" data-name="Trazado 116207" d="M202.6,3299.327l1.824,14.189a9.429,9.429,0,0,0,9.352,8.228H228.2a9.4,9.4,0,0,0,3.684-.758,9.42,9.42,0,0,1-7.307,3.475H210.158a9.431,9.431,0,0,1-9.353-8.228l-2.173-16.907Z" transform="translate(-193.141 -3257.076)" fill="#543e8b"/>
              <rect id="Rectángulo_43940" data-name="Rectángulo 43940" width="47.807" height="8.399" rx="4.025" transform="translate(47.807 43.867) rotate(180)" fill="#e5c3ff"/>
              <path id="Trazado_116208" data-name="Trazado 116208" d="M193.354,3289.989h.305v3.529a2.282,2.282,0,0,0,2.282,2.282h42.938v.3a2.283,2.283,0,0,1-2.282,2.283H193.354a2.283,2.283,0,0,1-2.282-2.283v-3.834A2.282,2.282,0,0,1,193.354,3289.989Z" transform="translate(-191.072 -3254.521)" fill="#9952bd" opacity="0.5"/>
              <path id="Trazado_116209" data-name="Trazado 116209" d="M255.777,3261.372l-1.9.326a.418.418,0,0,0-.291.511.427.427,0,0,0,.511.291l1.9-.327a.417.417,0,0,0,.291-.512.427.427,0,0,0-.511-.289Z" transform="translate(-208.174 -3246.688)" fill="#14966a"/>
              <path id="Trazado_116210" data-name="Trazado 116210" d="M249.855,3259.495c0,.124,0,.247-.015.37,0,.038-.007.075-.011.113,0,.022,0,.068-.009.085.008-.059.01-.072.005-.04l-.006.042c-.005.034-.01.067-.016.1a4.6,4.6,0,0,1-.193.729.418.418,0,0,0,.29.511.427.427,0,0,0,.512-.29,4.857,4.857,0,0,0,.273-1.619.416.416,0,1,0-.831,0Z" transform="translate(-207.084 -3246.063)" fill="#14966a"/>
              <path id="Trazado_116211" data-name="Trazado 116211" d="M227.468,3243.722c0,.124,0,.247-.014.371,0,.038-.007.075-.011.113a.246.246,0,0,1-.01.085c.009-.059.01-.072.006-.04l-.007.042c-.005.032-.01.065-.016.1a4.519,4.519,0,0,1-.193.729.418.418,0,0,0,.291.511.426.426,0,0,0,.511-.29,4.875,4.875,0,0,0,.274-1.62.416.416,0,0,0-.832,0Z" transform="translate(-200.959 -3241.748)" fill="#14966a"/>
              <path id="Trazado_116212" data-name="Trazado 116212" d="M252.44,3268.6h-1.384a.416.416,0,0,0,0,.832h1.384a.416.416,0,0,0,0-.832Z" transform="translate(-207.37 -3248.67)" fill="#14966a"/>
              <path id="Trazado_116213" data-name="Trazado 116213" d="M216.833,3248.945l1.9.328a.428.428,0,0,0,.512-.291.421.421,0,0,0-.291-.511l-1.9-.328a.426.426,0,0,0-.511.291.42.42,0,0,0,.29.511Z" transform="translate(-198.038 -3243.069)" fill="#14966a"/>
              <path id="Trazado_116214" data-name="Trazado 116214" d="M222.759,3246.266a4.882,4.882,0,0,0,.274,1.62.416.416,0,0,0,.8-.222,4.518,4.518,0,0,1-.192-.729c-.006-.033-.011-.066-.016-.1s-.007-.119,0,0c0-.062-.015-.124-.02-.185-.011-.128-.015-.256-.015-.384a.416.416,0,0,0-.832,0Z" transform="translate(-199.742 -3242.444)" fill="#14966a"/>
              <path id="Trazado_116215" data-name="Trazado 116215" d="M220.583,3256.208h1.384a.416.416,0,1,0,0-.832h-1.384a.416.416,0,1,0,0,.832Z" transform="translate(-199.033 -3245.051)" fill="#14966a"/>
              <path id="Trazado_116216" data-name="Trazado 116216" d="M245.964,3272.832v1.132a.415.415,0,1,0,.831,0v-1.132a.415.415,0,1,0-.831,0Z" transform="translate(-206.091 -3249.713)" fill="#14966a"/>
              <path id="Trazado_116217" data-name="Trazado 116217" d="M249.387,3278.781H248a.416.416,0,1,0,0,.832h1.384a.416.416,0,0,0,0-.832Z" transform="translate(-206.535 -3251.454)" fill="#14966a"/>
              <path id="Trazado_116218" data-name="Trazado 116218" d="M242.911,3283.007v1.133a.416.416,0,0,0,.832,0v-1.133a.416.416,0,0,0-.832,0Z" transform="translate(-205.256 -3252.496)" fill="#14966a"/>
              <path id="Trazado_116219" data-name="Trazado 116219" d="M233.314,3253.252l-1.029.589a.431.431,0,0,0-.191.248.416.416,0,0,0,.611.47l1.029-.589a.43.43,0,0,0,.191-.248.416.416,0,0,0-.611-.47Z" transform="translate(-202.292 -3244.454)" fill="#14966a"/>
              <path id="Trazado_116220" data-name="Trazado 116220" d="M228.614,3265.272l-.882.753a.416.416,0,0,0,.293.71.465.465,0,0,0,.294-.122l.882-.754a.419.419,0,0,0,.122-.294.424.424,0,0,0-.122-.294.417.417,0,0,0-.294-.122.461.461,0,0,0-.293.122Z" transform="translate(-201.069 -3247.725)" fill="#14966a"/>
              <path id="Trazado_116221" data-name="Trazado 116221" d="M220.541,3268.548l.128.25a.319.319,0,0,0,.107.116.429.429,0,0,0,.462.032l.084-.065a.409.409,0,0,0,.107-.183l.015-.111a.409.409,0,0,0-.057-.21l-.128-.25a.315.315,0,0,0-.107-.117.307.307,0,0,0-.142-.074.3.3,0,0,0-.166-.007.306.306,0,0,0-.155.049l-.084.065a.412.412,0,0,0-.107.184l-.015.111a.413.413,0,0,0,.057.21Z" transform="translate(-199.12 -3248.482)" fill="#14966a"/>
              <path id="Trazado_116222" data-name="Trazado 116222" d="M234.324,3277.783l-2.266.751a.416.416,0,1,0,.221.8l2.266-.751a.416.416,0,0,0-.221-.8Z" transform="translate(-202.202 -3251.176)" fill="#14966a"/>
              <path id="Trazado_116223" data-name="Trazado 116223" d="M216.121,3277.976l.88.88a.429.429,0,0,0,.294.122.416.416,0,0,0,.416-.416.435.435,0,0,0-.122-.293l-.881-.881a.416.416,0,0,0-.71.294.434.434,0,0,0,.122.295Z" transform="translate(-197.892 -3251.04)" fill="#14966a"/>
              <path id="Trazado_116224" data-name="Trazado 116224" d="M203.182,3248.236v.756a.427.427,0,0,0,.122.293.415.415,0,0,0,.588,0,.43.43,0,0,0,.122-.293v-.756a.428.428,0,0,0-.122-.293.414.414,0,0,0-.588,0,.43.43,0,0,0-.122.293Z" transform="translate(-194.385 -3242.982)" fill="#14966a"/>
              <path id="Trazado_116225" data-name="Trazado 116225" d="M201.886,3253.389l-.018.007.1-.042a1.224,1.224,0,0,1-.315.085l.11-.014a1.435,1.435,0,0,1-.327,0l.11.014a1.393,1.393,0,0,1-.334-.09l.1.042a1.266,1.266,0,0,1-.265-.155.418.418,0,0,0-.32-.042.429.429,0,0,0-.249.191.419.419,0,0,0-.041.32.5.5,0,0,0,.191.249,1.641,1.641,0,0,0,.819.3,1.674,1.674,0,0,0,.861-.151.415.415,0,0,0,.191-.248.43.43,0,0,0-.042-.321.418.418,0,0,0-.248-.191.488.488,0,0,0-.32.042Z" transform="translate(-193.629 -3244.449)" fill="#14966a"/>
              <path id="Trazado_116226" data-name="Trazado 116226" d="M207.3,3257.2a1.542,1.542,0,0,0-.228.457,1.2,1.2,0,0,0-.047.2,1.851,1.851,0,0,0-.026.31.415.415,0,0,0,.415.416.423.423,0,0,0,.294-.122.428.428,0,0,0,.121-.294,1.317,1.317,0,0,1,.012-.193l-.015.111a1.272,1.272,0,0,1,.086-.309l-.042.1a1.251,1.251,0,0,1,.148-.256.307.307,0,0,0,.049-.154.314.314,0,0,0-.007-.166.423.423,0,0,0-.191-.249.416.416,0,0,0-.32-.042l-.1.042a.421.421,0,0,0-.149.149Z" transform="translate(-195.429 -3245.493)" fill="#14966a"/>
            </g>
            <g id="Grupo_132511" data-name="Grupo 132511" transform="translate(347.484 172.707)">
              <g id="Grupo_132508" data-name="Grupo 132508" transform="translate(12.989)">
                <path id="Trazado_116227" data-name="Trazado 116227" d="M636.841,3309.27v-.891a6.9,6.9,0,0,0-3.893-6.068c-.492-.256-.313-.808.289-.874a8.445,8.445,0,0,1,.922-.049H735.342c4.27,0,7.73,3.13,7.73,6.991v.891c0,3.861-3.461,6.991-7.73,6.991H634.159a8.568,8.568,0,0,1-.922-.05c-.6-.065-.781-.618-.289-.873A6.9,6.9,0,0,0,636.841,3309.27Z" transform="translate(-632.31 -3300.494)" fill="#e0eaff"/>
                <path id="Trazado_116228" data-name="Trazado 116228" d="M633.236,3301.438a8.445,8.445,0,0,1,.922-.049H735.342c4.27,0,7.73,3.13,7.73,6.991v.891c0,3.76-3.283,6.826-7.4,6.982-8.1-15.319-22.087-9.954-99.989-11.546a7.469,7.469,0,0,0-2.736-2.4C632.455,3302.055,632.635,3301.5,633.236,3301.438Z" transform="translate(-632.31 -3300.494)" fill="#b1ccfc"/>
                <path id="Trazado_116229" data-name="Trazado 116229" d="M658.388,3305.351h90.1a.187.187,0,0,1,.147.071c.081.1.158.208.233.315a.185.185,0,0,1-.151.291h-90.33a.185.185,0,0,1-.184-.184v-.309A.184.184,0,0,1,658.388,3305.351Z" transform="translate(-639.298 -3301.578)" fill="#8cb6f4"/>
                <path id="Trazado_116230" data-name="Trazado 116230" d="M649.422,3310.708h98l.19.19v.3a.183.183,0,0,1-.184.183h-98a.183.183,0,0,1-.184-.183v-.309A.184.184,0,0,1,649.422,3310.708Z" transform="translate(-636.845 -3303.044)" fill="#8cb6f4"/>
                <path id="Trazado_116231" data-name="Trazado 116231" d="M646.33,3316.064h99.494a.185.185,0,0,1,.161.274q-.086.159-.181.316a.186.186,0,0,1-.158.088H646.33a.184.184,0,0,1-.184-.184v-.31A.184.184,0,0,1,646.33,3316.064Z" transform="translate(-635.999 -3304.509)" fill="#8cb6f4"/>
                <path id="Trazado_116232" data-name="Trazado 116232" d="M634.043,3316.817H734.848c4.974,0,9.02-3.737,9.02-8.33s-4.047-8.33-9.02-8.33H634.043a9.257,9.257,0,0,0-1.177.076.789.789,0,0,0,.2,1.565,7.547,7.547,0,0,1,.977-.063H734.848c4.1,0,7.443,3.03,7.443,6.753s-3.339,6.753-7.443,6.753H634.043a7.723,7.723,0,0,1-.977-.062.789.789,0,0,0-.2,1.565A9.346,9.346,0,0,0,634.043,3316.817Z" transform="translate(-632.177 -3300.157)" fill="#9952bd"/>
              </g>
              <g id="Grupo_132509" data-name="Grupo 132509" transform="translate(0 16.871)">
                <path id="Trazado_116233" data-name="Trazado 116233" d="M721.954,3336.957v-1.379c0-4.019,1.574-7.524,3.91-9.388a.773.773,0,0,0-.29-1.351,5.612,5.612,0,0,0-.926-.077H623.006c-4.289,0-7.765,4.842-7.765,10.816v1.379c0,5.974,3.477,10.817,7.765,10.817H724.648a5.665,5.665,0,0,0,.926-.077.773.773,0,0,0,.29-1.351C723.528,3344.48,721.954,3340.976,721.954,3336.957Z" transform="translate(-614.555 -3323.76)" fill="#e0eaff"/>
                <path id="Trazado_116234" data-name="Trazado 116234" d="M725.574,3324.839a5.612,5.612,0,0,0-.926-.077H623.006c-4.289,0-7.765,4.842-7.765,10.816v1.379c0,5.819,3.3,10.562,7.432,10.8,8.138-23.7,22.188-15.4,100.442-17.866a9.8,9.8,0,0,1,2.749-3.706A.773.773,0,0,0,725.574,3324.839Z" transform="translate(-614.555 -3323.76)" fill="#b1ccfc"/>
                <path id="Trazado_116235" data-name="Trazado 116235" d="M707.766,3330.894h-90.51a.174.174,0,0,0-.147.109c-.081.159-.16.322-.235.487-.086.19,0,.45.152.45h90.74c.1,0,.185-.127.185-.284v-.478C707.951,3331.021,707.868,3330.894,707.766,3330.894Z" transform="translate(-614.992 -3325.438)" fill="#8cb6f4"/>
                <path id="Trazado_116236" data-name="Trazado 116236" d="M713.871,3339.182H615.431l-.19.293v.469c0,.158.082.285.185.285h98.445c.1,0,.185-.127.185-.285v-.478C714.056,3339.309,713.973,3339.182,713.871,3339.182Z" transform="translate(-614.555 -3327.706)" fill="#8cb6f4"/>
                <path id="Trazado_116237" data-name="Trazado 116237" d="M716.412,3347.47H616.467c-.141,0-.229.232-.163.423.058.165.118.328.182.487a.186.186,0,0,0,.159.137h99.766c.1,0,.185-.127.185-.285v-.478C716.6,3347.6,716.514,3347.47,716.412,3347.47Z" transform="translate(-614.839 -3329.973)" fill="#8cb6f4"/>
                <path id="Trazado_116238" data-name="Trazado 116238" d="M724.372,3348.4H623.11c-4.86,0-8.814-5.61-8.814-12.507s3.954-12.508,8.814-12.508H724.372a5.893,5.893,0,0,1,1.151.113c.3.059.509.479.471.939s-.315.782-.61.725a5.219,5.219,0,0,0-1.012-.1H623.11c-4.259,0-7.725,4.858-7.725,10.83s3.466,10.83,7.725,10.83H724.372a5.246,5.246,0,0,0,1.012-.1c.3-.058.572.265.61.725s-.172.88-.471.939A5.931,5.931,0,0,1,724.372,3348.4Z" transform="translate(-614.296 -3323.383)" fill="#a9ca5a"/>
              </g>
              <path id="Trazado_116239" data-name="Trazado 116239" d="M649.173,3342.837l-4.636-3.6-4.8,3.6v-12.022h9.439Z" transform="translate(-621.256 -3308.545)" fill="#6e92f9"/>
              <path id="Trazado_116240" data-name="Trazado 116240" d="M649.863,3342.336l-4.636-3.6-4.8,3.6v-11.521h9.439Z" transform="translate(-621.445 -3308.545)" fill="#9952bd"/>
              <g id="Grupo_132510" data-name="Grupo 132510" transform="translate(48.417 5.063)">
                <path id="Trazado_116241" data-name="Trazado 116241" d="M681.466,3316.119l3.468-2.693,3.592,2.693v-8.992h-7.06Z" transform="translate(-681.091 -3307.127)" fill="#6e92f9"/>
                <path id="Trazado_116242" data-name="Trazado 116242" d="M680.95,3315.745l3.468-2.693,3.592,2.693v-8.617h-7.06Z" transform="translate(-680.95 -3307.127)" fill="#14966a"/>
              </g>
            </g>
            <g id="Grupo_132512" data-name="Grupo 132512" transform="translate(22.333 197.448)">
              <path id="Trazado_116243" data-name="Trazado 116243" d="M244.569,3344.039v-1a8.713,8.713,0,0,1,2.829-6.793.56.56,0,0,0-.209-.978,4.135,4.135,0,0,0-.67-.056H172.972c-3.1,0-5.619,3.5-5.619,7.827v1c0,4.322,2.516,7.827,5.619,7.827h73.547a4.028,4.028,0,0,0,.67-.056.559.559,0,0,0,.209-.978A8.713,8.713,0,0,1,244.569,3344.039Z" transform="translate(-166.856 -3334.49)" fill="#e0eaff"/>
              <path id="Trazado_116244" data-name="Trazado 116244" d="M247.189,3335.27a4.135,4.135,0,0,0-.67-.056H172.972c-3.1,0-5.619,3.5-5.619,7.827v1c0,4.21,2.387,7.643,5.378,7.818,5.888-17.151,16.055-11.144,72.678-12.927a7.08,7.08,0,0,1,1.99-2.682A.56.56,0,0,0,247.189,3335.27Z" transform="translate(-166.856 -3334.49)" fill="#b1ccfc"/>
              <path id="Trazado_116245" data-name="Trazado 116245" d="M234.3,3339.652H168.811a.125.125,0,0,0-.106.078c-.059.115-.115.233-.169.353-.062.137,0,.325.11.325H234.3c.074,0,.134-.091.134-.206v-.346C234.437,3339.744,234.377,3339.652,234.3,3339.652Z" transform="translate(-167.173 -3335.705)" fill="#8cb6f4"/>
              <path id="Trazado_116246" data-name="Trazado 116246" d="M238.72,3345.649H167.491l-.138.212v.339c0,.114.06.206.134.206H238.72c.074,0,.134-.092.134-.206v-.346C238.854,3345.74,238.794,3345.649,238.72,3345.649Z" transform="translate(-166.856 -3337.345)" fill="#8cb6f4"/>
              <path id="Trazado_116247" data-name="Trazado 116247" d="M240.559,3351.646H168.241c-.1,0-.166.168-.118.306.042.119.086.237.132.353a.136.136,0,0,0,.115.1h72.189c.073,0,.134-.092.134-.206v-.346C240.693,3351.738,240.632,3351.646,240.559,3351.646Z" transform="translate(-167.062 -3338.986)" fill="#8cb6f4"/>
              <path id="Trazado_116248" data-name="Trazado 116248" d="M246.318,3352.317H173.047c-3.516,0-6.378-4.06-6.378-9.05s2.861-9.05,6.378-9.05h73.272a4.265,4.265,0,0,1,.833.082c.216.042.369.346.341.679s-.227.566-.441.524a3.829,3.829,0,0,0-.733-.072H173.047c-3.082,0-5.59,3.516-5.59,7.836s2.507,7.836,5.59,7.836h73.272a3.8,3.8,0,0,0,.733-.073c.214-.042.413.192.441.524s-.124.637-.341.68A4.267,4.267,0,0,1,246.318,3352.317Z" transform="translate(-166.669 -3334.217)" fill="#a9ca5a"/>
            </g>
          </g>
          <path id="Trazado_116249" data-name="Trazado 116249" d="M494.576,3376.3H376.834v-92.546a18.982,18.982,0,0,1,14.385-18.417h0a183.74,183.74,0,0,1,88.972,0h0a18.982,18.982,0,0,1,14.385,18.417Z" transform="translate(-201.84 -3116.426)" fill="#3838ba"/>
          <path id="Trazado_116250" data-name="Trazado 116250" d="M487.907,3272.86a18.965,18.965,0,0,1,.612,4.787v82.089a10.457,10.457,0,0,1-10.457,10.457H376.834v9.66H494.576v-92.546A18.972,18.972,0,0,0,487.907,3272.86Z" transform="translate(-201.84 -3119.98)" fill="#003177"/>
        </g>
      </g>
    </g>
    <g id="Grupo_132536" data-name="Grupo 132536" transform="translate(214.9 1525.631)">
      <g id="Grupo_132535" data-name="Grupo 132535">
        <g id="Grupo_132534" data-name="Grupo 132534" clip-path="url(#clip-path-2)">
          <g id="Grupo_132533" data-name="Grupo 132533" transform="translate(6.438 222.977)">
            <g id="Grupo_132528" data-name="Grupo 132528" transform="translate(0 9.536)">
              <path id="Trazado_116257" data-name="Trazado 116257" d="M170.731,3199.043h0a18.385,18.385,0,1,0-29.887-.492h0l.013.013a18.493,18.493,0,0,0,2.569,2.969,25.018,25.018,0,0,1,4.755,12.034h15.8a35.333,35.333,0,0,1,6.346-13.983l.354-.469.026-.036Z" transform="translate(-137.577 -3169.712)" fill="#b1ccfc"/>
              <path id="Trazado_116258" data-name="Trazado 116258" d="M167.292,3232.84H151.53a1.342,1.342,0,0,1-1.342-1.343h0a1.342,1.342,0,0,1,1.342-1.342h15.762a1.342,1.342,0,0,1,1.342,1.342h0A1.342,1.342,0,0,1,167.292,3232.84Z" transform="translate(-141.027 -3186.25)" fill="#8cb6f4"/>
              <rect id="Rectángulo_43944" data-name="Rectángulo 43944" width="15.971" height="2.684" rx="1.342" transform="translate(10.398 46.629)" fill="#8cb6f4"/>
              <rect id="Rectángulo_43945" data-name="Rectángulo 43945" width="14.485" height="2.684" rx="1.342" transform="translate(11.141 49.352)" fill="#8cb6f4"/>
              <path id="Rectángulo_43946" data-name="Rectángulo 43946" d="M0,0H11.515a0,0,0,0,1,0,0V2.616A2.61,2.61,0,0,1,8.9,5.226H2.61A2.61,2.61,0,0,1,0,2.616V0A0,0,0,0,1,0,0Z" transform="translate(12.627 50.342)" fill="#8cb6f4"/>
              <path id="Trazado_116259" data-name="Trazado 116259" d="M181.01,3188.1a18.384,18.384,0,0,0-18.383-18.383c-.231,0-.46.009-.688.018a18.814,18.814,0,0,1,10.915,29.543h0l-.028.037-.028.037-.362.481a36.152,36.152,0,0,0-6.368,13.74h4.572a35.334,35.334,0,0,1,6.346-13.983l.354-.469.026-.036.028-.036h0A18.3,18.3,0,0,0,181.01,3188.1Z" transform="translate(-144.243 -3169.712)" fill="#8cb6f4"/>
            </g>
            <g id="Grupo_132532" data-name="Grupo 132532" transform="translate(27.945)">
              <g id="Grupo_132529" data-name="Grupo 132529">
                <path id="Trazado_116260" data-name="Trazado 116260" d="M177.545,3166.556a.88.88,0,0,1-1.5-.648l.2-8.464a.88.88,0,1,1,1.759.041l-.2,8.465A.877.877,0,0,1,177.545,3166.556Z" transform="translate(-176.049 -3156.584)" fill="#b1ccfc"/>
              </g>
              <g id="Grupo_132530" data-name="Grupo 132530" transform="translate(4.287 3.424)">
                <path id="Trazado_116261" data-name="Trazado 116261" d="M183.447,3170.388a.88.88,0,0,1-1.371-1.08l4.541-7.583a.88.88,0,1,1,1.509.9l-4.541,7.583A.874.874,0,0,1,183.447,3170.388Z" transform="translate(-181.951 -3161.297)" fill="#b1ccfc"/>
              </g>
              <g id="Grupo_132531" data-name="Grupo 132531" transform="translate(9.149 6.921)">
                <path id="Trazado_116262" data-name="Trazado 116262" d="M190.14,3177.026a.88.88,0,0,1-1.253-1.236l8.973-9.405a.88.88,0,1,1,1.273,1.214L190.161,3177Z" transform="translate(-188.644 -3166.112)" fill="#b1ccfc"/>
              </g>
            </g>
          </g>
        </g>
      </g>
    </g>
    <g id="Grupo_132540" data-name="Grupo 132540" transform="translate(-145.722 22.717)">
      <rect id="Rectángulo_43947" data-name="Rectángulo 43947" width="107.283" height="31.808" rx="15.904" transform="translate(640.722 1654.524)" fill="#6e92f9"/>
      <g id="Grupo_132537" data-name="Grupo 132537" transform="translate(667.641 1684.124)">
        <path id="Trazado_116252" data-name="Trazado 116252" d="M768.257,3067.81l-.46.805c-3.625,4.858-.782,10.152-.017,13.346a.827.827,0,0,1-1.2.916l-6.937-3.685a14.508,14.508,0,0,1-7.532-10.58l-.125-.8Z" transform="translate(-751.99 -3067.81)" fill="#6e92f9"/>
      </g>
      <g id="Grupo_132538" data-name="Grupo 132538" transform="translate(667.051 1661.719)">
        <circle id="Elipse_5297" data-name="Elipse 5297" cx="5.94" cy="5.94" r="5.94" transform="translate(0 4.546) rotate(-22.5)" fill="#b1ccfc"/>
        <circle id="Elipse_5298" data-name="Elipse 5298" cx="5.94" cy="5.94" r="5.94" transform="translate(19.552 4.546) rotate(-22.5)" fill="#b1ccfc"/>
        <circle id="Elipse_5299" data-name="Elipse 5299" cx="5.94" cy="5.94" r="5.94" transform="matrix(0.23, -0.973, 0.973, 0.23, 39.719, 12.177)" fill="#b1ccfc"/>
      </g>
    </g>
    <g id="Grupo_132539" data-name="Grupo 132539" transform="translate(531 1734.509)">
      <g id="Grupo_132522" data-name="Grupo 132522">
        <path id="Rectángulo_43942" data-name="Rectángulo 43942" d="M16.722,0h85.339a16.891,16.891,0,0,1,16.891,16.891V45.357a16.891,16.891,0,0,1-16.891,16.891H16.722A16.722,16.722,0,0,1,0,45.526v-28.8A16.722,16.722,0,0,1,16.722,0Z" fill="#7a6cf2"/>
        <path id="Trazado_116254" data-name="Trazado 116254" d="M799.784,3202.041l.628,1.092c4.945,6.584,1.067,13.759.023,18.087a1.126,1.126,0,0,0,1.631,1.241l9.463-4.993a19.671,19.671,0,0,0,10.276-14.34l.171-1.088Z" transform="translate(-717.305 -3142.352)" fill="#7a6cf2"/>
      </g>
      <g id="Grupo_132526" data-name="Grupo 132526" transform="translate(19.535 16.754)">
        <g id="Grupo_132523" data-name="Grupo 132523">
          <rect id="Rectángulo_43943" data-name="Rectángulo 43943" width="68.548" height="5.052" rx="2.526" fill="#a9ca5a"/>
        </g>
        <g id="Grupo_132524" data-name="Grupo 132524" transform="translate(0 10.701)">
          <path id="Trazado_116255" data-name="Trazado 116255" d="M795.717,3162.718h-80.06a2.526,2.526,0,0,1-2.526-2.526h0a2.526,2.526,0,0,1,2.526-2.526h80.06a2.526,2.526,0,0,1,2.526,2.526h0A2.526,2.526,0,0,1,795.717,3162.718Z" transform="translate(-713.131 -3157.665)" fill="#a9ca5a"/>
        </g>
        <g id="Grupo_132525" data-name="Grupo 132525" transform="translate(0 21.402)">
          <path id="Trazado_116256" data-name="Trazado 116256" d="M779.152,3177.449h-63.5a2.526,2.526,0,0,1-2.526-2.526h0a2.526,2.526,0,0,1,2.526-2.526h63.5a2.526,2.526,0,0,1,2.526,2.526h0A2.526,2.526,0,0,1,779.152,3177.449Z" transform="translate(-713.131 -3172.397)" fill="#a9ca5a"/>
        </g>
      </g>
    </g>
  </g>
</svg>
