<svg xmlns="http://www.w3.org/2000/svg" width="84.312" height="62.09" viewBox="0 0 84.312 62.09">
  <g id="Grupo_81527" data-name="Grupo 81527" transform="translate(-412.028 -2717.603)">
    <path id="Trazado_114821" data-name="Trazado 114821" d="M441.784,2754.825h-21.2a3.412,3.412,0,0,1-3.392-3.424v-18.475a3.412,3.412,0,0,1,3.392-3.424h21.2a1.537,1.537,0,0,1,1.531,1.545v22.232A1.538,1.538,0,0,1,441.784,2754.825Zm-21.2-22.232a.332.332,0,0,0-.33.333V2751.4a.332.332,0,0,0,.33.333h19.668v-19.141Z" fill="#4f389f"/>
    <path id="Trazado_114822" data-name="Trazado 114822" d="M418.724,2749.763H414.49a2.477,2.477,0,0,1-2.462-2.485v-10.229a2.477,2.477,0,0,1,2.462-2.485h4.234a1.538,1.538,0,0,1,1.531,1.545v12.108A1.538,1.538,0,0,1,418.724,2749.763Zm-3.634-3.091h2.1v-9.017h-2.1Z" fill="#4f389f"/>
    <path id="Trazado_114823" data-name="Trazado 114823" d="M435.814,2760.122H423.64a2.476,2.476,0,0,1-2.462-2.485v-4.358a1.538,1.538,0,0,1,1.531-1.545h14.035a1.538,1.538,0,0,1,1.531,1.545v4.358A2.476,2.476,0,0,1,435.814,2760.122Zm-11.574-3.091h10.973v-2.206H424.24Z" fill="#4f389f"/>
    <path id="Trazado_114824" data-name="Trazado 114824" d="M435.4,2779.693h-6.6a2.453,2.453,0,0,1-2.4-1.934l-4.255-18.839a1.555,1.555,0,0,1,.295-1.307,1.526,1.526,0,0,1,1.2-.582h12.174a1.538,1.538,0,0,1,1.53,1.5l.516,18.6a2.514,2.514,0,0,1-.695,1.8A2.435,2.435,0,0,1,435.4,2779.693Zm-6.118-3.092h5.5l-.457-16.479h-8.766Z" fill="#4f389f"/>
    <path id="Trazado_114825" data-name="Trazado 114825" d="M455.407,2744.387a1.538,1.538,0,0,1-1.531-1.545v-16.158a1.531,1.531,0,1,1,3.062,0v16.158A1.538,1.538,0,0,1,455.407,2744.387Z" fill="#4f389f"/>
    <path id="Trazado_114826" data-name="Trazado 114826" d="M455.407,2759.188a1.537,1.537,0,0,1-1.531-1.545v-8.93a1.531,1.531,0,1,1,3.062,0v8.93A1.537,1.537,0,0,1,455.407,2759.188Z" fill="#4f389f"/>
    <path id="Trazado_114827" data-name="Trazado 114827" d="M461.092,2761.009a1.5,1.5,0,0,1-.463-.072l-19.308-6.184a1.545,1.545,0,0,1-1.068-1.474v-22.232a1.545,1.545,0,0,1,1.068-1.473l19.308-6.184a1.512,1.512,0,0,1,1.367.226,1.55,1.55,0,0,1,.627,1.247v34.6a1.549,1.549,0,0,1-.627,1.247A1.523,1.523,0,0,1,461.092,2761.009Zm-17.777-8.861,16.246,5.2v-30.376l-16.246,5.2Z" fill="#4f389f"/>
    <path id="Trazado_114828" data-name="Trazado 114828" d="M461.092,2749.733a1.526,1.526,0,0,1-1.03-.4,1.555,1.555,0,0,1-.5-1.145v-12.048a1.537,1.537,0,0,1,1.677-1.539,7.606,7.606,0,0,1,0,15.126A1.461,1.461,0,0,1,461.092,2749.733Zm1.531-11.547v7.955a4.538,4.538,0,0,0,0-7.955Z" fill="#4f389f"/>
    <path id="Trazado_114829" data-name="Trazado 114829" d="M479.649,2732.593a7.5,7.5,0,1,1,7.425-7.5A7.469,7.469,0,0,1,479.649,2732.593Zm0-11.9a4.4,4.4,0,1,0,4.363,4.4A4.388,4.388,0,0,0,479.649,2720.694Z" fill="#4f389f"/>
    <path id="Trazado_114830" data-name="Trazado 114830" d="M481.721,2724.344l-2.383-1.337a.854.854,0,0,0-1.269.754v2.673a.854.854,0,0,0,1.269.754l2.383-1.337A.866.866,0,0,0,481.721,2724.344Z" fill="#4f389f"/>
    <path id="Trazado_114831" data-name="Trazado 114831" d="M479.649,2766.724a7.5,7.5,0,1,1,7.425-7.5A7.469,7.469,0,0,1,479.649,2766.724Zm0-11.9a4.4,4.4,0,1,0,4.363,4.4A4.389,4.389,0,0,0,479.649,2754.825Z" fill="#4f389f"/>
    <path id="Trazado_114832" data-name="Trazado 114832" d="M488.916,2749.658a7.5,7.5,0,1,1,7.424-7.495A7.468,7.468,0,0,1,488.916,2749.658Zm0-11.9a4.4,4.4,0,1,0,4.362,4.4A4.389,4.389,0,0,0,488.916,2737.759Z" fill="#4f389f"/>
    <path id="Trazado_114833" data-name="Trazado 114833" d="M459.812,2779.693H421.43a1.546,1.546,0,0,1,0-3.092h38.382a1.546,1.546,0,0,1,0,3.092Z" fill="#4f389f"/>
    <path id="Trazado_114834" data-name="Trazado 114834" d="M490.523,2741.583l-2.384-1.336a.853.853,0,0,0-1.268.753v2.674a.853.853,0,0,0,1.268.753l2.384-1.336A.867.867,0,0,0,490.523,2741.583Z" fill="#4f389f"/>
    <path id="Trazado_114835" data-name="Trazado 114835" d="M481.256,2758.475l-2.384-1.337a.854.854,0,0,0-1.268.754v2.673a.854.854,0,0,0,1.268.754l2.384-1.337A.866.866,0,0,0,481.256,2758.475Z" fill="#4f389f"/>
  </g>
</svg>
