<svg xmlns="http://www.w3.org/2000/svg" width="610" height="374.806" viewBox="0 0 610 374.806">
  <g id="Ilustracion1-Tema5" transform="translate(-397.162 -2341.492)">
    <g id="Grupo_81808" data-name="Grupo 81808" transform="translate(533.543 2387.658)">
      <rect id="Rectángulo_34024" data-name="Rectángulo 34024" width="430.263" height="280.798" transform="translate(0.979 0.979)" fill="#fff"/>
      <path id="Trazado_115187" data-name="Trazado 115187" d="M996.048,2681H565.786a.978.978,0,0,1-.979-.979v-280.8a.979.979,0,0,1,.979-.979H996.048a.979.979,0,0,1,.979.979v280.8A.979.979,0,0,1,996.048,2681Zm-429.284-1.957H995.07V2400.2H566.764Z" transform="translate(-564.807 -2398.241)"/>
    </g>
    <g id="Grupo_81809" data-name="Grupo 81809" transform="translate(700.916 2640.84)">
      <path id="Trazado_115188" data-name="Trazado 115188" d="M772,2738.073a.979.979,0,0,1-.976-.916,231.87,231.87,0,0,1-.166-26.765.989.989,0,0,1,1.028-.927.977.977,0,0,1,.927,1.027,229.959,229.959,0,0,0,.164,26.539.978.978,0,0,1-.914,1.039Z" transform="translate(-770.549 -2709.464)"/>
    </g>
    <g id="Grupo_81824" data-name="Grupo 81824" transform="translate(824.709 2341.492)">
      <g id="Grupo_81810" data-name="Grupo 81810" transform="translate(22.147 19.824)">
        <path id="Trazado_115189" data-name="Trazado 115189" d="M972.049,2441.061a27.2,27.2,0,0,0-3.21-10.58,18.957,18.957,0,0,0-3.531-4.777c-1.521-1.45-3.381-2.607-5.059-3.925a24.644,24.644,0,0,1-9.49-16.1c-.592-4.8-1.435-10.1-.1-14.793.983-3.449,7.331-13.079,11.112-16.044,6.1-4.783,15.143-7.735,23.358-8.693a41.45,41.45,0,0,1,23.875,4.2c9.078,4.825,15.114,13.4,16.415,22.441s-1.99,18.406-8.441,25.674c-2.673,3.012-5.853,5.677-8.514,8.7a36.713,36.713,0,0,0-7.786,14.011,66.415,66.415,0,0,1-10.345.5l-8.771-.033A57.19,57.19,0,0,1,972.049,2441.061Z" transform="translate(-949.947 -2365.86)" fill="#fff"/>
      </g>
      <g id="Grupo_81811" data-name="Grupo 81811" transform="translate(42.104 95.608)">
        <path id="Trazado_115190" data-name="Trazado 115190" d="M974.918,2459.051a190.133,190.133,0,0,0,31.6-.032c.591,7.557,1.163,12.171-1.221,19.468-1.164,3.563-3.264,7.187-7.076,8.962-4.523,2.105-10.092,1.064-15.065-.092a15.08,15.08,0,0,1-5.441-2.035c-3.121-2.254-3.3-6.229-3.226-9.713C974.625,2468.831,974.762,2465.171,974.918,2459.051Z" transform="translate(-974.478 -2459.018)" fill="#4f389f"/>
      </g>
      <g id="Grupo_81814" data-name="Grupo 81814" transform="translate(61.995 49.604)">
        <g id="Grupo_81812" data-name="Grupo 81812" opacity="0.129">
          <path id="Trazado_115191" data-name="Trazado 115191" d="M1035.335,2402.942a2.117,2.117,0,0,0-2.973.3c-.435.888-.286.456-.485,1.737-.021.167-.046.333-.072.5-.125.512-.535,2.212-.686,2.6q.388-.747-.03.065a32.564,32.564,0,0,1-3.592,6.925,21.416,21.416,0,0,1-3.037,4.327c-2.009,2.344-7.545,6.74-10.73,10.552-.934,1.084-2.991,3.545-3.282,3.97l-.022.024a27.836,27.836,0,0,0-3.3,4.041c-1.769,2.95-1.611,2.9-2.734,5.032-.648,1.426-1.7,3.25-1.613,4.71a2.012,2.012,0,0,0,.068.329,3.4,3.4,0,0,0-.483,3.079c1.005,2.888,1,6.238.746,11.54-.291,5.5.094,3.393-1.588,8.363a11.175,11.175,0,0,1-1.675,3.268,4.044,4.044,0,0,0-.86,1.759,2.607,2.607,0,0,0,1.9,2.97,8.317,8.317,0,0,0,.927-.529c1.31-.876,2.593-1.774,3.932-2.617.668-.421,1.338-.839,2-1.268a27.1,27.1,0,0,0,2.424-6.164c.907-4.508,1.145-5.368,2.052-10.329a24.248,24.248,0,0,0,.019-6.49c-.224-1.362-.24-2.933-1.352-4.018l-.006-.006c-.295.033-.589.068-.884.1q-.765.082-1.535.143c2.25-6.332,4.042-9.84,8.06-14.507,2.633-2.713,5.566-5.206,8.354-7.8a36.477,36.477,0,0,0,6.8-7.793c.992-2,.828-1.808,1.473-3.255.1-.234-.053.068-.145.251.372-.712.712-1.436,1.041-2.164a13.712,13.712,0,0,0,1.06-3.488.291.291,0,0,0,.019-.055C1035.626,2406.7,1036.616,2404.218,1035.335,2402.942Z" transform="translate(-998.93 -2402.467)"/>
        </g>
        <g id="Grupo_81813" data-name="Grupo 81813" transform="translate(5.245 40.383)" opacity="0.129">
          <path id="Trazado_115192" data-name="Trazado 115192" d="M1005.377,2452.678c.079-.147.151-.283.219-.413.024-.052.05-.107.072-.158Z" transform="translate(-1005.377 -2452.108)"/>
        </g>
      </g>
      <g id="Grupo_81815" data-name="Grupo 81815" transform="translate(41.045 94.247)">
        <path id="Trazado_115193" data-name="Trazado 115193" d="M991.5,2489.893a29.833,29.833,0,0,1-3.9-.261c-3.192-.426-10.885-2.018-13.377-7.58a14.947,14.947,0,0,1-.931-6.159c-.019-3.446-.037-6.114-.055-8.781s-.037-5.337-.055-8.785a.978.978,0,0,1,.321-.73.994.994,0,0,1,.757-.249c6.14.633,26.513.9,32.058.425a.973.973,0,0,1,1.059.885c.779,8.483.316,11.635-1.14,19.5-.477,2.582-1.163,5.526-3.269,7.775C999.939,2489.165,995.176,2489.893,991.5,2489.893Zm-16.36-30.5c.016,2.939.033,5.322.05,7.706.019,2.668.037,5.337.055,8.785a13.237,13.237,0,0,0,.761,5.368c1.449,3.236,5.878,5.643,11.849,6.441,6,.8,11.115-.355,13.681-3.094,1.745-1.864,2.327-4.377,2.774-6.793,1.363-7.366,1.833-10.491,1.2-18.014C999.167,2460.157,981.981,2459.931,975.139,2459.392Z" transform="translate(-973.176 -2457.344)"/>
      </g>
      <g id="Grupo_81816" data-name="Grupo 81816" transform="translate(20.895 18.478)">
        <path id="Trazado_115194" data-name="Trazado 115194" d="M999.647,2442.194a.994.994,0,0,1-.181-.016.979.979,0,0,1-.783-1.141c1.4-7.545,7.293-13.508,12.988-19.276,5.239-5.306,10.657-10.792,12.334-17.356.9-3.533.788-12.173-2.32-19.5-2.3-5.422-5.594-9.5-9.783-12.1-7.913-4.927-21.538-8.455-32.274-5.664-10.226,2.659-18.577,7.636-23.516,14.019a27.447,27.447,0,0,0-5.508,20.485c.9,6.924,4.29,13.71,9.8,19.63.762.818,1.58,1.635,2.37,2.424a46.132,46.132,0,0,1,4.795,5.313,20.468,20.468,0,0,1,4.02,11.6.979.979,0,0,1-1.957.045,18.517,18.517,0,0,0-3.645-10.5,44.773,44.773,0,0,0-4.6-5.082c-.8-.8-1.632-1.63-2.418-2.475-5.793-6.219-9.359-13.381-10.311-20.711a29.393,29.393,0,0,1,5.9-21.936c5.2-6.721,13.929-11.947,24.571-14.715,11.269-2.929,25.534.748,33.8,5.9,4.539,2.826,8.087,7.2,10.55,13,3.322,7.827,3.411,16.844,2.415,20.748-1.807,7.078-7.415,12.756-12.837,18.249-5.739,5.812-11.161,11.3-12.456,18.258A.978.978,0,0,1,999.647,2442.194Z" transform="translate(-948.408 -2364.206)"/>
      </g>
      <g id="Grupo_81817" data-name="Grupo 81817" transform="translate(35.012 39.736)">
        <path id="Trazado_115195" data-name="Trazado 115195" d="M994.27,2446.673h-.016a.979.979,0,0,1-.963-.994l0-.1c.072-7.117.438-14.535,1.09-22.059a36.593,36.593,0,0,1,1.561-8.844,12.374,12.374,0,0,1-6.01-3.561q-.273-.3-.527-.614-.4.667-.84,1.32c-2.032,3.039-4.269,4.61-6.84,4.806a7.7,7.7,0,0,1-1.915-.111c.606,1.882,1.063,3.758,1.449,5.552a97.905,97.905,0,0,1,2.157,23.306.96.96,0,0,1-1.005.951.978.978,0,0,1-.95-1.006,95.957,95.957,0,0,0-2.115-22.84,50.684,50.684,0,0,0-1.831-6.628c-.32-.121-.63-.247-.93-.372-3.627-1.508-7.643-3.506-9.926-6.884-1.091-1.615-1.192-3.171-.277-4.269a3.906,3.906,0,0,1,4.045-.933,7.223,7.223,0,0,1,2.979,1.989,25.919,25.919,0,0,1,5.622,8.925,6.8,6.8,0,0,0,2.551.367c1.932-.147,3.685-1.437,5.36-3.941q.668-1,1.25-2.026a18.739,18.739,0,0,1-2.165-8.029c-.176-2.529-.136-6.229,2.237-9.149a2.61,2.61,0,0,1,2.634-1.126,2.476,2.476,0,0,1,1.393,1.045c2.048,2.857,1.653,6.333,1.178,8.7a31.878,31.878,0,0,1-3.011,8.488,10.224,10.224,0,0,0,6.233,4.2c.027-.058.054-.115.082-.173a19.867,19.867,0,0,1,7.817-8.282,3.874,3.874,0,0,1,2.444-.685,2.344,2.344,0,0,1,1.9,1.3,4.281,4.281,0,0,1-.4,3.835,12.146,12.146,0,0,1-6.707,5.773,10.245,10.245,0,0,1-3.921.4,33.344,33.344,0,0,0-1.568,8.682c-.647,7.476-1.011,14.844-1.083,21.9l0,.125A.979.979,0,0,1,994.27,2446.673ZM969.1,2405.151a1.623,1.623,0,0,0-1.218.424c-.462.555.187,1.611.4,1.92,1.824,2.7,5.208,4.509,8.186,5.8a22.946,22.946,0,0,0-4.455-6.545,5.461,5.461,0,0,0-2.16-1.494A2.619,2.619,0,0,0,969.1,2405.151Zm29.642,7.937a8.521,8.521,0,0,0,2.5-.355,10.272,10.272,0,0,0,5.608-4.9,2.493,2.493,0,0,0,.324-1.969c-.048-.1-.116-.2-.373-.225a2.27,2.27,0,0,0-1.217.427A18.034,18.034,0,0,0,998.744,2413.088ZM990.4,2392.3a1.152,1.152,0,0,0-.62.464c-1.474,1.814-2.047,4.286-1.8,7.779a18.314,18.314,0,0,0,1.328,6.008,29.793,29.793,0,0,0,2.242-6.786c.641-3.192.371-5.471-.849-7.174-.177-.246-.256-.282-.277-.287Z" transform="translate(-965.761 -2390.338)"/>
      </g>
      <g id="Grupo_81818" data-name="Grupo 81818" transform="translate(102.08 21.347)">
        <path id="Trazado_115196" data-name="Trazado 115196" d="M1049.182,2374.956a.979.979,0,0,1-.474-1.836l9.19-5.071a1.682,1.682,0,0,1,1.952-.028,1.051,1.051,0,0,1,.415.949c-.089.841-.091.856-10.664,5.89A.976.976,0,0,1,1049.182,2374.956Z" transform="translate(-1048.203 -2367.733)"/>
      </g>
      <g id="Grupo_81819" data-name="Grupo 81819" transform="translate(39.129)">
        <path id="Trazado_115197" data-name="Trazado 115197" d="M976.287,2353.193a.978.978,0,0,1-.889-.57l-4.487-9.742a.979.979,0,0,1,1.778-.818l4.486,9.742a.98.98,0,0,1-.888,1.388Z" transform="translate(-970.821 -2341.492)"/>
      </g>
      <g id="Grupo_81820" data-name="Grupo 81820" transform="translate(2.64 28.937)">
        <path id="Trazado_115198" data-name="Trazado 115198" d="M937.745,2381.561a.9.9,0,0,1-.192-.019l-10.09-2.013a1.733,1.733,0,0,1-1.453-1.1,1.043,1.043,0,0,1,.259-1.034c.546-.553.775-.78,11.735,2.24a.979.979,0,0,1-.26,1.922Z" transform="translate(-925.967 -2377.063)"/>
      </g>
      <g id="Grupo_81821" data-name="Grupo 81821" transform="translate(0 64.898)">
        <path id="Trazado_115199" data-name="Trazado 115199" d="M923.7,2427.644a.979.979,0,0,1-.381-1.881l10.467-4.418a.978.978,0,1,1,.761,1.8l-10.467,4.419A.984.984,0,0,1,923.7,2427.644Z" transform="translate(-922.722 -2421.268)"/>
      </g>
      <g id="Grupo_81822" data-name="Grupo 81822" transform="translate(74.431 0.326)">
        <path id="Trazado_115200" data-name="Trazado 115200" d="M1015.195,2353.076a.979.979,0,0,1-.909-1.343l3.692-9.227a.978.978,0,1,1,1.817.728l-3.691,9.228A.978.978,0,0,1,1015.195,2353.076Z" transform="translate(-1014.216 -2341.892)"/>
      </g>
      <g id="Grupo_81823" data-name="Grupo 81823" transform="translate(105.043 58.288)">
        <path id="Trazado_115201" data-name="Trazado 115201" d="M1063,2419a.962.962,0,0,1-.35-.065l-10.171-3.9a.978.978,0,1,1,.7-1.827l10.17,3.9A.979.979,0,0,1,1063,2419Z" transform="translate(-1051.846 -2413.143)"/>
      </g>
    </g>
    <g id="Grupo_81825" data-name="Grupo 81825" transform="translate(688.77 2534.926)">
      <path id="Trazado_115202" data-name="Trazado 115202" d="M755.619,2618.854a48.724,48.724,0,0,1,36.108-31.872,17.247,17.247,0,0,0,4.452,12.386,25.094,25.094,0,0,0,11.323,7.071,22.622,22.622,0,0,0,10.437,1.022,13.312,13.312,0,0,0,8.705-4.931c4.7,4.288,12.12,4.844,17.868,2.114s9.835-8.3,11.711-14.38a15.926,15.926,0,0,0-.152-11c7.487,1.361,14.625,4.16,21.708,6.943a48.762,48.762,0,0,1,7.394,3.392,41.087,41.087,0,0,1,8.544,7.354,90.38,90.38,0,0,1,7.474,8.959c7.937,11.018,12.5,24.17,15.017,37.514s3.062,26.969,3.47,40.165c1.09,5.074.539,10.366-.525,15.445-1.1,5.241-2.782,10.456-5.861,14.837A21.479,21.479,0,0,1,900,2722.833c-9.605,3.03-20.009,2.186-29.9.278-14.4-2.777-28.278-7.711-41.98-12.927-14.572-5.547-29.015-11.432-43.391-18.183a54.275,54.275,0,0,0,8.561-27.889l-.813,2.983-9.874-6.622c-4.428-2.969-9.059-6.018-14.463-6.827C763.416,2641.821,758.68,2629.975,755.619,2618.854Z" transform="translate(-755.619 -2579.269)" fill="#fff"/>
    </g>
    <g id="Grupo_81826" data-name="Grupo 81826" transform="translate(666.085 2533.859)">
      <path id="Trazado_115203" data-name="Trazado 115203" d="M882.254,2724.833c-28.249,0-68.513-16.778-91.306-26.275-5.044-2.1-9.4-3.917-12.408-5.036a.979.979,0,0,1-.469-1.466c5.221-7.708,8.273-17.064,9.07-27.809a.978.978,0,0,1,1.3-.852l.268.092c26.44,9.171,62.56,21.7,87.031,17,2.031-14.609-.5-25.7-3.688-39.674-.487-2.132-.985-4.321-1.483-6.589a.979.979,0,0,1,1.912-.419c.5,2.262.994,4.447,1.48,6.572,3.155,13.826,5.878,25.766,3.618,41.077a.978.978,0,0,1-.77.815,63.168,63.168,0,0,1-12.753,1.192c-23.407,0-52.566-10-75.062-17.805a58.179,58.179,0,0,1-8.618,26.465c2.951,1.136,6.872,2.771,11.33,4.628,31.68,13.2,97.6,40.671,115.642,16.788,6.179-8.18,6.8-19.4,6.593-29.3a233.987,233.987,0,0,0-7.854-55.362,61.964,61.964,0,0,0-10.415-22.552c-13.714-18.765-30.109-26.219-58.26-26.4.609,8.68-3.828,16.124-11.048,18.32-18.024,5.479-22.508-8.434-24.2-13.672-.121-.375-.234-.724-.338-1.027-1.1.281-2.227.565-3.385.857-11.987,3.02-26.906,6.777-33.591,14-9.981,10.778-12.381,16.661-15.419,24.107l-.1.256c-11.267,27.6-15.151,50.585-19.646,77.2a.979.979,0,0,1-1.93-.326c4.516-26.725,8.416-49.806,19.764-77.61l.1-.255c3.113-7.631,5.573-13.659,15.8-24.7,7.08-7.646,22.31-11.484,34.55-14.566,1.453-.367,2.865-.722,4.217-1.073a.979.979,0,0,1,1.134.538,19.978,19.978,0,0,1,.712,2c1.813,5.621,5.59,17.319,21.765,12.4,6.6-2.007,10.537-9.127,9.57-17.313a.978.978,0,0,1,.972-1.093c29.526,0,46.606,7.628,60.915,27.209a63.859,63.859,0,0,1,10.733,23.231,235.878,235.878,0,0,1,7.912,55.8c.214,10.236-.448,21.867-6.988,30.524C903.395,2722.013,893.833,2724.832,882.254,2724.833Z" transform="translate(-727.734 -2577.958)"/>
    </g>
    <g id="Grupo_81827" data-name="Grupo 81827" transform="translate(560.036 2422.417)">
      <path id="Trazado_115204" data-name="Trazado 115204" d="M681.866,2442.926H598.354a.979.979,0,1,1,0-1.957h83.512a.979.979,0,1,1,0,1.957Z" transform="translate(-597.374 -2440.969)"/>
    </g>
    <g id="Grupo_81828" data-name="Grupo 81828" transform="translate(561.307 2440.563)">
      <path id="Trazado_115205" data-name="Trazado 115205" d="M650.075,2465.231h-50.16a.979.979,0,1,1,0-1.957h50.16a.979.979,0,1,1,0,1.957Z" transform="translate(-598.936 -2463.274)"/>
    </g>
    <g id="Grupo_81829" data-name="Grupo 81829" transform="translate(561.307 2459.719)">
      <path id="Trazado_115206" data-name="Trazado 115206" d="M627.971,2488.779H599.915a.979.979,0,0,1,0-1.958h28.056a.979.979,0,0,1,0,1.958Z" transform="translate(-598.936 -2486.822)"/>
    </g>
    <g id="Grupo_81830" data-name="Grupo 81830" transform="translate(847.518 2525.985)">
      <path id="Trazado_115207" data-name="Trazado 115207" d="M993.3,2570.236H951.739a.979.979,0,1,1,0-1.957H993.3a.979.979,0,1,1,0,1.957Z" transform="translate(-950.76 -2568.279)"/>
    </g>
    <g id="Grupo_81831" data-name="Grupo 81831" transform="translate(858.15 2503.046)">
      <path id="Trazado_115208" data-name="Trazado 115208" d="M995.733,2542.038H964.807a.979.979,0,0,1,0-1.957h30.926a.979.979,0,1,1,0,1.957Z" transform="translate(-963.829 -2540.081)"/>
    </g>
    <g id="Grupo_81832" data-name="Grupo 81832" transform="translate(724.275 2524.524)">
      <path id="Trazado_115209" data-name="Trazado 115209" d="M845.5,2567.72c12.152.864,15.533,4.084,18.889,9.464,4.576,7.335-3.43,25.994-18.9,26.885a17.083,17.083,0,0,1-10.557-3.166c-7.7,8.934-24.666,3.278-30.033-3.936-3.495-4.7-6.2-10.751-2.973-15.636,2.4-3.628,6.641-5.5,12.432-7.595l13.225-1.895C833.89,2570.937,839.748,2567.311,845.5,2567.72Z" transform="translate(-799.491 -2566.708)" fill="#fff"/>
      <path id="Trazado_115210" data-name="Trazado 115210" d="M823.563,2606.242c-.268,0-.54-.006-.814-.015-7.17-.257-15.28-4.084-18.864-8.9-4.88-6.558-5.918-12.353-3-16.759,2.662-4.024,7.424-5.992,12.915-7.976a1.047,1.047,0,0,1,.194-.048l13.225-1.9a43.994,43.994,0,0,0,7.53-2.028c3.628-1.21,7.049-2.356,10.6-2.1,11.976.851,15.879,3.878,19.65,9.923,2.279,3.653,1.806,9.769-1.2,15.583-3.921,7.573-10.826,12.358-18.472,12.8a18.1,18.1,0,0,1-10.468-2.856C832.089,2604.774,828.219,2606.242,823.563,2606.242Zm-9.2-31.776c-6.058,2.191-9.746,3.993-11.854,7.18-3.056,4.619-.087,10.442,2.942,14.511,3.264,4.387,10.729,7.876,17.364,8.113,3.318.115,7.943-.519,11.142-4.233a.979.979,0,0,1,1.319-.151,16.061,16.061,0,0,0,9.925,2.98c6.947-.4,13.245-4.791,16.844-11.744,2.658-5.132,3.174-10.616,1.283-13.646-3.043-4.879-5.949-8.141-18.128-9.006h0c-3.148-.219-6.4.859-9.839,2.006a45.289,45.289,0,0,1-7.871,2.107Z" transform="translate(-799.264 -2566.483)"/>
    </g>
    <g id="Grupo_81833" data-name="Grupo 81833" transform="translate(733.495 2501.299)">
      <path id="Trazado_115211" data-name="Trazado 115211" d="M811.8,2552.326c3.405,11.351,5.8,17.169,7.207,28.937.9,7.576,18.513,13.567,18.513,13.567s16.71-11.674,16.262-19.2c-4.2-9.124-10.842-21.731-16.7-36.493A227.779,227.779,0,0,1,811.8,2552.326Z" transform="translate(-810.822 -2538.158)" fill="#fff"/>
      <path id="Trazado_115212" data-name="Trazado 115212" d="M837.3,2595.584a.992.992,0,0,1-.316-.052c-.743-.253-18.205-6.284-19.169-14.377-1.107-9.3-2.834-14.812-5.224-22.449-.609-1.944-1.258-4.02-1.948-6.323a.977.977,0,0,1,.525-1.168c10.1-4.695,17.837-8.53,25.178-13.131a.977.977,0,0,1,1.43.469c4.137,10.428,8.749,19.95,12.456,27.6,1.539,3.176,2.992,6.176,4.22,8.842a.966.966,0,0,1,.088.351c.475,7.982-15.978,19.571-16.679,20.061A.981.981,0,0,1,837.3,2595.584Zm-24.538-42.952c.6,1.975,1.163,3.783,1.7,5.489,2.42,7.737,4.17,13.328,5.3,22.8.659,5.527,12.35,10.8,17.388,12.592,4.726-3.377,15.541-12.306,15.445-17.878-1.2-2.6-2.621-5.533-4.121-8.631-3.592-7.414-8.032-16.578-12.081-26.647A228.745,228.745,0,0,1,812.759,2552.632Z" transform="translate(-810.598 -2537.934)"/>
    </g>
    <g id="Grupo_81834" data-name="Grupo 81834" transform="translate(712.087 2443.531)">
      <path id="Trazado_115213" data-name="Trazado 115213" d="M786.267,2499.573c1.48,7.931.936,16.113,1.956,24.113s3.9,16.2,10.839,21.482c6.111,4.655,15.089,6.494,23.336,4.781s15.548-6.93,18.974-13.564c3.222-6.238,2.295-18.787,2.075-25.1,3.78.077,7.743-1.62,9.642-4.469a6.294,6.294,0,0,0-1.5-8.721c-2.871-1.983-6.183-1.911-9.448,2.049a58.315,58.315,0,0,0-2.675-12.315c-1.9-6.112-3.254-15.379-7.963-17.464-2.667-1.181-8.044-1.807-11.057-2.177-5.207-.639-11.783,3.48-17.054,4.167s-10.324,3.916-14.223,7.107C784.505,2483.283,785.159,2493.64,786.267,2499.573Z" transform="translate(-784.503 -2467.146)" fill="#fff"/>
      <path id="Trazado_115214" data-name="Trazado 115214" d="M815.963,2551.336a29.547,29.547,0,0,1-17.715-5.613c-6.17-4.7-9.944-12.148-11.217-22.137-.45-3.526-.6-7.125-.746-10.606a95.4,95.4,0,0,0-1.2-13.451h0c-.5-2.663-2.678-16.2,3.243-21.044,5.206-4.265,10.158-6.729,14.716-7.321a34.329,34.329,0,0,0,6.747-1.961c3.563-1.285,7.252-2.608,10.55-2.207l.341.042c3.1.38,8.292,1.014,10.994,2.211,4.161,1.843,5.863,8.292,7.365,13.983.384,1.458.748,2.836,1.136,4.085l.049.159a63.546,63.546,0,0,1,2.434,10.257c3.852-3.415,7.381-1.965,9.261-.666a7.236,7.236,0,0,1,1.762,10.07c-1.85,2.775-5.554,4.663-9.441,4.884q.022.542.047,1.129c.3,7.021.741,17.631-2.268,23.459-3.568,6.905-11.095,12.3-19.645,14.073A31.608,31.608,0,0,1,815.963,2551.336Zm-28.955-52.166a96.875,96.875,0,0,1,1.233,13.728c.144,3.44.293,7,.732,10.441,1.2,9.45,4.724,16.457,10.461,20.828,5.906,4.5,14.543,6.26,22.545,4.6s15-6.661,18.3-13.056c2.772-5.366,2.322-16.077,2.052-22.477-.033-.77-.063-1.487-.085-2.138a.978.978,0,0,1,.281-.721,1.068,1.068,0,0,1,.717-.292c3.59.077,7.15-1.545,8.808-4.032a5.3,5.3,0,0,0-1.245-7.374c-2.792-1.93-5.528-1.3-8.136,1.867a.978.978,0,0,1-1.73-.542,56.978,56.978,0,0,0-2.585-11.946l-.05-.158c-.4-1.291-.77-2.688-1.16-4.168-1.389-5.264-2.964-11.231-6.265-12.693-2.436-1.079-7.446-1.692-10.439-2.058l-.342-.042c-2.843-.351-6.3.9-9.647,2.105a36.259,36.259,0,0,1-7.16,2.06c-4.19.545-8.809,2.865-13.728,6.895-3.93,3.218-3.835,12.339-2.559,19.172Z" transform="translate(-784.281 -2466.922)"/>
    </g>
    <g id="Grupo_81835" data-name="Grupo 81835" transform="translate(719.106 2485.107)">
      <path id="Trazado_115215" data-name="Trazado 115215" d="M792.928,2520.113a1.909,1.909,0,1,1,2.146,1.516A1.859,1.859,0,0,1,792.928,2520.113Z" transform="translate(-792.91 -2518.029)"/>
    </g>
    <g id="Grupo_81836" data-name="Grupo 81836" transform="translate(747.953 2482.202)">
      <path id="Trazado_115216" data-name="Trazado 115216" d="M828.388,2516.543a1.909,1.909,0,1,1,2.146,1.515A1.86,1.86,0,0,1,828.388,2516.543Z" transform="translate(-828.37 -2514.459)"/>
    </g>
    <g id="Grupo_81837" data-name="Grupo 81837" transform="translate(742.665 2508.401)">
      <path id="Trazado_115217" data-name="Trazado 115217" d="M824.842,2552.069a9.79,9.79,0,0,1-2.214-.25.978.978,0,1,1,.441-1.906,8.538,8.538,0,0,0,8.312-2.882.979.979,0,0,1,1.527,1.225A10.446,10.446,0,0,1,824.842,2552.069Z" transform="translate(-821.87 -2546.664)"/>
    </g>
    <g id="Grupo_81838" data-name="Grupo 81838" transform="translate(768.298 2475.367)">
      <path id="Trazado_115218" data-name="Trazado 115218" d="M854.358,2512.479a.933.933,0,0,1-.134-.009.978.978,0,0,1-.836-1.1c.242-1.765.34-2.713.517-4.434a.978.978,0,1,1,1.947.2c-.18,1.742-.278,2.7-.525,4.5A.979.979,0,0,1,854.358,2512.479Z" transform="translate(-853.379 -2506.057)"/>
    </g>
    <g id="Grupo_81839" data-name="Grupo 81839" transform="translate(737.465 2517.913)" opacity="0.129">
      <path id="Trazado_115219" data-name="Trazado 115219" d="M842.948,2558.362a17.741,17.741,0,0,1-3.06,2.786l-.127.145c-.015-.007-.034-.008-.05-.014a40.6,40.6,0,0,1-7.618,4.039c-.5.238-1,.467-1.507.676,0,0-.546.223-1.111.422-.976.344-6.45.97-14,1.124l1.041,3.278c1.894,5.96,2.842,8.947,2.881,9.35.164,1.666.054,2.948,1.051,4.08a4.446,4.446,0,0,0,2.255,1.3,9.268,9.268,0,0,0,.87-.974q2.366-2.322,4.743-4.821a193.775,193.775,0,0,0,15.72-18.8A1.5,1.5,0,0,0,842.948,2558.362Z" transform="translate(-815.477 -2558.357)"/>
    </g>
    <g id="Grupo_81840" data-name="Grupo 81840" transform="translate(731.689 2482.721)">
      <path id="Trazado_115220" data-name="Trazado 115220" d="M814.8,2537.237a6.437,6.437,0,0,1-3.522-.971c-2.6-1.691-3.156-5.15-2.812-7.825a29.729,29.729,0,0,1,2.062-6.935,32.668,32.668,0,0,0,1.809-5.615.978.978,0,1,1,1.922.37,34.545,34.545,0,0,1-1.907,5.954,27.9,27.9,0,0,0-1.945,6.476c-.268,2.085.1,4.739,1.939,5.934a4.912,4.912,0,0,0,3.408.581,14.054,14.054,0,0,0,3.734-1.292.979.979,0,0,1,.83,1.772,15.717,15.717,0,0,1-4.27,1.455A8.293,8.293,0,0,1,814.8,2537.237Z" transform="translate(-808.377 -2515.097)"/>
    </g>
    <g id="Grupo_81841" data-name="Grupo 81841" transform="translate(700.192 2431.491)">
      <path id="Trazado_115221" data-name="Trazado 115221" d="M825.817,2474.923a45.013,45.013,0,0,1-39.672,15.46l-3.395-4.36c.3,5.969.182,9.932,1.326,14.317-5.647-3.36-11.61-10-12.844-16.458a20.708,20.708,0,0,1,5.33-18.187c2.982-3.015,6.876-4.952,10.814-6.527a82.056,82.056,0,0,1,33.467-5.786c4.709.18,9.591.833,13.547,3.4,6.774,4.39,9.107,13.082,10.484,21.036a77.186,77.186,0,0,1,1.429,16.33,3.421,3.421,0,0,0-3.664.025,8.913,8.913,0,0,0-3.395,3.261c-.761-7.32-2.031-11.428-4.18-18.467-1.472.467-2.4.482-5.167-.26C826.944,2477.913,826.733,2477.041,825.817,2474.923Z" transform="translate(-769.885 -2452.346)" fill="#4f389f"/>
      <path id="Trazado_115222" data-name="Trazado 115222" d="M783.851,2501.095a.98.98,0,0,1-.5-.138c-5.452-3.244-11.942-9.983-13.306-17.116a21.612,21.612,0,0,1,5.6-19.057c3.319-3.357,7.7-5.37,11.145-6.748a83.372,83.372,0,0,1,33.868-5.855c4.235.162,9.658.712,14.042,3.553,7.109,4.608,9.507,13.551,10.916,21.691a78.49,78.49,0,0,1,1.443,16.534.979.979,0,0,1-1.6.718c-.663-.546-1.809-.267-2.591.138a7.9,7.9,0,0,0-3.017,2.912.979.979,0,0,1-1.8-.418c-.718-6.908-1.913-10.98-3.867-17.384a9.965,9.965,0,0,1-4.758-.5c-2.533-.678-3.379-1.5-4.093-2.924a45.745,45.745,0,0,1-39.53,14.629.981.981,0,0,1-.649-.37l-1.514-1.944c.007.169.012.337.019.5a47.573,47.573,0,0,0,1.145,10.549.978.978,0,0,1-.947,1.226Zm33.726-47.015a81.474,81.474,0,0,0-30.062,5.773c-3.27,1.308-7.415,3.207-10.481,6.306a19.633,19.633,0,0,0-5.065,17.314c1.047,5.477,5.741,11.094,10.419,14.5a63.677,63.677,0,0,1-.691-8.581c-.041-1.108-.086-2.282-.149-3.545a.978.978,0,0,1,1.75-.649l3.144,4.039a44.32,44.32,0,0,0,38.4-15.166.978.978,0,0,1,1.65.237l.156.363c.755,1.766.958,2.24,3.279,2.862,2.715.727,3.423.653,4.617.273a.978.978,0,0,1,1.232.646l.063.2c1.877,6.147,3.093,10.131,3.877,16.085a8.977,8.977,0,0,1,2.249-1.667,5.315,5.315,0,0,1,3.169-.608,80.769,80.769,0,0,0-1.449-14.71c-1.337-7.724-3.576-16.185-10.052-20.382-3.984-2.582-9.068-3.087-13.053-3.24C819.581,2454.1,818.578,2454.08,817.576,2454.08Z" transform="translate(-769.66 -2452.122)"/>
    </g>
    <g id="Grupo_81842" data-name="Grupo 81842" transform="translate(770.133 2485.722)">
      <path id="Trazado_115223" data-name="Trazado 115223" d="M863,2519.988a53.453,53.453,0,0,1-5.385,19.7q-.1-9.316-.778-18.612A19.3,19.3,0,0,0,863,2519.988Z" transform="translate(-855.858 -2519.01)" fill="#4f389f"/>
      <path id="Trazado_115224" data-name="Trazado 115224" d="M857.391,2540.447a.953.953,0,0,1-.218-.025.978.978,0,0,1-.761-.943c-.068-6.17-.329-12.412-.776-18.553a.979.979,0,0,1,.947-1.05,18.312,18.312,0,0,0,5.853-1.031.979.979,0,0,1,1.315.991,54.785,54.785,0,0,1-5.483,20.066A.98.98,0,0,1,857.391,2540.447Zm.269-18.663c.3,4.388.514,8.823.628,13.241a53.026,53.026,0,0,0,3.383-13.884A20.7,20.7,0,0,1,857.66,2521.783Z" transform="translate(-855.634 -2518.785)"/>
    </g>
    <g id="Grupo_81843" data-name="Grupo 81843" transform="translate(741.291 2475.855)">
      <path id="Trazado_115225" data-name="Trazado 115225" d="M831.81,2523.839c-.092,0-.183,0-.274,0a12.091,12.091,0,0,1-3.793-.823,12.219,12.219,0,0,1-6.318-4.589,7.021,7.021,0,0,1,0-7.99c1.512-1.945,3.951-2.618,6.138-3.021a45.823,45.823,0,0,1,10.248-.712h0a5.94,5.94,0,0,1,5.572,5.63c.161,3.083-1.6,5.68-3.108,7.315A11.876,11.876,0,0,1,831.81,2523.839Zm4.031-15.225a43.653,43.653,0,0,0-7.921.723c-1.825.336-3.839.871-4.947,2.3-1.293,1.662-.93,4.139.1,5.726a10.326,10.326,0,0,0,5.346,3.813,10.216,10.216,0,0,0,3.185.706,9.844,9.844,0,0,0,7.237-3.561c1.026-1.112,2.725-3.356,2.594-5.885a3.965,3.965,0,0,0-3.7-3.777h0Q836.786,2508.615,835.841,2508.615Z" transform="translate(-820.181 -2506.657)"/>
    </g>
    <g id="Grupo_81844" data-name="Grupo 81844" transform="translate(709.459 2479.718)">
      <path id="Trazado_115226" data-name="Trazado 115226" d="M792.681,2528.586c-.092,0-.183,0-.274,0a12.082,12.082,0,0,1-3.793-.822,12.221,12.221,0,0,1-6.319-4.589,7.019,7.019,0,0,1,0-7.99c1.511-1.943,3.95-2.618,6.137-3.021a45.9,45.9,0,0,1,10.248-.712h0a5.939,5.939,0,0,1,5.572,5.631c.16,3.083-1.6,5.68-3.108,7.314A11.871,11.871,0,0,1,792.681,2528.586Zm4.033-15.224a43.826,43.826,0,0,0-7.924.722c-1.824.336-3.838.872-4.946,2.3-1.293,1.661-.931,4.139.1,5.726a12.354,12.354,0,0,0,8.53,4.518,9.817,9.817,0,0,0,7.238-3.56c1.025-1.113,2.724-3.356,2.594-5.887a3.965,3.965,0,0,0-3.7-3.775h0Q797.657,2513.361,796.714,2513.362Z" transform="translate(-781.052 -2511.405)"/>
    </g>
    <g id="Grupo_81845" data-name="Grupo 81845" transform="translate(730.013 2477.772)">
      <path id="Trazado_115227" data-name="Trazado 115227" d="M807.3,2513.566a.978.978,0,0,1-.674-1.688,10.855,10.855,0,0,1,6.293-2.787,15.786,15.786,0,0,1,6.685.827.979.979,0,1,1-.616,1.858,13.855,13.855,0,0,0-5.857-.739,8.9,8.9,0,0,0-5.158,2.261A.973.973,0,0,1,807.3,2513.566Z" transform="translate(-806.317 -2509.013)"/>
    </g>
    <g id="Grupo_81846" data-name="Grupo 81846" transform="translate(761.837 2474.032)">
      <path id="Trazado_115228" data-name="Trazado 115228" d="M846.415,2510.024a.978.978,0,0,1-.42-1.863c2.5-1.188,5-2.412,7.435-3.64a.979.979,0,0,1,.881,1.748c-2.445,1.234-4.961,2.466-7.476,3.661A.977.977,0,0,1,846.415,2510.024Z" transform="translate(-845.436 -2504.417)"/>
    </g>
    <g id="Grupo_81847" data-name="Grupo 81847" transform="translate(748.294 2557.221)">
      <path id="Trazado_115229" data-name="Trazado 115229" d="M829.768,2653.513h-.038a.978.978,0,0,1-.94-1.015c.567-14.873.712-29.955.428-44.825a.979.979,0,0,1,.96-1,1.006,1.006,0,0,1,1,.96c.284,14.907.14,30.026-.43,44.937A.979.979,0,0,1,829.768,2653.513Z" transform="translate(-828.789 -2606.675)"/>
    </g>
    <g id="Grupo_81848" data-name="Grupo 81848" transform="translate(768.501 2555.942)">
      <path id="Trazado_115230" data-name="Trazado 115230" d="M858.273,2662.263a.979.979,0,0,1-.976-.913l-3.667-55.2a.979.979,0,0,1,1.953-.13l3.667,55.2a.98.98,0,0,1-.912,1.042Z" transform="translate(-853.628 -2605.103)"/>
    </g>
    <g id="Grupo_81849" data-name="Grupo 81849" transform="translate(745.448 2599.917)">
      <path id="Trazado_115231" data-name="Trazado 115231" d="M829.649,2660.362a3.907,3.907,0,0,0-.529,7.526,1.982,1.982,0,0,0,1.086.108,2.062,2.062,0,0,0,.845-.473,4.094,4.094,0,0,0-1.4-7.161Z" transform="translate(-825.515 -2659.384)" fill="#fff"/>
      <path id="Trazado_115232" data-name="Trazado 115232" d="M829.654,2668.787a3.272,3.272,0,0,1-1.079-.2,4.885,4.885,0,0,1,.663-9.411.99.99,0,0,1,.527.043,5.07,5.07,0,0,1,1.7,8.826,3.02,3.02,0,0,1-1.257.679A2.414,2.414,0,0,1,829.654,2668.787Zm-.3-7.622a2.926,2.926,0,0,0-.135,5.573,1.032,1.032,0,0,0,.547.08,1.188,1.188,0,0,0,.432-.266,3.363,3.363,0,0,0,1.188-2.958A3.292,3.292,0,0,0,829.351,2661.164Z" transform="translate(-825.291 -2659.159)"/>
    </g>
    <g id="Grupo_81850" data-name="Grupo 81850" transform="translate(769.143 2604.052)">
      <path id="Trazado_115233" data-name="Trazado 115233" d="M858.478,2665.447a2.79,2.79,0,0,0-2.754,1.992,4.221,4.221,0,0,0,.114,2.216c.391,1.417,1.435,2.93,2.9,2.858a1.949,1.949,0,0,0,.857-.247,2.63,2.63,0,0,0,.778-.719,4.188,4.188,0,0,0,.7-3.488A3.093,3.093,0,0,0,858.478,2665.447Z" transform="translate(-854.641 -2664.466)" fill="#fff"/>
      <path id="Trazado_115234" data-name="Trazado 115234" d="M858.411,2673.27c-1.9,0-3.243-1.777-3.741-3.579a5.065,5.065,0,0,1-.115-2.734,3.754,3.754,0,0,1,3.75-2.711h0a4.047,4.047,0,0,1,3.493,3.349,5.147,5.147,0,0,1-.865,4.315,3.518,3.518,0,0,1-1.077.983,2.926,2.926,0,0,1-1.293.373C858.513,2673.269,858.462,2673.27,858.411,2673.27Zm-.289-7.071a1.81,1.81,0,0,0-1.678,1.272,3.233,3.233,0,0,0,.113,1.7c.3,1.1,1.07,2.173,1.91,2.141a.957.957,0,0,0,.425-.122,1.637,1.637,0,0,0,.476-.454,3.214,3.214,0,0,0,.534-2.659c-.108-.424-.547-1.813-1.7-1.875h-.079Z" transform="translate(-854.417 -2664.242)"/>
    </g>
    <g id="Grupo_81851" data-name="Grupo 81851" transform="translate(577.725 2562.869)">
      <path id="Trazado_115235" data-name="Trazado 115235" d="M695.026,2715.76a591.368,591.368,0,0,1,56.943-27.573c-7.711-25.842-16.911-49.6-26.11-73.365-18.314,7.635-35.414,16.643-52.472,25.969l-10.078,2.474c-7.143-4.531-28.117-16.6-42.987-26.028,9.276,31.312,15.557,52.976,24,81.481,0,0,36.786,17.32,37.8,18.089,2,2.1,4.747,3.717,7.649,3.595S695.558,2717.972,695.026,2715.76Z" transform="translate(-619.342 -2613.843)" fill="#fff"/>
      <path id="Trazado_115236" data-name="Trazado 115236" d="M689.253,2721.162a11.455,11.455,0,0,1-7.986-3.825c-1.513-.9-23.216-11.192-37.585-17.958a.98.98,0,0,1-.522-.608c-4.129-13.937-7.679-26.028-11.437-38.83-3.846-13.1-7.823-26.647-12.565-42.651a.979.979,0,0,1,1.464-1.1c8.771,5.563,19.767,12.1,28.6,17.358,5.9,3.51,11.033,6.561,14.029,8.447l9.55-2.344c18.9-10.33,35.053-18.7,52.454-25.953a.978.978,0,0,1,1.289.55c9.053,23.382,18.413,47.56,26.135,73.438a.979.979,0,0,1-.56,1.182,592.565,592.565,0,0,0-56.28,27.214,3.984,3.984,0,0,1-.863,2.377,7.337,7.337,0,0,1-5.39,2.7C689.477,2721.16,689.366,2721.162,689.253,2721.162ZM644.912,2697.8c6.975,3.285,36.555,17.233,37.578,18.008a1.007,1.007,0,0,1,.117.1,9.4,9.4,0,0,0,6.9,3.292,5.469,5.469,0,0,0,3.91-1.922,1.87,1.87,0,0,0,.434-1.514.979.979,0,0,1,.478-1.086,594.519,594.519,0,0,1,56.227-27.277c-7.548-25.144-16.644-48.711-25.471-71.513-17,7.147-32.9,15.393-51.453,25.537a.993.993,0,0,1-.237.092l-10.079,2.474a.986.986,0,0,1-.757-.124c-2.912-1.847-8.206-4.995-14.335-8.64-8.124-4.831-18.07-10.746-26.451-16,4.419,14.929,8.181,27.746,11.827,40.163C637.321,2672.061,640.837,2684.037,644.912,2697.8Z" transform="translate(-619.118 -2613.619)"/>
    </g>
    <g id="Grupo_81852" data-name="Grupo 81852" transform="translate(675.533 2608.687)">
      <path id="Trazado_115237" data-name="Trazado 115237" d="M784.656,2704.178c-3.2-.681-6.67-3.27-10.068-4.457-5.279-1.844-11.465,1.906-16.552-.414a5.026,5.026,0,0,1,3.089-3.79,14.842,14.842,0,0,1,4.993-.986,10.169,10.169,0,0,0-6.563,1.406c-1.45.89-3.379,2.139-4.6.958-.46-2.663,1.285-5.316,3.573-6.752s5.03-1.916,7.694-2.365l-8.308,1.485a4.107,4.107,0,0,0-2.45,1.033,5.271,5.271,0,0,0-.872,2.344,9.164,9.164,0,0,1-3.787,5.379.7.7,0,0,1-.453.159c-.256-.034-.391-.316-.471-.561a12.536,12.536,0,0,1,5.848-14.516c1.783-.945,3.771-1.429,5.619-2.241.682-.3,1.465-.933,1.184-1.622-.214-.525-.895-.635-1.461-.668-4.182-.239-8.477-.465-12.463.822a15.93,15.93,0,0,1-4.49,1.194c-1.555.028-3.286-.875-3.53-2.412-.33-2.078,2.025-3.484,4.022-4.145a61.849,61.849,0,0,1,22.555-2.8,48.148,48.148,0,0,1,10.705,4.883c4.265,2.62,7.588,5.739,12.369,8.509C789.644,2694.218,785.3,2704.315,784.656,2704.178Z" transform="translate(-739.572 -2670.164)" fill="#fff"/>
      <path id="Trazado_115238" data-name="Trazado 115238" d="M784.446,2704.934a1.108,1.108,0,0,1-.217-.023h0a24.382,24.382,0,0,1-5.865-2.472,33.853,33.853,0,0,0-4.322-2.019c-2.309-.805-4.853-.432-7.547-.034-3.04.448-6.182.912-9.089-.414a.978.978,0,0,1-.567-.994,4.718,4.718,0,0,1,.229-1.026,2.865,2.865,0,0,1-3.019-.578.977.977,0,0,1-.285-.539,6.034,6.034,0,0,1-.08-.7,10.064,10.064,0,0,1-2.566,2.473,1.6,1.6,0,0,1-1.123.314,1.563,1.563,0,0,1-1.272-1.228,13.6,13.6,0,0,1,6.319-15.686,25.24,25.24,0,0,1,3.405-1.4c.8-.282,1.546-.548,2.279-.87a2,2,0,0,0,.552-.353,2.779,2.779,0,0,0-.491-.064c-4.054-.231-8.244-.471-12.106.775-.346.112-.691.235-1.036.359a11.637,11.637,0,0,1-3.737.884c-1.936.028-4.173-1.088-4.515-3.238-.347-2.19,1.4-4.144,4.682-5.228a62.759,62.759,0,0,1,22.907-2.853.963.963,0,0,1,.25.044,49.109,49.109,0,0,1,10.922,4.983c1.982,1.217,3.793,2.562,5.545,3.863a70.583,70.583,0,0,0,6.8,4.633.98.98,0,0,1,.486.907c-.556,9.038-4.533,19.233-5.859,20.242A1.113,1.113,0,0,1,784.446,2704.934Zm.19-1.938h0Zm-13.721-5.008a11.326,11.326,0,0,1,3.772.584,35.033,35.033,0,0,1,4.586,2.133,26.349,26.349,0,0,0,4.841,2.162c1.115-1.848,4.262-10.008,4.878-17.938a76.053,76.053,0,0,1-6.461-4.446c-1.8-1.333-3.494-2.593-5.4-3.765a47.134,47.134,0,0,0-10.365-4.747,60.8,60.8,0,0,0-22.075,2.763c-1.687.557-3.58,1.693-3.363,3.061.159,1.006,1.463,1.611,2.545,1.587a10.012,10.012,0,0,0,3.113-.768c.364-.131.728-.261,1.094-.379,4.212-1.359,8.784-1.1,12.819-.867a2.48,2.48,0,0,1,2.311,1.276c.444,1.086-.238,2.246-1.7,2.887-.8.351-1.618.641-2.411.923a23.35,23.35,0,0,0-3.143,1.287,11.592,11.592,0,0,0-5.5,12.938,8.2,8.2,0,0,0,2.955-4.5c.033-.138.064-.277.1-.416a4.956,4.956,0,0,1,.995-2.344,5.012,5.012,0,0,1,3.011-1.346l6.17-1.1c.73-.146,1.451-.267,2.148-.384a.979.979,0,0,1,.334,1.929l-2.082.372a15.592,15.592,0,0,0-5.263,1.859c-1.692,1.063-3.342,3.157-3.177,5.368.664.249,1.811-.4,3.034-1.15l.142-.087a11.081,11.081,0,0,1,7.2-1.541.978.978,0,0,1-.048,1.946,14.038,14.038,0,0,0-4.667.9,4.447,4.447,0,0,0-2.345,2.3c2.2.715,4.66.351,7.249-.03A32.419,32.419,0,0,1,770.914,2697.988Z" transform="translate(-739.348 -2669.939)"/>
    </g>
    <g id="Grupo_81853" data-name="Grupo 81853" transform="translate(584.776 2609.773)">
      <path id="Trazado_115239" data-name="Trazado 115239" d="M652.9,2672.844a59.763,59.763,0,0,0-19.17,1.016,18.878,18.878,0,0,0-3.113,5.918c-.916,2.8-1.971,6.522-1.522,8.678,2.088,10.027,3.17,12.767,8.391,13.849a9.44,9.44,0,0,0,7.348-2,5.027,5.027,0,0,0-3.789-3.09,14.82,14.82,0,0,0-5.09.04,10.171,10.171,0,0,1,6.711.054c1.6.581,3.741,1.417,4.7.012-.086-2.7-2.329-4.947-4.859-5.895a16.431,16.431,0,0,0-5.94-.822l6.365-.164a4.107,4.107,0,0,1,2.608.518,5.289,5.289,0,0,1,1.327,2.121,9.162,9.162,0,0,0,4.792,4.507.7.7,0,0,0,.476.065c.244-.085.319-.388.348-.645a12.536,12.536,0,0,0-8.649-13.042c-1.937-.566-3.982-.641-5.956-1.065-.728-.156-1.623-.618-1.486-1.35.1-.557.75-.8,1.3-.948,4.048-1.076,8.21-2.161,12.373-1.7a15.937,15.937,0,0,0,4.639.267c1.529-.287,3.042-1.52,2.972-3.073C657.583,2673.993,654.993,2673.088,652.9,2672.844Z" transform="translate(-628.01 -2671.5)" fill="#fff"/>
      <path id="Trazado_115240" data-name="Trazado 115240" d="M638.711,2703.205a8.1,8.1,0,0,1-1.646-.166c-5.889-1.22-7.06-4.569-9.15-14.608-.39-1.874.088-4.706,1.551-9.181a19.849,19.849,0,0,1,3.276-6.224.983.983,0,0,1,.569-.35,60.633,60.633,0,0,1,19.481-1.03h0c3.43.4,5.538,1.964,5.638,4.179.1,2.174-1.869,3.724-3.769,4.079a11.633,11.633,0,0,1-3.841-.112c-.362-.052-.724-.1-1.084-.143-4.041-.447-8.094.634-12.015,1.677a2.786,2.786,0,0,0-.469.161,1.977,1.977,0,0,0,.612.234c.783.168,1.57.277,2.406.394a25.044,25.044,0,0,1,3.619.689,13.594,13.594,0,0,1,9.346,14.093,1.561,1.561,0,0,1-1,1.458,1.617,1.617,0,0,1-1.163-.082,10.055,10.055,0,0,1-3.011-1.9,6.168,6.168,0,0,1,.063.7.971.971,0,0,1-.171.585,2.869,2.869,0,0,1-2.841,1.175,4.749,4.749,0,0,1,.431.958.98.98,0,0,1-.356,1.088A11.123,11.123,0,0,1,638.711,2703.205Zm-4.652-28.683a18.059,18.059,0,0,0-2.733,5.336c-.483,1.478-1.952,5.975-1.494,8.175,2.153,10.341,3.223,12.177,7.631,13.09a8.207,8.207,0,0,0,5.914-1.384,4.451,4.451,0,0,0-2.77-1.793,14.039,14.039,0,0,0-4.753.056.978.978,0,0,1-.439-1.9,11.1,11.1,0,0,1,7.363.061l.154.056c1.351.49,2.607.894,3.206.516-.284-2.2-2.321-3.917-4.194-4.62a15.5,15.5,0,0,0-5.588-.759h-.009a.979.979,0,0,1-.024-1.957l6.365-.163a4.994,4.994,0,0,1,3.22.713,4.938,4.938,0,0,1,1.446,2.1c.059.131.118.261.178.388a8.175,8.175,0,0,0,3.8,3.809,11.593,11.593,0,0,0-7.991-11.564,23.365,23.365,0,0,0-3.34-.629c-.833-.115-1.695-.235-2.546-.418-1.558-.334-2.459-1.333-2.244-2.488.234-1.242,1.569-1.6,2.009-1.713,3.9-1.038,8.333-2.214,12.731-1.731.382.042.764.1,1.147.152a10.014,10.014,0,0,0,3.205.126c1.081-.2,2.22-1.049,2.174-2.067-.063-1.383-2.146-2.115-3.911-2.322A58.4,58.4,0,0,0,634.059,2674.522Zm17.813,21.96Z" transform="translate(-627.785 -2671.275)"/>
    </g>
    <g id="Grupo_81854" data-name="Grupo 81854" transform="translate(632.639 2592.421)">
      <path id="Trazado_115241" data-name="Trazado 115241" d="M705.028,2717.471a.978.978,0,0,1-.931-.677,634.956,634.956,0,0,1-17.456-65.67.978.978,0,1,1,1.916-.4,633.583,633.583,0,0,0,17.4,65.466.979.979,0,0,1-.931,1.281Z" transform="translate(-686.62 -2649.945)"/>
    </g>
    <g id="Grupo_81855" data-name="Grupo 81855" transform="translate(626.35 2619.482)">
      <path id="Trazado_115242" data-name="Trazado 115242" d="M691.651,2726.483a.978.978,0,0,1-.941-.71l-11.781-41.316a.979.979,0,0,1,1.882-.537l11.781,41.316a.977.977,0,0,1-.673,1.209A.946.946,0,0,1,691.651,2726.483Z" transform="translate(-678.891 -2683.209)"/>
    </g>
    <g id="Grupo_81864" data-name="Grupo 81864" transform="translate(397.162 2388.637)">
      <g id="Grupo_81856" data-name="Grupo 81856">
        <path id="Trazado_115243" data-name="Trazado 115243" d="M404.434,2431.372c4.017,1.434,14.1,1.65,18.363-3.43,6.033-7.189,4.426-15.5,2.455-20.05,4.748-2.279,13.653-4.6,22.436-7.245-.583,2.1,3.593,9.2,9.228,12.084,12.849,6.583,21.439-1.168,24.2-4.539a152.2,152.2,0,0,1,16.163,19.156,18.642,18.642,0,0,0-7.159,18.627c1.49,6.881,7.322,12.617,14.4,14.449a90.381,90.381,0,0,1-8.916,20.49c-4.667-2.016-9.882-4.063-14.69-2.41-3.757,1.291-6.493,4.694-7.892,8.412s-1.643,7.758-2.16,12.024a124.271,124.271,0,0,1-21.823,2.593,17.856,17.856,0,0,0-5.573-11.909,11.142,11.142,0,0,0-6.349-3.189,14.922,14.922,0,0,0-6.683,1.357c-3.226,1.238-6.624,2.866-8.766,6.143a77.233,77.233,0,0,1-14.556-14.062,21.953,21.953,0,0,0,7.525-12.853,10.329,10.329,0,0,0-.106-4.976c-.918-2.875-3.628-4.787-6.347-6.1a34.934,34.934,0,0,0-9.817-3.017A105.925,105.925,0,0,1,404.434,2431.372Z" transform="translate(-397.386 -2399.669)" fill="#fff"/>
        <path id="Trazado_115244" data-name="Trazado 115244" d="M448.812,2502.289a.978.978,0,0,1-.976-.924,16.834,16.834,0,0,0-5.264-11.249,10.327,10.327,0,0,0-5.775-2.929,14.076,14.076,0,0,0-6.237,1.3c-3.14,1.206-6.319,2.738-8.3,5.765a.98.98,0,0,1-1.414.242,78.09,78.09,0,0,1-14.737-14.245.978.978,0,0,1,.151-1.351,21.087,21.087,0,0,0,7.187-12.274,9.208,9.208,0,0,0-.076-4.5c-.686-2.146-2.6-3.95-5.839-5.516a33.964,33.964,0,0,0-9.543-2.931.979.979,0,0,1-.815-1.129,107.441,107.441,0,0,1,6.124-21.757.982.982,0,0,1,1.239-.561c3.827,1.366,13.4,1.5,17.285-3.137,6.459-7.7,3.4-16.513,2.307-19.032a.979.979,0,0,1,.474-1.272c3.7-1.777,9.885-3.579,16.428-5.487,2.02-.588,4.088-1.192,6.149-1.812a.979.979,0,0,1,1.226,1.2c-.376,1.349,3.178,8.107,8.731,10.951,12.74,6.526,20.821-1.633,23-4.288a.979.979,0,0,1,.712-.357.99.99,0,0,1,.742.29,151.92,151.92,0,0,1,16.266,19.279.978.978,0,0,1-.228,1.359,17.673,17.673,0,0,0-6.775,17.625c1.4,6.441,6.9,11.95,13.687,13.709a.978.978,0,0,1,.693,1.226,91.712,91.712,0,0,1-9.014,20.714.981.981,0,0,1-1.228.4c-4.884-2.11-9.631-3.88-13.983-2.382-3.125,1.074-5.852,4-7.294,7.831a39.575,39.575,0,0,0-1.853,9.6c-.081.725-.162,1.457-.251,2.2a.979.979,0,0,1-.775.841,124.668,124.668,0,0,1-21.994,2.612Zm-12.733-17.094c.3,0,.6.014.907.043a12.046,12.046,0,0,1,6.922,3.448,18.824,18.824,0,0,1,5.8,11.618,122.688,122.688,0,0,0,20.036-2.4c.058-.5.112-.988.167-1.477a41,41,0,0,1,1.966-10.073c1.669-4.435,4.764-7.713,8.49-8.993,4.75-1.632,9.8.063,14.6,2.1a89.912,89.912,0,0,0,8.1-18.585c-7.036-2.2-12.651-8.078-14.131-14.909a19.726,19.726,0,0,1,6.77-19.039,149.754,149.754,0,0,0-14.777-17.514c-2.859,3.078-11.687,10.631-24.686,3.973-5.008-2.565-9.015-8.331-9.7-11.659-1.668.5-3.333.982-4.966,1.458a146.566,146.566,0,0,0-15.294,4.991c1.357,3.594,3.585,12.376-2.964,20.178-4.232,5.043-13.74,5.278-18.533,4a105.53,105.53,0,0,0-5.517,19.555,35.644,35.644,0,0,1,9.111,2.938c3.754,1.811,6,4,6.853,6.682a11.038,11.038,0,0,1,.137,5.448,23.1,23.1,0,0,1-7.143,12.807,76.243,76.243,0,0,0,13,12.539c2.271-2.924,5.471-4.452,8.622-5.662A17.661,17.661,0,0,1,436.079,2485.194Z" transform="translate(-397.162 -2399.445)"/>
      </g>
      <g id="Grupo_81858" data-name="Grupo 81858" transform="translate(34.373 28.427)">
        <g id="Grupo_81857" data-name="Grupo 81857">
          <path id="Trazado_115245" data-name="Trazado 115245" d="M475.533,2438.193a24.262,24.262,0,0,0-15.017-3.7c-7.756.832-13.494,4.781-17.561,11.437a24.505,24.505,0,0,0-1.506,22.442,23.263,23.263,0,0,0,17.975,13.349,23.653,23.653,0,0,0,18.127-5.712c4.916-4.291,6.928-10.562,7.562-17.056C485.433,2455.676,484.119,2443.833,475.533,2438.193Zm-8.786,34.118a16.024,16.024,0,0,1-17.529-5.544,12.391,12.391,0,0,1-2.336-5.264,14.328,14.328,0,0,1,.385-5.767,19.256,19.256,0,0,1,7.7-11.531,13.666,13.666,0,0,1,13.491-1.083,16.842,16.842,0,0,1,8.691,14.088A15.72,15.72,0,0,1,466.747,2472.311Z" transform="translate(-439.415 -2434.388)" fill="#4f389f"/>
        </g>
      </g>
      <g id="Grupo_81859" data-name="Grupo 81859" transform="translate(42.266 43.873)" opacity="0.129">
        <path id="Trazado_115246" data-name="Trazado 115246" d="M488.434,2460.034c-.261-.777-.522-1.554-.792-2.329-.5-1.451-1.1-2.868-1.563-4.33a1.318,1.318,0,0,0-.268.032c-1.6.711-.731,1.865-.686,3.317.165,1.427.484,2.83.677,4.251a21.559,21.559,0,0,1,.116,4.315c-.007.026-.018.061-.035.119-.216.8-.573,1.548-.788,2.348a17.894,17.894,0,0,1-3.209,6.957c-.119.147-.3.374-.417.551-.141.247-.682.995-.847,1.231-.046.059-.081.106-.1.136-.081.1-.162.206-.246.306-.238.348-1.421,1.521-1.419,1.572-1.615,1.245-1.459,1.215-3.228,2.506a32.3,32.3,0,0,1-4.133,2.284,19.317,19.317,0,0,1-6.611,1.882,47.861,47.861,0,0,1-6.288-.232c-3.235-.625-3.987-1.172-6.759-2.714-.839-.476-1.638-1.494-2.677-1.312-.015,0-.027.014-.042.019q1.121,1.216,2.266,2.411c.978,1.013,1.98,2,2.987,2.986a25.244,25.244,0,0,0,10.138,1.817,26.689,26.689,0,0,0,5.817-.675,24.6,24.6,0,0,0,9.163-4.743,44.751,44.751,0,0,0,5.734-5.553,24.047,24.047,0,0,0,3.435-11.6A29.377,29.377,0,0,0,488.434,2460.034Z" transform="translate(-449.117 -2453.375)"/>
      </g>
      <g id="Grupo_81860" data-name="Grupo 81860" transform="translate(94.735 60.192)" opacity="0.129">
        <path id="Trazado_115247" data-name="Trazado 115247" d="M526.133,2474.319a1.234,1.234,0,0,0-2.236-.292c-2.221,3.878-4.443,7.754-6.777,11.565a30.99,30.99,0,0,0-2.914,4.605,3.464,3.464,0,0,0-.56,1.329,1.818,1.818,0,0,0,2.7,1.812,2.45,2.45,0,0,0,.92-1.162,4.833,4.833,0,0,0,.555-.651c2.271-3.31,3.387-7.25,5.312-10.757q1.441-2.749,2.873-5.5A1.237,1.237,0,0,0,526.133,2474.319Z" transform="translate(-513.614 -2473.435)"/>
      </g>
      <g id="Grupo_81861" data-name="Grupo 81861" transform="translate(50.222 95.211)" opacity="0.129">
        <path id="Trazado_115248" data-name="Trazado 115248" d="M479.8,2516.56c-.886-.269-1.725.229-2.582.392-5.708,1.584-9.553,1.659-16.1,1.456a2.249,2.249,0,0,0,0,4.5c4.975.14,10.034.206,14.888-1.045,1.142-.266,2.288-.523,3.418-.842a2.593,2.593,0,0,0,1.72-1.156A2.272,2.272,0,0,0,479.8,2516.56Z" transform="translate(-458.897 -2516.482)"/>
      </g>
      <g id="Grupo_81862" data-name="Grupo 81862" transform="translate(39.976 34.871)">
        <path id="Trazado_115249" data-name="Trazado 115249" d="M462.54,2475.537a17.026,17.026,0,0,1-13.565-6.711,13.414,13.414,0,0,1-2.513-5.684,15.139,15.139,0,0,1,.4-6.163,20.315,20.315,0,0,1,8.107-12.113,14.593,14.593,0,0,1,14.48-1.135,17.755,17.755,0,0,1,9.219,14.917,16.772,16.772,0,0,1-11.061,16.07A15.794,15.794,0,0,1,462.54,2475.537Zm.849-31.275a13.428,13.428,0,0,0-7.344,2.237,18.342,18.342,0,0,0-7.284,10.95,13.245,13.245,0,0,0-.369,5.372,11.47,11.47,0,0,0,2.157,4.843,15.148,15.148,0,0,0,16.43,5.2,14.757,14.757,0,0,0,9.734-14.132,15.77,15.77,0,0,0-8.163-13.261h0A11.242,11.242,0,0,0,463.389,2444.261Z" transform="translate(-446.302 -2442.309)"/>
      </g>
      <g id="Grupo_81863" data-name="Grupo 81863" transform="translate(32.642 27.447)">
        <path id="Trazado_115250" data-name="Trazado 115250" d="M460.887,2482.63a22.636,22.636,0,0,1-2.718-.164,24.252,24.252,0,0,1-18.749-13.918,25.371,25.371,0,0,1,1.563-23.353c4.312-7.057,10.467-11.061,18.292-11.9h0a25.361,25.361,0,0,1,15.659,3.855c9.372,6.156,10.291,18.859,10.017,21.673-.775,7.949-3.357,13.739-7.892,17.7A24.907,24.907,0,0,1,460.887,2482.63Zm.554-47.491a18.488,18.488,0,0,0-1.957.1h0c-7.291.783-12.8,4.373-16.831,10.975a23.391,23.391,0,0,0-1.449,21.529,22.255,22.255,0,0,0,17.2,12.779,22.7,22.7,0,0,0,17.366-5.477c4.141-3.615,6.506-8.984,7.23-16.414.339-3.473-1.2-14.627-9.143-19.847A23.607,23.607,0,0,0,461.441,2435.139Zm-2.062-.871h0Z" transform="translate(-437.286 -2433.184)"/>
      </g>
    </g>
    <g id="Grupo_81869" data-name="Grupo 81869" transform="translate(492.085 2481.248)">
      <g id="Grupo_81866" data-name="Grupo 81866">
        <g id="Grupo_81865" data-name="Grupo 81865">
          <path id="Trazado_115251" data-name="Trazado 115251" d="M576.668,2550.477c-2.789-2.158-4.884-2.261-7.192-3.93-.2-2.74-.9-7.43-1.215-10.185,2.612-2.337,3.975-2.9,6.245-4.875a2.143,2.143,0,0,0-.463-1.1c-.561-.872-1.122-1.744-1.708-2.6a51.654,51.654,0,0,0-7.449-8.634c-2.576,2.364-4.706,4.675-6.836,6.984a36.353,36.353,0,0,0-9.828-2.295,74.571,74.571,0,0,0-1.7-9.352,42.451,42.451,0,0,0-13.063,3.986,47.009,47.009,0,0,0,2.464,7.369,73.13,73.13,0,0,0-7.311,7.273c-3.038-1.684-5.554-2.491-8.4-4.1-3.059,4.531-5.141,9.607-5.164,14.86,3.248.416,5.154.285,8.128.5a37.455,37.455,0,0,0,2.865,10.062c-2.419,2.263-3.765,4.269-5.878,6a24.62,24.62,0,0,0,7.92,10.019c2.118-2.249,3.466-3.639,5.4-5.592,2.838,1.105,6.447,2.622,9.488,2.988a32.529,32.529,0,0,1,1.4,7.429,36.225,36.225,0,0,0,14.108-.656c-.405-3.249-.085-5.112-.792-7.911a32.7,32.7,0,0,0,7.162-7.021,43.207,43.207,0,0,1,6.964,2A29.049,29.049,0,0,0,576.668,2550.477Zm-26.629,4.1c-2.061.738-4.129,1.385-9.487-2.056-2.105-1.352-6.649-7.043-1.038-14.134a8.4,8.4,0,0,1,7.641-3.156c2.834.442,5,1.143,6.688,2.594a9.655,9.655,0,0,1,2.925,9.415A10.689,10.689,0,0,1,550.039,2554.573Z" transform="translate(-514.069 -2513.51)" fill="#fff"/>
          <path id="Trazado_115252" data-name="Trazado 115252" d="M549.4,2576.444a34.007,34.007,0,0,1-5.42-.428.979.979,0,0,1-.818-.859l-.045-.407a30.66,30.66,0,0,0-1.132-6.247,43.04,43.04,0,0,1-8.187-2.6l-.3-.119c-1.791,1.817-3.09,3.167-4.927,5.115a.978.978,0,0,1-1.3.113,25.548,25.548,0,0,1-8.234-10.419.978.978,0,0,1,.281-1.139,27.456,27.456,0,0,0,2.969-2.979c.722-.8,1.466-1.628,2.363-2.5a38.464,38.464,0,0,1-2.561-8.894c-.795-.045-1.525-.068-2.236-.091a49.579,49.579,0,0,1-5.156-.361.98.98,0,0,1-.854-.976c.023-5.012,1.817-10.195,5.332-15.4a.979.979,0,0,1,1.293-.3c1.4.794,2.71,1.383,4.1,2.006,1.144.515,2.321,1.045,3.584,1.709a68.97,68.97,0,0,1,5.876-5.825l.516-.473a44.644,44.644,0,0,1-2.259-6.878.978.978,0,0,1,.506-1.1,43.38,43.38,0,0,1,13.365-4.083.977.977,0,0,1,1.095.732,75.894,75.894,0,0,1,1.625,8.692,37.308,37.308,0,0,1,8.679,2.043c1.968-2.133,4.02-4.331,6.445-6.558a.979.979,0,0,1,1.328,0,52.622,52.622,0,0,1,7.59,8.8c.586.852,1.151,1.73,1.7,2.579a3.054,3.054,0,0,1,.646,1.691.984.984,0,0,1-.337.723,35.553,35.553,0,0,1-2.855,2.205,36.421,36.421,0,0,0-3,2.325c.1.874.238,1.9.378,2.966.278,2.128.591,4.516.744,6.282a16.192,16.192,0,0,0,2.563,1.294,18.182,18.182,0,0,1,4.291,2.4.98.98,0,0,1,.359.976,29.849,29.849,0,0,1-5.028,11.584.975.975,0,0,1-1.087.36c-.761-.238-1.406-.46-2.011-.67a27.519,27.519,0,0,0-4.239-1.195,33.875,33.875,0,0,1-6.484,6.362,23.272,23.272,0,0,1,.419,4.054c.042,1.01.086,2.054.245,3.323a.98.98,0,0,1-.745,1.074A39.3,39.3,0,0,1,549.4,2576.444Zm-4.373-2.252a35.086,35.086,0,0,0,12.149-.561c-.093-.972-.129-1.826-.161-2.6a19.584,19.584,0,0,0-.512-4.308.978.978,0,0,1,.384-1.04,31.8,31.8,0,0,0,6.934-6.8.968.968,0,0,1,.96-.388,28.846,28.846,0,0,1,5.131,1.38c.4.138.82.283,1.28.434a27.836,27.836,0,0,0,4.157-9.651,17.277,17.277,0,0,0-3.375-1.79,16.262,16.262,0,0,1-3.3-1.756.985.985,0,0,1-.4-.72c-.129-1.742-.469-4.346-.77-6.643-.169-1.3-.33-2.523-.442-3.5a.983.983,0,0,1,.32-.841,37.254,37.254,0,0,1,3.548-2.793c.727-.52,1.42-1.014,2.221-1.677-.054-.088-.111-.177-.156-.247-.566-.88-1.123-1.746-1.692-2.574a50.808,50.808,0,0,0-6.647-7.847c-2.262,2.132-4.216,4.251-6.111,6.307a.982.982,0,0,1-1.072.25,35.271,35.271,0,0,0-9.564-2.234.98.98,0,0,1-.884-.862,74.122,74.122,0,0,0-1.465-8.357,41.465,41.465,0,0,0-11.188,3.405,46.315,46.315,0,0,0,2.1,6.134l.138.347a.978.978,0,0,1-.246,1.08l-1.014.931a60.846,60.846,0,0,0-6.2,6.24.979.979,0,0,1-1.233.238c-1.465-.813-2.83-1.426-4.15-2.02-1.116-.5-2.264-1.019-3.454-1.649a26.015,26.015,0,0,0-4.483,12.7c1.541.163,2.786.2,4.092.245.959.03,1.952.062,3.1.145a.978.978,0,0,1,.9.855,36.242,36.242,0,0,0,2.792,9.795.979.979,0,0,1-.229,1.1c-1.066,1-1.918,1.943-2.742,2.858a33.694,33.694,0,0,1-2.614,2.7,23.584,23.584,0,0,0,6.629,8.43c1.684-1.78,2.97-3.108,4.8-4.961a.976.976,0,0,1,1.051-.223l.908.356a37.8,37.8,0,0,0,8.342,2.572.979.979,0,0,1,.816.677A30.948,30.948,0,0,1,545.029,2574.193Zm2.005-18.284c-1.767,0-3.937-.676-7.235-2.793a10.017,10.017,0,0,1-4.057-6.506c-.507-3.038.429-6.086,2.781-9.059a9.334,9.334,0,0,1,8.558-3.516c3.341.521,5.487,1.364,7.177,2.819a10.659,10.659,0,0,1,3.238,10.388,11.6,11.6,0,0,1-7.35,8.028h0A8.956,8.956,0,0,1,547.034,2555.908Zm2.781-1.56h0Zm-3.968-18.449a7.591,7.591,0,0,0-5.789,2.867c-1.995,2.521-2.8,5.052-2.385,7.522a8.194,8.194,0,0,0,3.184,5.181c5.046,3.241,6.786,2.618,8.629,1.959h0a9.75,9.75,0,0,0,6.107-6.648,8.658,8.658,0,0,0-2.612-8.443c-1.393-1.2-3.247-1.908-6.2-2.367A6.2,6.2,0,0,0,545.847,2535.9Z" transform="translate(-513.845 -2513.286)"/>
        </g>
      </g>
      <g id="Grupo_81867" data-name="Grupo 81867" transform="translate(29.228 55.378)" opacity="0.129">
        <path id="Trazado_115253" data-name="Trazado 115253" d="M560.351,2581.608c-.051.012-.12.03-.232.062a10.468,10.468,0,0,1-1.224.265c-.124.015-.248.032-.373.042a21.062,21.062,0,0,1-4.83-.192,3.17,3.17,0,0,0-2.112.135,2.993,2.993,0,0,0,.357,5.623,24.888,24.888,0,0,0,8.36.3c.316-.053.737-.122.984-.164a3.278,3.278,0,0,0,3.467-1.951C565.976,2582.9,562.927,2580.577,560.351,2581.608Z" transform="translate(-549.774 -2581.358)"/>
      </g>
      <g id="Grupo_81868" data-name="Grupo 81868" transform="translate(42.067 34.682)" opacity="0.129">
        <path id="Trazado_115254" data-name="Trazado 115254" d="M586.208,2558.338c-.592-3.51-5.279-3.052-5.7.4-.063.214-.145.421-.226.629-.109.235-.259.552-.373.764a21.88,21.88,0,0,1-2.192,3.3,15.579,15.579,0,0,0-2.031,2.594,2.379,2.379,0,0,0-.14,1.763,3.137,3.137,0,0,0-1.177.321,24.207,24.207,0,0,0-5.656,5.646,3.666,3.666,0,0,0-.5,1.758c.034.445.247,1.773.1.707a24.564,24.564,0,0,1,.216,5.035c0,.057-.007.1-.011.148-.011.066-.028.129-.044.193l-.027.046c-.023.026-.048.05-.072.074a4.9,4.9,0,0,1-1.428.512,1.876,1.876,0,0,0,1,3.618c1.847-.455,3.858-1.48,4.177-3.55.288-1.766.038-5.549.15-6.573.045-.068.088-.138.138-.2.225-.256,1.516-1.8,1.854-2.12.217-.294,1.212-1.211,1.354-1.37.09-.065.182-.128.277-.187.585.121,1.169.251,1.757.36a2.629,2.629,0,0,0,2.606-.408,1.973,1.973,0,0,0-.163-2.919,34.3,34.3,0,0,0,5.11-7.036C585.63,2560.732,586.42,2559.567,586.208,2558.338Z" transform="translate(-565.556 -2555.918)"/>
      </g>
    </g>
    <g id="Grupo_81897" data-name="Grupo 81897" transform="translate(921.969 2517.328)">
      <g id="Grupo_81870" data-name="Grupo 81870">
        <path id="Trazado_115255" data-name="Trazado 115255" d="M1064.791,2558.917l52.649.86c2.918.048,6.734.871,7.57,4.167q1.951,44.277,1.673,88.615c-.028,4.42-.433,9.555-4.147,11.98a32.556,32.556,0,0,1-9.708,1.183l-53.249,1.093c-4.693.1-9.9.007-13.426-3.46-1.751-3.255-1.829-7.118-1.865-10.814q-.4-40.429-.8-80.858a28.842,28.842,0,0,1,.85-7.163C1045.9,2558.125,1058.233,2558.81,1064.791,2558.917Z" transform="translate(-1042.503 -2557.863)" fill="#fff"/>
        <path id="Trazado_115256" data-name="Trazado 115256" d="M1057.678,2667.588c-4.573,0-9.14-.517-12.438-3.76a.985.985,0,0,1-.176-.234c-1.905-3.543-1.946-7.648-1.982-11.269l-.8-80.858a29.877,29.877,0,0,1,.879-7.406c1.657-6.755,12.779-6.527,20.134-6.373l1.291.025h0l52.648.86c4.632.076,7.731,1.864,8.5,4.9a1.032,1.032,0,0,1,.029.2c1.294,29.4,1.858,59.233,1.672,88.664-.033,5.108-.61,10.194-4.591,12.792a.97.97,0,0,1-.224.109,33.22,33.22,0,0,1-10,1.233l-53.248,1.094C1058.809,2667.58,1058.243,2667.588,1057.678,2667.588Zm-10.959-5.053c3.163,3.014,7.776,3.178,12.613,3.076l53.25-1.093a32.192,32.192,0,0,0,9.3-1.093c3.115-2.122,3.573-6.584,3.6-11.1.185-29.362-.377-59.124-1.667-88.459-.791-2.82-4.473-3.3-6.613-3.337l-53.949-.885c-6.323-.132-16.908-.35-18.191,4.882a27.887,27.887,0,0,0-.822,6.92l.8,80.858C1045.073,2655.653,1045.111,2659.44,1046.719,2662.535Z" transform="translate(-1042.278 -2557.638)"/>
      </g>
      <g id="Grupo_81871" data-name="Grupo 81871" transform="translate(9.631 10.978)">
        <path id="Trazado_115257" data-name="Trazado 115257" d="M1057.24,2573.526c-2.075.374-1.957,1.528-1.9,3.083q.212,5.615.425,11.231a2.8,2.8,0,0,0,.377,1.568c.671.971,2.331,1.3,3.811,1.443,2.2.207,4.417.213,6.633.22,15.715.046,31.483.09,47.078-1.327a5.624,5.624,0,0,0,2.2-.5,2.8,2.8,0,0,0,1.247-2.24,34.423,34.423,0,0,0,.066-9.968,4.34,4.34,0,0,0-1.692-3.312,8.672,8.672,0,0,0-3.975-1,94.166,94.166,0,0,0-10.61-.286C1096.917,2572.551,1067.387,2571.7,1057.24,2573.526Z" transform="translate(-1054.341 -2571.356)" fill="#fff"/>
        <path id="Trazado_115258" data-name="Trazado 115258" d="M1074.652,2591.842q-4.165,0-8.291-.016c-2.2-.006-4.48-.013-6.72-.224-1.486-.139-3.571-.483-4.524-1.86a3.724,3.724,0,0,1-.552-2.087l-.43-11.386c-.057-1.442-.134-3.418,2.709-3.93h0c7.985-1.436,27.448-1.239,37.907-1.133,2.923.029,5.037.05,5.9.026a95.35,95.35,0,0,1,10.721.289,9.524,9.524,0,0,1,4.435,1.161,5.275,5.275,0,0,1,2.12,3.99,35.433,35.433,0,0,1-.068,10.252,3.754,3.754,0,0,1-1.734,2.945,6.508,6.508,0,0,1-2.594.626C1100.642,2591.666,1087.521,2591.842,1074.652,2591.842Zm-17.635-18.54.173.964c-1.167.209-1.158.438-1.1,1.926l.431,11.388a2.02,2.02,0,0,0,.2,1.048c.248.358.988.828,3.1,1.025,2.152.2,4.384.209,6.543.216,15.442.045,31.41.092,46.987-1.323a5.025,5.025,0,0,0,1.809-.381c.483-.273.644-.77.762-1.537a33.514,33.514,0,0,0,.064-9.685,3.38,3.38,0,0,0-1.265-2.632,8.019,8.019,0,0,0-3.514-.839,94.279,94.279,0,0,0-10.5-.284c-.905.028-3.033.006-5.979-.024-10.4-.106-29.738-.3-37.541,1.1Z" transform="translate(-1054.117 -2571.132)"/>
      </g>
      <g id="Grupo_81872" data-name="Grupo 81872" transform="translate(12.835 46.136)">
        <path id="Trazado_115259" data-name="Trazado 115259" d="M1059.259,2615.722q.189,4.495.378,8.989a1.156,1.156,0,0,0,.335.925,1.691,1.691,0,0,0,1.152.189,48.656,48.656,0,0,1,9.141.228c.574.068,1.316.07,1.527-.388a.946.946,0,0,0,.025-.542c-.352-2.27.09-8.056-1.161-9.379A91.938,91.938,0,0,0,1059.259,2615.722Z" transform="translate(-1058.28 -2614.574)" fill="#fff"/>
        <path id="Trazado_115260" data-name="Trazado 115260" d="M1070.541,2626.841a5.11,5.11,0,0,1-.617-.04,47.865,47.865,0,0,0-8.957-.223,2.584,2.584,0,0,1-1.824-.4,2.1,2.1,0,0,1-.708-1.653l-.377-8.99a.977.977,0,0,1,.911-1.017,93.246,93.246,0,0,1,11.509.02.983.983,0,0,1,.666.3c1.02,1.079,1.158,3.445,1.25,6.931a28.243,28.243,0,0,0,.167,2.971,1.728,1.728,0,0,1-2.019,2.092Zm.1-1.668Zm-6.384-.666a49.614,49.614,0,0,1,5.9.352,2.879,2.879,0,0,0,.446.025c-.106-.8-.135-1.9-.166-3.053-.042-1.568-.115-4.344-.545-5.356a92.133,92.133,0,0,0-9.839-.059l.338,8.031c0,.084.009.15.015.2.119,0,.34-.014.426-.021Q1062.538,2624.507,1064.257,2624.507Z" transform="translate(-1058.056 -2614.35)"/>
      </g>
      <g id="Grupo_81873" data-name="Grupo 81873" transform="translate(34.848 46.158)">
        <path id="Trazado_115261" data-name="Trazado 115261" d="M1086.319,2615.789q.222,4.493.443,8.986a1.156,1.156,0,0,0,.342.923,1.692,1.692,0,0,0,1.153.181,48.74,48.74,0,0,1,9.143.16c.574.065,1.317.061,1.525-.4a.941.941,0,0,0,.021-.542c-.369-2.268.032-8.057-1.229-9.371A92.252,92.252,0,0,0,1086.319,2615.789Z" transform="translate(-1085.34 -2614.602)" fill="#fff"/>
        <path id="Trazado_115262" data-name="Trazado 115262" d="M1097.651,2626.823a5.1,5.1,0,0,1-.583-.035,47.8,47.8,0,0,0-8.959-.158,2.529,2.529,0,0,1-1.827-.383,2.1,2.1,0,0,1-.72-1.647l-.444-8.986a.979.979,0,0,1,.9-1.024,93.35,93.35,0,0,1,11.5-.065,1.013,1.013,0,0,1,.682.3c1.029,1.073,1.183,3.437,1.3,6.921a28.362,28.362,0,0,0,.189,2.971,1.866,1.866,0,0,1-.1,1.1A1.908,1.908,0,0,1,1097.651,2626.823Zm-5.9-2.289a49.8,49.8,0,0,1,5.538.309,2.8,2.8,0,0,0,.447.022c-.112-.8-.15-1.9-.188-3.053-.054-1.568-.147-4.341-.585-5.351a92.3,92.3,0,0,0-9.839.014l.4,8.027c0,.085.009.152.016.2a3.267,3.267,0,0,0,.427-.024C1089.214,2624.582,1090.479,2624.534,1091.746,2624.534Z" transform="translate(-1085.115 -2614.377)"/>
      </g>
      <g id="Grupo_81874" data-name="Grupo 81874" transform="translate(56.933 46.158)">
        <path id="Trazado_115263" data-name="Trazado 115263" d="M1113.466,2615.789q.221,4.493.443,8.986a1.157,1.157,0,0,0,.342.923,1.692,1.692,0,0,0,1.153.181,48.741,48.741,0,0,1,9.143.16c.574.065,1.317.061,1.524-.4a.947.947,0,0,0,.022-.542c-.369-2.268.032-8.057-1.23-9.371A92.237,92.237,0,0,0,1113.466,2615.789Z" transform="translate(-1112.487 -2614.602)" fill="#fff"/>
        <path id="Trazado_115264" data-name="Trazado 115264" d="M1124.8,2626.823a5.126,5.126,0,0,1-.583-.035,47.8,47.8,0,0,0-8.958-.158,2.532,2.532,0,0,1-1.829-.383,2.1,2.1,0,0,1-.719-1.647l-.443-8.986a.979.979,0,0,1,.9-1.024,93.35,93.35,0,0,1,11.5-.065,1.01,1.01,0,0,1,.681.3c1.029,1.073,1.184,3.437,1.3,6.921a28.329,28.329,0,0,0,.189,2.971,1.864,1.864,0,0,1-.094,1.1A1.909,1.909,0,0,1,1124.8,2626.823Zm-5.9-2.289a49.805,49.805,0,0,1,5.538.309,2.793,2.793,0,0,0,.446.022c-.112-.8-.149-1.9-.188-3.053-.054-1.568-.147-4.341-.585-5.351a92.288,92.288,0,0,0-9.839.014l.4,8.027c0,.085.01.152.016.2a2.531,2.531,0,0,0,.426-.024Q1116.99,2624.533,1118.893,2624.534Z" transform="translate(-1112.263 -2614.377)"/>
      </g>
      <g id="Grupo_81875" data-name="Grupo 81875" transform="translate(13.916 64.394)">
        <path id="Trazado_115265" data-name="Trazado 115265" d="M1060.588,2638.166q.189,4.494.377,8.989a1.158,1.158,0,0,0,.335.926,1.7,1.7,0,0,0,1.152.189,48.606,48.606,0,0,1,9.141.228c.574.068,1.317.07,1.528-.388a.944.944,0,0,0,.025-.542c-.352-2.27.09-8.057-1.161-9.379A92.131,92.131,0,0,0,1060.588,2638.166Z" transform="translate(-1059.609 -2637.018)" fill="#fff"/>
        <path id="Trazado_115266" data-name="Trazado 115266" d="M1071.87,2649.284a5.221,5.221,0,0,1-.618-.04,47.782,47.782,0,0,0-8.956-.223,2.589,2.589,0,0,1-1.826-.4,2.108,2.108,0,0,1-.708-1.653l-.377-8.989a.979.979,0,0,1,.911-1.018,93.386,93.386,0,0,1,11.51.021.976.976,0,0,1,.666.3c1.021,1.079,1.158,3.443,1.25,6.929a28.185,28.185,0,0,0,.167,2.972,1.858,1.858,0,0,1-.1,1.1A1.89,1.89,0,0,1,1071.87,2649.284Zm-6.284-2.334a49.841,49.841,0,0,1,5.9.351,3.008,3.008,0,0,0,.445.026c-.106-.8-.135-1.9-.166-3.056-.042-1.567-.115-4.341-.545-5.353a91.928,91.928,0,0,0-9.838-.059l.338,8.03c0,.084.008.151.014.2.1,0,.34-.015.426-.02Q1063.867,2646.95,1065.586,2646.951Z" transform="translate(-1059.385 -2636.794)"/>
      </g>
      <g id="Grupo_81876" data-name="Grupo 81876" transform="translate(35.93 64.416)">
        <path id="Trazado_115267" data-name="Trazado 115267" d="M1087.648,2638.233q.222,4.493.443,8.986a1.158,1.158,0,0,0,.342.923,1.694,1.694,0,0,0,1.153.181,48.618,48.618,0,0,1,9.143.161c.574.065,1.317.061,1.524-.4a.955.955,0,0,0,.021-.543c-.369-2.266.032-8.057-1.23-9.37A92.047,92.047,0,0,0,1087.648,2638.233Z" transform="translate(-1086.67 -2637.045)" fill="#fff"/>
        <path id="Trazado_115268" data-name="Trazado 115268" d="M1098.979,2649.267a5.408,5.408,0,0,1-.583-.035,47.657,47.657,0,0,0-8.959-.158,2.541,2.541,0,0,1-1.827-.383,2.1,2.1,0,0,1-.72-1.649l-.443-8.984a.979.979,0,0,1,.9-1.025,93.756,93.756,0,0,1,11.5-.065,1.015,1.015,0,0,1,.68.3c1.03,1.072,1.184,3.438,1.3,6.923a28.594,28.594,0,0,0,.188,2.969,1.867,1.867,0,0,1-.094,1.1A1.91,1.91,0,0,1,1098.979,2649.267Zm-5.9-2.29a49.516,49.516,0,0,1,5.538.31,3.057,3.057,0,0,0,.445.021c-.111-.8-.148-1.9-.188-3.051-.053-1.568-.146-4.343-.585-5.353a92.2,92.2,0,0,0-9.838.014l.4,8.027c0,.093.01.156.015.2.107,0,.341-.017.427-.023C1090.544,2647.026,1091.809,2646.978,1093.076,2646.978Z" transform="translate(-1086.445 -2636.821)"/>
      </g>
      <g id="Grupo_81877" data-name="Grupo 81877" transform="translate(15.396 82.651)">
        <path id="Trazado_115269" data-name="Trazado 115269" d="M1062.408,2660.61q.189,4.494.378,8.988a1.157,1.157,0,0,0,.335.925,1.692,1.692,0,0,0,1.151.191,48.634,48.634,0,0,1,9.141.228c.574.068,1.317.07,1.527-.388a.946.946,0,0,0,.026-.543c-.352-2.27.09-8.057-1.162-9.38A92.03,92.03,0,0,0,1062.408,2660.61Z" transform="translate(-1061.428 -2659.461)" fill="#fff"/>
        <path id="Trazado_115270" data-name="Trazado 115270" d="M1073.689,2671.729a5.272,5.272,0,0,1-.617-.04,47.844,47.844,0,0,0-8.957-.223,2.587,2.587,0,0,1-1.824-.4,2.1,2.1,0,0,1-.708-1.654l-.378-8.989a.979.979,0,0,1,.911-1.018,93.111,93.111,0,0,1,11.5.02,1.012,1.012,0,0,1,.678.305c1.022,1.08,1.158,3.446,1.251,6.932a28,28,0,0,0,.166,2.97,1.727,1.727,0,0,1-2.019,2.093Zm-6.283-2.334a49.722,49.722,0,0,1,5.9.351,3.017,3.017,0,0,0,.445.026c-.106-.8-.134-1.9-.164-3.053-.041-1.568-.115-4.344-.547-5.357a92.231,92.231,0,0,0-9.838-.058l.338,8.03c0,.084.008.151.014.2.1,0,.341-.014.426-.02Q1065.686,2669.394,1067.406,2669.395Z" transform="translate(-1061.204 -2659.236)"/>
      </g>
      <g id="Grupo_81878" data-name="Grupo 81878" transform="translate(37.41 82.674)">
        <path id="Trazado_115271" data-name="Trazado 115271" d="M1089.468,2660.677q.221,4.493.443,8.985a1.158,1.158,0,0,0,.342.923,1.692,1.692,0,0,0,1.153.181,48.617,48.617,0,0,1,9.143.16c.574.064,1.317.061,1.524-.4a.948.948,0,0,0,.022-.543c-.369-2.267.032-8.057-1.23-9.37A92,92,0,0,0,1089.468,2660.677Z" transform="translate(-1088.489 -2659.489)" fill="#fff"/>
        <path id="Trazado_115272" data-name="Trazado 115272" d="M1100.8,2671.711a5.129,5.129,0,0,1-.583-.036,47.785,47.785,0,0,0-8.958-.157,2.541,2.541,0,0,1-1.828-.383,2.1,2.1,0,0,1-.72-1.647l-.443-8.986a.979.979,0,0,1,.9-1.025,93.6,93.6,0,0,1,11.5-.065,1.016,1.016,0,0,1,.681.3c1.029,1.071,1.184,3.436,1.3,6.92a28.147,28.147,0,0,0,.189,2.971,1.865,1.865,0,0,1-.1,1.1A1.908,1.908,0,0,1,1100.8,2671.711Zm-5.9-2.29a49.587,49.587,0,0,1,5.535.31,2.766,2.766,0,0,0,.446.022c-.111-.8-.149-1.9-.188-3.054-.054-1.567-.147-4.34-.585-5.349a92.283,92.283,0,0,0-9.839.014l.4,8.027c0,.084.01.151.016.2a3.027,3.027,0,0,0,.427-.024C1092.365,2669.469,1093.632,2669.421,1094.9,2669.421Z" transform="translate(-1088.265 -2659.265)"/>
      </g>
      <g id="Grupo_81879" data-name="Grupo 81879" transform="translate(57.906 64.299)">
        <path id="Trazado_115273" data-name="Trazado 115273" d="M1114.662,2638.276c.338,9.376.392,18.763.651,28.614,3.448-.247,6.916-.239,10.149-.272.321-9.576-.474-17.612-.1-28.644C1122.067,2637.935,1118.211,2637.661,1114.662,2638.276Z" transform="translate(-1113.683 -2636.901)" fill="#4f389f"/>
        <path id="Trazado_115274" data-name="Trazado 115274" d="M1115.089,2667.644a.978.978,0,0,1-.978-.953c-.106-4.033-.179-8.029-.25-11.893-.1-5.749-.2-11.177-.4-16.71a.979.979,0,0,1,.811-1,45.756,45.756,0,0,1,8.857-.359c.69.017,1.365.034,2.017.042a.979.979,0,0,1,.966,1.012c-.19,5.681-.071,10.567.046,15.293.11,4.475.214,8.7.058,13.351a.978.978,0,0,1-.968.945l-1.411.013c-2.829.023-5.756.048-8.678.257Zm.358-28.756c.179,5.249.273,10.419.373,15.875.064,3.535.129,7.18.222,10.86,2.636-.153,5.245-.174,7.779-.2l.467,0c.112-4.23.015-8.158-.086-12.3-.11-4.477-.224-9.1-.076-14.413l-1.046-.025A48.864,48.864,0,0,0,1115.446,2638.888Z" transform="translate(-1113.459 -2636.677)"/>
      </g>
      <g id="Grupo_81880" data-name="Grupo 81880" transform="translate(32.107 14.362)">
        <path id="Trazado_115275" data-name="Trazado 115275" d="M1082.072,2587.807a.326.326,0,0,1-.288-.48,114.973,114.973,0,0,1,7.3-11.9.326.326,0,1,1,.534.374,114.379,114.379,0,0,0-7.26,11.829A.327.327,0,0,1,1082.072,2587.807Z" transform="translate(-1081.745 -2575.292)"/>
      </g>
      <g id="Grupo_81881" data-name="Grupo 81881" transform="translate(37.839 14.45)">
        <path id="Trazado_115276" data-name="Trazado 115276" d="M1089.118,2588.662a.322.322,0,0,1-.162-.043.326.326,0,0,1-.122-.445c2.458-4.307,5.147-8.558,7.992-12.635a.326.326,0,0,1,.535.374c-2.833,4.061-5.512,8.294-7.96,12.585A.327.327,0,0,1,1089.118,2588.662Z" transform="translate(-1088.791 -2575.4)"/>
      </g>
      <g id="Grupo_81882" data-name="Grupo 81882" transform="translate(48.784 15.508)">
        <path id="Trazado_115277" data-name="Trazado 115277" d="M1102.572,2589.124a.325.325,0,0,1-.285-.484l6.517-11.771a.326.326,0,1,1,.57.316l-6.517,11.771A.324.324,0,0,1,1102.572,2589.124Z" transform="translate(-1102.245 -2576.7)"/>
      </g>
      <g id="Grupo_81883" data-name="Grupo 81883" transform="translate(10.724 12.133)" opacity="0.129">
        <path id="Trazado_115278" data-name="Trazado 115278" d="M1116.875,2575.947c-.109-1.256-2.9-2.362-3.859-2.5-6.8-1.076-13.716-.633-20.573-.644-2.041-.031-4.079.043-6.114.152-3.876-.084-7.744-.429-11.62-.4-3.681.041-7.35.408-11.031.467a27.29,27.29,0,0,0-4.956.775,6.717,6.717,0,0,0-1.681.614.979.979,0,0,0-1.355.318,9.3,9.3,0,0,0-.224,2.843c.032,1.444.094,2.89.209,4.33a35.912,35.912,0,0,0,1.376,7.935,1.029,1.029,0,0,0,1.919-.689c-.1-2.513-.238-5.027-.561-7.524-.1-.712-.181-1.427-.262-2.142.238-.92.508-1.831.822-2.729,7.483-.063,14.95-.846,22.435-.834,7.367-.154,14.721.3,22.08.566,3.653.118,7.281.668,10.934.816a10.676,10.676,0,0,1,1.376.07.181.181,0,0,0,.057.008.96.96,0,0,0,.8-.064A.9.9,0,0,0,1116.875,2575.947Z" transform="translate(-1055.461 -2572.552)"/>
      </g>
      <g id="Grupo_81886" data-name="Grupo 81886" transform="translate(76.206 1.762)">
        <g id="Grupo_81884" data-name="Grupo 81884" opacity="0.129">
          <path id="Trazado_115279" data-name="Trazado 115279" d="M1144.4,2632.947c.026-3.164-.277-6.313-.488-9.465-.107-6.694-.339-13.384-.461-20.078-.26-9.432-.792-18.854-1.11-28.286-.144-3.15-.237-6.308-.609-9.442-.119-1.077-.3-2.145-.495-3.211a.814.814,0,0,0-.372-.482.75.75,0,0,0-.613-.068c-.013-.01-.022-.022-.036-.032a.755.755,0,0,0-.637-.06,12.183,12.183,0,0,0-1.952-1.576c-.336-.21-.679-.549-1.107-.414a.786.786,0,0,0-.188,1.423.637.637,0,0,0,.087.268c2.756,3.483,3.016,7.221,3.264,11.511.119,1.581.253,3.162.373,4.743-.01,1.072-.037,2.145-.039,3.216.072,3.148.109,6.3.037,9.443-.051,5.2.412,10.387.555,15.583.19,2.974.229,5.949.208,8.928.023,2.577.107,5.154-.009,7.73-.129,3.967-.009,7.938.014,11.906-.01,3.056-.156,6.111-.012,9.166.032,2.909.532,5.8.391,8.713-.444,3.73-.264,6.44-1.51,9.741-.019.05-.039.1-.059.15.039-.089.071-.149,0-.006,0,.01-.01.019-.014.028-.012.031-.024.061-.037.091.009-.025.02-.054.032-.082a6.177,6.177,0,0,1-.36.669c-.049.071-.162.236-.22.324l-.1.12a.88.88,0,0,0-.224.33.9.9,0,0,0,1.063,1.216,3.651,3.651,0,0,0,1.572-1.834c1.259-2.781,1.293-5.879,1.608-8.864.041-.284.073-.568.1-.852a.986.986,0,0,0,.744-.469,7.569,7.569,0,0,0,.245-2.118c.2-2.6-.182-5.193-.167-7.793C1143.907,2639.72,1144.375,2636.345,1144.4,2632.947Z" transform="translate(-1135.954 -2559.804)"/>
        </g>
        <g id="Grupo_81885" data-name="Grupo 81885" transform="translate(3.662 102.552)" opacity="0.129">
          <path id="Trazado_115280" data-name="Trazado 115280" d="M1140.47,2685.866l-.014.031,0-.009Z" transform="translate(-1140.456 -2685.866)"/>
        </g>
      </g>
      <g id="Grupo_81889" data-name="Grupo 81889" transform="translate(57.913 47.246)">
        <g id="Grupo_81887" data-name="Grupo 81887" transform="translate(13.248 12.269)" opacity="0.129">
          <path id="Trazado_115281" data-name="Trazado 115281" d="M1129.781,2630.8l-.028.011C1129.786,2630.8,1129.807,2630.792,1129.781,2630.8Z" transform="translate(-1129.753 -2630.796)"/>
        </g>
        <g id="Grupo_81888" data-name="Grupo 81888" opacity="0.129">
          <path id="Trazado_115282" data-name="Trazado 115282" d="M1127.684,2618.067a2.758,2.758,0,0,0-.486-1.544,1.677,1.677,0,0,0-.405-.456l-.036-.046-.057-.067c-.059-.067.089.124.073.1h0a.689.689,0,0,0-.409-.314.7.7,0,0,0-.718,1.1,1.562,1.562,0,0,0,.062.209.87.87,0,0,0-.328.865,32.717,32.717,0,0,1,.706,7.215l0,.016a2.136,2.136,0,0,1-.169.287l-.032.032c-.044.027-.1.06-.15.087l-.046.018a1.452,1.452,0,0,0-.146.037l0,0a.9.9,0,0,0-.149.031.241.241,0,0,0-.068.008c-.022,0-.043,0-.065.008l-.1.008c-.093.006-.184.023-.276.036.147-.021.355-.044.08-.016-.125.013-.19.022-.213.028-.87.013-1.752.207-2.628.193-2.276.205-4.6.02-6.866.23-.324-.3-.544-.779-1.034-.772a.764.764,0,0,0-.536,1.293,5.437,5.437,0,0,0,.633.663.921.921,0,0,0,.918.715l.375-.008a18.315,18.315,0,0,0,2.488.532,14.692,14.692,0,0,0,3.631.183,13.987,13.987,0,0,0,4.02-.433,4.3,4.3,0,0,0,.837-.264l-.009,0,.012-.005c.041-.017.083-.031.124-.049l-.07.024a1.535,1.535,0,0,0,.685-.574c.708-1.555.511-3.356.587-5.026A36.758,36.758,0,0,0,1127.684,2618.067Z" transform="translate(-1113.468 -2615.714)"/>
        </g>
      </g>
      <g id="Grupo_81890" data-name="Grupo 81890" transform="translate(59.347 65.036)" opacity="0.129">
        <path id="Trazado_115283" data-name="Trazado 115283" d="M1128.023,2659.536c-.273-3.226-.177-6.47-.355-9.7-.187-3.762-.146-7.531-.266-11.295a.973.973,0,0,0-1.947,0c.1,6.192.3,12.381.484,18.57.055,2.105.338,4.2.353,6.3a15.6,15.6,0,0,1-.182,3.155c-.027.119-.044.239-.059.36h0c.006-.04.012-.083.015-.113s.008-.019,0,0c0-.039,0-.051-.016.019-.007.024-.017.047-.026.07l-.011.023c-.455-.079-.887-.25-1.334-.359a5.359,5.359,0,0,0-1.949-.044c-1.04.1-2.075.235-3.108.4a17.407,17.407,0,0,1-1.876.125,1.734,1.734,0,0,0-.721.075,5.246,5.246,0,0,0-.953-.459.751.751,0,0,0-.479,1.386,4.186,4.186,0,0,0,.713.416.761.761,0,0,0,.509.423,24.764,24.764,0,0,0,3.266.672,18.989,18.989,0,0,0,3.291-.119,9.525,9.525,0,0,0,3.191-.811c.385-.174.862-.441.977-.871a3.29,3.29,0,0,0,.164-.342c0-.008.018-.038.045-.106a8.15,8.15,0,0,0,.495-3.251C1128.233,2662.547,1128.154,2661.039,1128.023,2659.536Z" transform="translate(-1115.23 -2637.583)"/>
      </g>
      <g id="Grupo_81891" data-name="Grupo 81891" transform="translate(38.435 85.264)" opacity="0.129">
        <path id="Trazado_115284" data-name="Trazado 115284" d="M1103.3,2663.739c-.293-.709-.339-1.581-1.385-1.2-.609.519-.33.719-.252,1.3a9.51,9.51,0,0,1,.264,1.461,21.057,21.057,0,0,1,.2,4c.011,1.3-.053,1.65-.275,1.879-.031.03-.06.057-.085.08-.01.007-.014.012-.013.012l0,0-.018.007-.01,0c-.046.015-.093.033-.14.045a59.972,59.972,0,0,1-8.159-.284,5.664,5.664,0,0,1-2.282-.7,1.3,1.3,0,0,0-.99-.253.869.869,0,0,0-.206,1.576,13.156,13.156,0,0,0,6.554,1.533c1.085.026,2.171.107,3.257.077a10.573,10.573,0,0,0,1.69-.24,2.5,2.5,0,0,0,1.23-.549c-.335.252.072-.032.185-.135a2.505,2.505,0,0,0,.537-.73,8.9,8.9,0,0,0,.473-3.09A12.682,12.682,0,0,0,1103.3,2663.739Z" transform="translate(-1089.524 -2662.448)"/>
      </g>
      <g id="Grupo_81892" data-name="Grupo 81892" transform="translate(37.099 68.403)" opacity="0.129">
        <path id="Trazado_115285" data-name="Trazado 115285" d="M1101.621,2643.4c-.165-.582-.069-1.568-.853-1.663a.751.751,0,0,0-.848.807c.045,1.186.974,4.4.452,5.98l0,0-.017.017c-.04.025-.081.047-.114.064-.1.032-.205.056-.232.064-1.455.248-5-.139-7.266-.136-.955.016-1.911.026-2.865,0a4.285,4.285,0,0,0-1.409.056.972.972,0,0,0,.375,1.863c2.868.052,5.734.027,8.6.185,2.712,0,4.477-.207,4.656-2.8A17.436,17.436,0,0,0,1101.621,2643.4Z" transform="translate(-1087.882 -2641.722)"/>
      </g>
      <g id="Grupo_81893" data-name="Grupo 81893" transform="translate(35.535 49.149)" opacity="0.129">
        <path id="Trazado_115286" data-name="Trazado 115286" d="M1100.825,2624.448c-.123-1.01-.135-2.029-.22-3.042a12.572,12.572,0,0,0-.331-2.329c-.187-.594-.069-.4-.277-.706a.7.7,0,0,0-.529-.305.8.8,0,0,0-.888.58,2.81,2.81,0,0,0,.151,1.09,8.481,8.481,0,0,1,.2,1.748c.057.865-.039,1.732.006,2.6a14.634,14.634,0,0,1,.066,1.751,1.981,1.981,0,0,1-.077.26l-.048.085-.018.026c-.022.024-.043.05-.067.072a1.3,1.3,0,0,1-.134.072,13.664,13.664,0,0,1-3.8.178c-1.712-.045-3.431.046-5.136-.145-.241-.03.055.009.146.021-1.023-.056-2.181-.739-3.079-.75a.973.973,0,0,0-.129,1.9,19.075,19.075,0,0,0,7.489.905c1.8-.038,3.742.325,5.444-.412C1100.911,2627.376,1101.025,2625.75,1100.825,2624.448Z" transform="translate(-1085.959 -2618.053)"/>
      </g>
      <g id="Grupo_81894" data-name="Grupo 81894" transform="translate(13.736 48.556)" opacity="0.129">
        <path id="Trazado_115287" data-name="Trazado 115287" d="M1074.164,2623.223a26.737,26.737,0,0,0-.49-3.12c-.124-.5-.646-2-.517-1.625-.3-.646-.349-1.423-1.38-1.061-.6.509-.351.71-.269,1.188.062.249.115.511.234,1.213a29.914,29.914,0,0,1,.52,4.5,3.342,3.342,0,0,1-.382,1.581l-.035.054a2.009,2.009,0,0,1-.225.23l-.053.033c-.021.011-.043.02-.064.03a4.555,4.555,0,0,1-.441.129,42.02,42.02,0,0,1-7.121-.039c-1.329-.151-2.615-.7-3.949-.744a.972.972,0,0,0-.129,1.895c1.614.264,3.182.774,4.822.877a42.39,42.39,0,0,0,6.75-.094C1073.824,2627.961,1074.391,2625.244,1074.164,2623.223Z" transform="translate(-1059.163 -2617.325)"/>
      </g>
      <g id="Grupo_81895" data-name="Grupo 81895" transform="translate(14.914 66.866)" opacity="0.129">
        <path id="Trazado_115288" data-name="Trazado 115288" d="M1075.253,2645.087a12.652,12.652,0,0,0-.937-4.649l-.032-.046a.73.73,0,0,0-.037-.068c-.042-.061-.083-.122-.129-.18v0h0c-.019-.023-.036-.047-.056-.068.006.008.012.019.018.029a.774.774,0,0,0-.791-.242c-.773.355-.578.831-.505,1.206l-.006-.044c.05.281.216.866.212,1.027a44.884,44.884,0,0,1,.4,4.6,3.312,3.312,0,0,1-.181,1.692,2.464,2.464,0,0,1-.156.275,1.52,1.52,0,0,1-.917.664,43.335,43.335,0,0,1-7.532-.058c-.969-.161-1.542-.829-2.9-1.306a.972.972,0,0,0-.621,1.8,11.8,11.8,0,0,0,3.286,1.443,46.1,46.1,0,0,0,7.244.125,4.335,4.335,0,0,0,1.769-.391,3.967,3.967,0,0,0,1.708-2.035A10.7,10.7,0,0,0,1075.253,2645.087Z" transform="translate(-1060.611 -2639.832)"/>
      </g>
      <g id="Grupo_81896" data-name="Grupo 81896" transform="translate(16.775 85.954)" opacity="0.129">
        <path id="Trazado_115289" data-name="Trazado 115289" d="M1077.681,2669.134a19.3,19.3,0,0,0-.324-3.63c-.345-1.106-.316-2.386-1.623-2.187-1.283.441-.391,1.772-.252,2.672a15.8,15.8,0,0,1,.259,3.108c-.025,1.442-.048,1.7-.509,2.221a53.851,53.851,0,0,1-8.461.324,4.677,4.677,0,0,1-1.509-.443c-.435-.172-.8-.542-1.271-.611a.972.972,0,0,0-.621,1.8,9.344,9.344,0,0,0,5.99,1.252,48.277,48.277,0,0,0,5.86-.326C1077.231,2673.132,1077.768,2670.822,1077.681,2669.134Z" transform="translate(-1062.899 -2663.297)"/>
      </g>
    </g>
    <g id="Grupo_81898" data-name="Grupo 81898" transform="translate(639.486 2703.758)">
      <circle id="Elipse_4860" data-name="Elipse 4860" cx="5.291" cy="5.291" r="5.291" transform="translate(0.978 0.979)" fill="#fff"/>
      <path id="Trazado_115290" data-name="Trazado 115290" d="M701.307,2799.345a6.27,6.27,0,1,1,6.27-6.271A6.277,6.277,0,0,1,701.307,2799.345Zm0-10.583a4.312,4.312,0,1,0,4.312,4.312A4.317,4.317,0,0,0,701.307,2788.762Z" transform="translate(-695.037 -2786.805)"/>
    </g>
    <g id="Grupo_81899" data-name="Grupo 81899" transform="translate(632.841 2502.237)">
      <path id="Trazado_115291" data-name="Trazado 115291" d="M688.072,2545.581a5.291,5.291,0,1,1,5.291,5.291A5.291,5.291,0,0,1,688.072,2545.581Z" transform="translate(-687.093 -2539.311)" fill="#fff"/>
      <path id="Trazado_115292" data-name="Trazado 115292" d="M693.139,2551.627a6.27,6.27,0,1,1,6.271-6.271A6.277,6.277,0,0,1,693.139,2551.627Zm0-10.583a4.313,4.313,0,1,0,4.312,4.313A4.317,4.317,0,0,0,693.139,2541.044Z" transform="translate(-686.869 -2539.087)"/>
    </g>
    <g id="Grupo_81900" data-name="Grupo 81900" transform="translate(649.132 2584.046)">
      <path id="Trazado_115293" data-name="Trazado 115293" d="M714.687,2676.533a.957.957,0,0,1-.371-.073.974.974,0,0,1-.561-.6l-6.813-21.2a.979.979,0,0,1,.484-1.17l26.715-13.727a.973.973,0,0,1,.8-.042.983.983,0,0,1,.563.576l7.506,20.567a.979.979,0,0,1-.465,1.2l-27.408,14.358A.983.983,0,0,1,714.687,2676.533Zm-5.627-21.685,6.2,19.3,25.618-13.421-6.832-18.72Z" transform="translate(-706.895 -2639.65)"/>
    </g>
    <g id="Grupo_81901" data-name="Grupo 81901" transform="translate(657.664 2588.524)">
      <path id="Trazado_115294" data-name="Trazado 115294" d="M717.708,2672.72a.326.326,0,0,1-.277-.5l16.68-26.914a.326.326,0,0,1,.555.344l-16.68,26.914A.326.326,0,0,1,717.708,2672.72Z" transform="translate(-717.382 -2645.155)"/>
    </g>
    <g id="Grupo_81902" data-name="Grupo 81902" transform="translate(656.555 2591.804)">
      <path id="Trazado_115295" data-name="Trazado 115295" d="M716.345,2667.551a.327.327,0,0,1-.279-.495c3.66-6.044,7.606-12.01,11.729-17.732a.326.326,0,1,1,.529.38c-4.112,5.709-8.049,11.661-11.7,17.689A.325.325,0,0,1,716.345,2667.551Z" transform="translate(-716.019 -2649.187)"/>
    </g>
    <g id="Grupo_81903" data-name="Grupo 81903" transform="translate(654.834 2594.96)">
      <path id="Trazado_115296" data-name="Trazado 115296" d="M714.23,2663.658a.322.322,0,0,1-.181-.055.327.327,0,0,1-.089-.453c2.3-3.423,4.784-6.776,7.4-9.963a.326.326,0,0,1,.5.412c-2.6,3.173-5.075,6.508-7.359,9.914A.326.326,0,0,1,714.23,2663.658Z" transform="translate(-713.904 -2653.066)"/>
    </g>
    <g id="Grupo_81904" data-name="Grupo 81904" transform="translate(653.131 2597.955)">
      <path id="Trazado_115297" data-name="Trazado 115297" d="M712.136,2660.677a.326.326,0,0,1-.252-.532,36.349,36.349,0,0,1,3.066-3.307.326.326,0,1,1,.45.473,35.933,35.933,0,0,0-3.012,3.247A.322.322,0,0,1,712.136,2660.677Z" transform="translate(-711.81 -2656.748)"/>
    </g>
    <g id="Grupo_81905" data-name="Grupo 81905" transform="translate(663.995 2594.368)">
      <path id="Trazado_115298" data-name="Trazado 115298" d="M725.491,2671.052a.32.32,0,0,1-.186-.059.327.327,0,0,1-.081-.455c4.16-5.966,8.3-12.04,12.293-18.055a.326.326,0,1,1,.543.361c-4,6.019-8.138,12.1-12.3,18.067A.326.326,0,0,1,725.491,2671.052Z" transform="translate(-725.165 -2652.338)"/>
    </g>
    <g id="Grupo_81906" data-name="Grupo 81906" transform="translate(671.631 2599.03)">
      <path id="Trazado_115299" data-name="Trazado 115299" d="M734.878,2668.079a.323.323,0,0,1-.176-.051.326.326,0,0,1-.1-.45,105.229,105.229,0,0,1,6.718-9.387.326.326,0,0,1,.508.408,104.7,104.7,0,0,0-6.676,9.33A.325.325,0,0,1,734.878,2668.079Z" transform="translate(-734.551 -2658.069)"/>
    </g>
    <g id="Grupo_81907" data-name="Grupo 81907" transform="translate(677.532 2601.824)">
      <path id="Trazado_115300" data-name="Trazado 115300" d="M742.132,2665.74a.32.32,0,0,1-.2-.067.324.324,0,0,1-.062-.456l2.731-3.584a.326.326,0,1,1,.519.4l-2.731,3.583A.325.325,0,0,1,742.132,2665.74Z" transform="translate(-741.806 -2661.504)"/>
    </g>
    <g id="Grupo_81908" data-name="Grupo 81908" transform="translate(718.859 2643.986)" opacity="0.129">
      <path id="Trazado_115301" data-name="Trazado 115301" d="M919.212,2738.5a1.629,1.629,0,0,0-1.934-.949c-.565.144-.918.636-1.342,1-.155.189-1.323,1.153-1.7,1.466a18.439,18.439,0,0,1-6.413,3.317,52.025,52.025,0,0,1-11.366,1.386,72.725,72.725,0,0,1-17.712-.817,141.548,141.548,0,0,1-16.4-4.428c-8.985-2.487-17.789-5.573-26.515-8.845-13.734-5.162-21.613-8.711-35.515-14.977-1.334-.631-2.652-1.3-3.962-1.975a2.512,2.512,0,1,0-2.536,4.338c5.721,3.033,11.751,5.406,17.638,8.087a365.6,365.6,0,0,0,44.413,16.42c8.578,2.268,17.086,5.087,25.97,5.881a78.041,78.041,0,0,0,14.98-.037,47.314,47.314,0,0,0,12.807-2.134,23.543,23.543,0,0,0,7.639-4.482C918.16,2740.876,919.865,2739.957,919.212,2738.5Z" transform="translate(-792.606 -2713.331)"/>
    </g>
    <g id="Grupo_81909" data-name="Grupo 81909" transform="translate(729.701 2550.532)" opacity="0.129">
      <path id="Trazado_115302" data-name="Trazado 115302" d="M856.2,2605.774a.933.933,0,0,1-.946.182c-.216.183-.427.358-.63.517-4.152,3.208-8.3,2.669-13.892,1.582a26.393,26.393,0,0,1-3.5-.743,3.582,3.582,0,0,0-3.315-.1,11.829,11.829,0,0,0-1.375,1.2c-1.839,1.191-2.066,1.158-4.631,1.637a31.613,31.613,0,0,1-7-.044,24.786,24.786,0,0,1-2.7-.59.992.992,0,0,1-.1.733,1.024,1.024,0,0,1-1.356.355c-4.064-1.759-7.329-4.613-10.432-7.663a1.6,1.6,0,0,0-.393.256c1.7,2.3,3.374,4.625,5.27,6.772.22.248.444.488.668.729a16.334,16.334,0,0,0,5.027,2.707c6.155,1.973,14.62,1.666,18.609-1.676.039-.029.072-.066.109-.1.136.059.268.121.408.174a41.115,41.115,0,0,0,5.632,1.392,23.191,23.191,0,0,0,6.048.573c5.309-.57,9.733-3.962,13.385-7.712.271-.6.54-1.193.793-1.8.785-1.877,1.485-3.785,2.114-5.717A75.645,75.645,0,0,1,856.2,2605.774Z" transform="translate(-805.934 -2598.453)"/>
    </g>
    <g id="Grupo_81910" data-name="Grupo 81910" transform="translate(712.392 2455.086)" opacity="0.129">
      <path id="Trazado_115303" data-name="Trazado 115303" d="M837.529,2484.12a2.278,2.278,0,0,0-1.712-.214c-.1.026-.18.047-.252.064a8.022,8.022,0,0,1-3-.279,9.6,9.6,0,0,1-2.425-1.21c-1.68-1.917-3.164-1.778-4.566.276a22.6,22.6,0,0,1-5.546,4.884,68.5,68.5,0,0,1-11.077,5.4,75.268,75.268,0,0,1-12.4,2.89,41.657,41.657,0,0,1-5.3.407l-.19-.02c-.125-.021-.251-.039-.374-.071-.233-.059-.463-.129-.69-.205-.045-.025-.086-.054-.129-.082-1.084-1.058-.539-.814-1.4-2.155a2.125,2.125,0,0,0-3.724,1.855c2,5.821,7.061,5.279,13.276,4.309,5.692-1.135,11.395-2.389,16.64-4.958a43.333,43.333,0,0,0,12.082-7.423,15.378,15.378,0,0,0,1.367-1.456,10.741,10.741,0,0,0,7.178,2.013,3.2,3.2,0,0,0,2.464-.43A2.175,2.175,0,0,0,837.529,2484.12Z" transform="translate(-784.656 -2481.126)"/>
    </g>
    <g id="Grupo_81911" data-name="Grupo 81911" transform="translate(869.707 2463.568)" opacity="0.129">
      <path id="Trazado_115304" data-name="Trazado 115304" d="M1000.471,2493.39a9.141,9.141,0,0,1-2.738,1.265c-5.046,1.617-7.3,1.131-12.942-.99a26.1,26.1,0,0,1-3.521-1.617,2.269,2.269,0,0,0-1.873-.424,1.9,1.9,0,0,0-.451,3.443,37.677,37.677,0,0,0,12.048,4.271,18.249,18.249,0,0,0,7.411-.928c1.726-.7,5.318-1.848,5.457-4A1.867,1.867,0,0,0,1000.471,2493.39Z" transform="translate(-978.035 -2491.553)"/>
    </g>
    <g id="Grupo_81912" data-name="Grupo 81912" transform="translate(925.647 2623.114)" opacity="0.129">
      <path id="Trazado_115305" data-name="Trazado 115305" d="M1084.014,2689.6a3.116,3.116,0,0,0-1.785-.316c-.956.016-1.912-.009-2.868.03-3.975.307-7.947.69-11.925.958-3.212.017-6.421-.02-9.627.219-2.126.059-2.541-.076-5.163-1a10.933,10.933,0,0,1-2.4-1.176,2.85,2.85,0,0,0-1.313-.608,1.9,1.9,0,0,0-1.212,3.507,24.428,24.428,0,0,0,7.063,3.067,28.9,28.9,0,0,0,6.451.354,97.722,97.722,0,0,0,15.84-.45c1.469-.133,2.941-.26,4.417-.3a5.649,5.649,0,0,0,2.248-.191A2.309,2.309,0,0,0,1084.014,2689.6Z" transform="translate(-1046.799 -2687.674)"/>
    </g>
  </g>
</svg>
