<svg xmlns="http://www.w3.org/2000/svg" width="87.835" height="83.493" viewBox="0 0 87.835 83.493">
  <g id="Grupo_81530" data-name="Grupo 81530" transform="translate(-757.55 -2701.401)">
    <path id="Trazado_114840" data-name="Trazado 114840" d="M801.484,2751.544a7.749,7.749,0,1,1,7.675-7.749A7.721,7.721,0,0,1,801.484,2751.544Zm0-12.406a4.658,4.658,0,1,0,4.613,4.657A4.64,4.64,0,0,0,801.484,2739.138Z" fill="#4f389f"/>
    <path id="Trazado_114841" data-name="Trazado 114841" d="M814.722,2765.378H788.246a1.538,1.538,0,0,1-1.531-1.546V2762.1a14.828,14.828,0,0,1,11.306-14.483,1.521,1.521,0,0,1,1.136.172,4.431,4.431,0,0,0,4.654,0,1.521,1.521,0,0,1,1.136-.172,14.828,14.828,0,0,1,11.306,14.483v1.732A1.538,1.538,0,0,1,814.722,2765.378Zm-24.945-3.091h23.414v-.187a11.755,11.755,0,0,0-8.413-11.33,7.5,7.5,0,0,1-6.588,0,11.755,11.755,0,0,0-8.413,11.33Z" fill="#4f389f"/>
    <path id="Trazado_114842" data-name="Trazado 114842" d="M833.639,2734.666a6.332,6.332,0,1,1,6.272-6.332A6.309,6.309,0,0,1,833.639,2734.666Zm0-9.572a3.241,3.241,0,1,0,3.21,3.24A3.229,3.229,0,0,0,833.639,2725.094Z" fill="#4f389f"/>
    <path id="Trazado_114843" data-name="Trazado 114843" d="M843.854,2745.341H831.53a1.546,1.546,0,0,1,0-3.091h10.79a8.717,8.717,0,0,0-6.112-8.157,6.13,6.13,0,0,1-5.138,0,8.709,8.709,0,0,0-3.145,1.774,1.521,1.521,0,0,1-2.161-.147,1.556,1.556,0,0,1,.146-2.181,11.753,11.753,0,0,1,4.974-2.6,1.514,1.514,0,0,1,1.136.172,3.073,3.073,0,0,0,3.236,0,1.516,1.516,0,0,1,1.137-.172,11.794,11.794,0,0,1,8.992,11.519v1.336A1.539,1.539,0,0,1,843.854,2745.341Z" fill="#4f389f"/>
    <path id="Trazado_114844" data-name="Trazado 114844" d="M817.095,2712.445a5.522,5.522,0,1,1,5.469-5.522A5.5,5.5,0,0,1,817.095,2712.445Zm0-7.953a2.431,2.431,0,1,0,2.407,2.431A2.423,2.423,0,0,0,817.095,2704.492Z" fill="#4f389f"/>
    <path id="Trazado_114845" data-name="Trazado 114845" d="M825.581,2721.312H808.609a1.538,1.538,0,0,1-1.531-1.545v-1.111a10.056,10.056,0,0,1,7.668-9.823,1.52,1.52,0,0,1,1.137.172,2.29,2.29,0,0,0,2.424,0,1.518,1.518,0,0,1,1.136-.172,10.057,10.057,0,0,1,7.669,9.823v1.111A1.538,1.538,0,0,1,825.581,2721.312Zm-15.428-3.091h13.884a6.979,6.979,0,0,0-4.792-6.235,5.332,5.332,0,0,1-4.3,0A6.978,6.978,0,0,0,810.153,2718.221Z" fill="#4f389f"/>
    <path id="Trazado_114846" data-name="Trazado 114846" d="M801.484,2731.21a1.538,1.538,0,0,1-1.531-1.545v-9.386a1.531,1.531,0,1,1,3.062,0v9.386A1.538,1.538,0,0,1,801.484,2731.21Z" fill="#4f389f"/>
    <path id="Trazado_114847" data-name="Trazado 114847" d="M832.72,2753.359h-9.3a1.545,1.545,0,0,1,0-3.091h9.3a1.545,1.545,0,0,1,0,3.091Z" fill="#4f389f"/>
    <path id="Trazado_114848" data-name="Trazado 114848" d="M779.544,2753.359h-9.3a1.545,1.545,0,0,1,0-3.091h9.3a1.545,1.545,0,0,1,0,3.091Z" fill="#4f389f"/>
    <path id="Trazado_114849" data-name="Trazado 114849" d="M801.484,2784.894a1.538,1.538,0,0,1-1.531-1.545v-9.386a1.531,1.531,0,1,1,3.062,0v9.386A1.538,1.538,0,0,1,801.484,2784.894Z" fill="#4f389f"/>
    <path id="Trazado_114850" data-name="Trazado 114850" d="M801.484,2779.038a27.225,27.225,0,1,1,26.966-27.224A27.127,27.127,0,0,1,801.484,2779.038Zm0-51.357a24.134,24.134,0,1,0,23.9,24.133A24.046,24.046,0,0,0,801.484,2727.681Z" fill="#4f389f"/>
    <path id="Trazado_114851" data-name="Trazado 114851" d="M769.3,2734.666a6.332,6.332,0,1,1,6.272-6.332A6.31,6.31,0,0,1,769.3,2734.666Zm0-9.572a3.241,3.241,0,1,0,3.21,3.24A3.229,3.229,0,0,0,769.3,2725.094Z" fill="#4f389f"/>
    <path id="Trazado_114852" data-name="Trazado 114852" d="M771.438,2745.341H759.081a1.538,1.538,0,0,1-1.531-1.546v-1.336a11.794,11.794,0,0,1,8.992-11.519,1.516,1.516,0,0,1,1.137.172,3.071,3.071,0,0,0,3.235,0,1.523,1.523,0,0,1,1.137-.172,11.712,11.712,0,0,1,5.776,3.376,1.555,1.555,0,0,1-.058,2.185,1.52,1.52,0,0,1-2.164-.058,8.675,8.675,0,0,0-3.74-2.35,6.119,6.119,0,0,1-5.138,0,8.718,8.718,0,0,0-6.113,8.157h10.824a1.546,1.546,0,0,1,0,3.091Z" fill="#4f389f"/>
    <path id="Trazado_114853" data-name="Trazado 114853" d="M785.84,2712.445a5.522,5.522,0,1,1,5.47-5.522A5.5,5.5,0,0,1,785.84,2712.445Zm0-7.953a2.431,2.431,0,1,0,2.408,2.431A2.422,2.422,0,0,0,785.84,2704.492Z" fill="#4f389f"/>
    <path id="Trazado_114854" data-name="Trazado 114854" d="M794.326,2721.312H777.354a1.538,1.538,0,0,1-1.531-1.545v-1.111a10.057,10.057,0,0,1,7.668-9.823,1.52,1.52,0,0,1,1.137.172,2.288,2.288,0,0,0,2.424,0,1.52,1.52,0,0,1,1.137-.172,10.056,10.056,0,0,1,7.668,9.823v1.111A1.538,1.538,0,0,1,794.326,2721.312Zm-15.428-3.091h13.884a6.978,6.978,0,0,0-4.792-6.235,5.336,5.336,0,0,1-4.3,0A6.978,6.978,0,0,0,778.9,2718.221Z" fill="#4f389f"/>
  </g>
</svg>
