<svg xmlns="http://www.w3.org/2000/svg" width="89.454" height="87.819" viewBox="0 0 89.454 87.819">
  <g id="Grupo_81533" data-name="Grupo 81533" transform="translate(-1103.716 -2699.238)">
    <path id="Trazado_114859" data-name="Trazado 114859" d="M1123.95,2751.067a10.31,10.31,0,1,1,10.211-10.309A10.272,10.272,0,0,1,1123.95,2751.067Zm0-17.527a7.218,7.218,0,1,0,7.149,7.218A7.192,7.192,0,0,0,1123.95,2733.54Z" fill="#4f389f"/>
    <path id="Trazado_114860" data-name="Trazado 114860" d="M1142.653,2770.611h-37.406a1.538,1.538,0,0,1-1.531-1.546v-2.447a20.314,20.314,0,0,1,15.49-19.841,1.518,1.518,0,0,1,1.136.172,6.882,6.882,0,0,0,7.216,0,1.519,1.519,0,0,1,1.136-.172,20.314,20.314,0,0,1,15.49,19.841v2.447A1.539,1.539,0,0,1,1142.653,2770.611Zm-35.875-3.091h34.344v-.9a17.24,17.24,0,0,0-12.58-16.688,9.876,9.876,0,0,1-9.184,0,17.24,17.24,0,0,0-12.58,16.688Z" fill="#4f389f"/>
    <path id="Trazado_114861" data-name="Trazado 114861" d="M1114.269,2770.611a1.539,1.539,0,0,1-1.532-1.546V2762.5a1.532,1.532,0,1,1,3.063,0v6.565A1.539,1.539,0,0,1,1114.269,2770.611Z" fill="#4f389f"/>
    <path id="Trazado_114862" data-name="Trazado 114862" d="M1133.631,2770.611a1.539,1.539,0,0,1-1.531-1.546V2762.5a1.531,1.531,0,1,1,3.062,0v6.565A1.538,1.538,0,0,1,1133.631,2770.611Z" fill="#4f389f"/>
    <path id="Trazado_114863" data-name="Trazado 114863" d="M1172.936,2735.418a10.309,10.309,0,1,1,10.212-10.309A10.272,10.272,0,0,1,1172.936,2735.418Zm0-17.527a7.218,7.218,0,1,0,7.15,7.218A7.192,7.192,0,0,0,1172.936,2717.891Z" fill="#4f389f"/>
    <path id="Trazado_114864" data-name="Trazado 114864" d="M1191.639,2754.963h-37.405a1.538,1.538,0,0,1-1.531-1.546v-2.448a20.313,20.313,0,0,1,15.489-19.84,1.516,1.516,0,0,1,1.136.171,6.88,6.88,0,0,0,7.217,0,1.515,1.515,0,0,1,1.136-.171,20.313,20.313,0,0,1,15.489,19.84v2.448A1.538,1.538,0,0,1,1191.639,2754.963Zm-35.874-3.092h34.343v-.9a17.241,17.241,0,0,0-12.58-16.688,9.874,9.874,0,0,1-9.183,0,17.241,17.241,0,0,0-12.58,16.688Z" fill="#4f389f"/>
    <path id="Trazado_114865" data-name="Trazado 114865" d="M1163.255,2754.963a1.538,1.538,0,0,1-1.531-1.546v-6.565a1.531,1.531,0,1,1,3.062,0v6.565A1.538,1.538,0,0,1,1163.255,2754.963Z" fill="#4f389f"/>
    <path id="Trazado_114866" data-name="Trazado 114866" d="M1182.618,2754.963a1.538,1.538,0,0,1-1.531-1.546v-6.565a1.531,1.531,0,1,1,3.062,0v6.565A1.538,1.538,0,0,1,1182.618,2754.963Z" fill="#4f389f"/>
    <path id="Trazado_114867" data-name="Trazado 114867" d="M1116,2726.655a1.5,1.5,0,0,1-.419-.059,1.542,1.542,0,0,1-1.086-1.2l-1.084-5.838h-2.028a7.511,7.511,0,0,1-7.467-7.539v-5.24a7.512,7.512,0,0,1,7.467-7.539h29.681a7.512,7.512,0,0,1,7.468,7.539v5.74a7.512,7.512,0,0,1-7.468,7.539h-18.418l-5.516,6.1A1.524,1.524,0,0,1,1116,2726.655Zm-4.617-24.326a4.431,4.431,0,0,0-4.405,4.448v5.24a4.431,4.431,0,0,0,4.405,4.448h3.3a1.535,1.535,0,0,1,1.505,1.261l.753,4.053,3.9-4.311a1.522,1.522,0,0,1,1.13-.5h19.093a4.432,4.432,0,0,0,4.406-4.448v-5.74a4.432,4.432,0,0,0-4.406-4.448Z" fill="#4f389f"/>
    <path id="Trazado_114868" data-name="Trazado 114868" d="M1116.428,2713.9a4.292,4.292,0,1,1,4.252-4.292A4.277,4.277,0,0,1,1116.428,2713.9Zm0-5.493a1.2,1.2,0,1,0,1.19,1.2A1.2,1.2,0,0,0,1116.428,2708.4Z" fill="#4f389f"/>
    <path id="Trazado_114869" data-name="Trazado 114869" d="M1126.224,2713.9a4.292,4.292,0,1,1,4.252-4.292A4.276,4.276,0,0,1,1126.224,2713.9Zm0-5.493a1.2,1.2,0,1,0,1.189,1.2A1.2,1.2,0,0,0,1126.224,2708.4Z" fill="#4f389f"/>
    <path id="Trazado_114870" data-name="Trazado 114870" d="M1136.019,2713.9a4.292,4.292,0,1,1,4.252-4.292A4.277,4.277,0,0,1,1136.019,2713.9Zm0-5.493a1.2,1.2,0,1,0,1.19,1.2A1.2,1.2,0,0,0,1136.019,2708.4Z" fill="#4f389f"/>
    <path id="Trazado_114871" data-name="Trazado 114871" d="M1184.942,2787.057h-29.681a7.51,7.51,0,0,1-7.467-7.538v-5.741a7.511,7.511,0,0,1,7.467-7.539h18.417l5.516-6.1a1.526,1.526,0,0,1,2.635.758l1.085,5.838h2.028a7.511,7.511,0,0,1,7.467,7.539v5.241A7.51,7.51,0,0,1,1184.942,2787.057Zm-29.681-17.726a4.431,4.431,0,0,0-4.405,4.447v5.741a4.431,4.431,0,0,0,4.405,4.447h29.681a4.431,4.431,0,0,0,4.405-4.447v-5.241a4.431,4.431,0,0,0-4.405-4.447h-3.3a1.535,1.535,0,0,1-1.505-1.261l-.753-4.055-3.9,4.313a1.525,1.525,0,0,1-1.13.5Z" fill="#4f389f"/>
    <path id="Trazado_114872" data-name="Trazado 114872" d="M1179.9,2780.984a4.293,4.293,0,1,1,4.252-4.293A4.277,4.277,0,0,1,1179.9,2780.984Zm0-5.493a1.2,1.2,0,1,0,1.19,1.2A1.2,1.2,0,0,0,1179.9,2775.491Z" fill="#4f389f"/>
    <path id="Trazado_114873" data-name="Trazado 114873" d="M1170.1,2780.984a4.293,4.293,0,1,1,4.252-4.293A4.277,4.277,0,0,1,1170.1,2780.984Zm0-5.493a1.2,1.2,0,1,0,1.19,1.2A1.2,1.2,0,0,0,1170.1,2775.491Z" fill="#4f389f"/>
    <path id="Trazado_114874" data-name="Trazado 114874" d="M1160.306,2780.984a4.293,4.293,0,1,1,4.252-4.293A4.278,4.278,0,0,1,1160.306,2780.984Zm0-5.493a1.2,1.2,0,1,0,1.19,1.2A1.2,1.2,0,0,0,1160.306,2775.491Z" fill="#4f389f"/>
  </g>
</svg>
