<svg xmlns="http://www.w3.org/2000/svg" width="75.386" height="79.822" viewBox="0 0 75.386 79.822">
  <g id="Grupo_81536" data-name="Grupo 81536" transform="translate(-413.43 -3112.593)">
    <path id="Trazado_114879" data-name="Trazado 114879" d="M451.123,3152.3a9.98,9.98,0,1,1,9.885-9.979A9.944,9.944,0,0,1,451.123,3152.3Zm0-16.867a6.888,6.888,0,1,0,6.823,6.888A6.863,6.863,0,0,0,451.123,3135.431Z" fill="#4f389f"/>
    <path id="Trazado_114880" data-name="Trazado 114880" d="M467.455,3167.777H434.79a1.539,1.539,0,0,1-1.531-1.546v-10.057a8.577,8.577,0,0,1,6.5-8.365l4.921-1.217a1.525,1.525,0,0,1,1.478.442,6.755,6.755,0,0,0,9.925,0,1.521,1.521,0,0,1,1.479-.442l4.921,1.217a8.577,8.577,0,0,1,6.5,8.365v10.057A1.539,1.539,0,0,1,467.455,3167.777Zm-31.134-3.091h29.6v-8.512a5.5,5.5,0,0,0-4.169-5.362l-4.1-1.014a9.789,9.789,0,0,1-13.068,0l-4.1,1.014a5.5,5.5,0,0,0-4.168,5.362Z" fill="#4f389f"/>
    <path id="Trazado_114881" data-name="Trazado 114881" d="M482.868,3192.415h-63.49a5.984,5.984,0,0,1-5.948-6.005v-31.955a5.984,5.984,0,0,1,5.948-6.005h8.374a1.546,1.546,0,0,1,0,3.091h-8.374a2.9,2.9,0,0,0-2.886,2.914v31.955a2.9,2.9,0,0,0,2.886,2.914h63.49a2.9,2.9,0,0,0,2.886-2.914v-31.955a2.9,2.9,0,0,0-2.886-2.914h-8.833a1.546,1.546,0,0,1,0-3.091h8.833a5.984,5.984,0,0,1,5.948,6.005v31.955A5.984,5.984,0,0,1,482.868,3192.415Z" fill="#4f389f"/>
    <path id="Trazado_114882" data-name="Trazado 114882" d="M422.506,3185.54a1.537,1.537,0,0,1-1.53-1.545V3156.87a1.531,1.531,0,1,1,3.062,0V3184A1.538,1.538,0,0,1,422.506,3185.54Z" fill="#4f389f"/>
    <path id="Trazado_114883" data-name="Trazado 114883" d="M479.74,3185.54a1.537,1.537,0,0,1-1.531-1.545V3156.87a1.531,1.531,0,1,1,3.062,0V3184A1.537,1.537,0,0,1,479.74,3185.54Z" fill="#4f389f"/>
    <path id="Trazado_114884" data-name="Trazado 114884" d="M441.922,3167.777a1.538,1.538,0,0,1-1.531-1.546v-6.295a1.531,1.531,0,1,1,3.062,0v6.295A1.539,1.539,0,0,1,441.922,3167.777Z" fill="#4f389f"/>
    <path id="Trazado_114885" data-name="Trazado 114885" d="M460.325,3167.777a1.538,1.538,0,0,1-1.531-1.546v-6.295a1.531,1.531,0,1,1,3.062,0v6.295A1.539,1.539,0,0,1,460.325,3167.777Z" fill="#4f389f"/>
    <path id="Trazado_114886" data-name="Trazado 114886" d="M462.625,3178.016h-23a1.546,1.546,0,0,1,0-3.091h23a1.546,1.546,0,0,1,0,3.091Z" fill="#4f389f"/>
    <path id="Trazado_114887" data-name="Trazado 114887" d="M451.123,3129.9a1.538,1.538,0,0,1-1.531-1.546v-8.174a1.531,1.531,0,1,1,3.062,0v8.174A1.538,1.538,0,0,1,451.123,3129.9Z" fill="#4f389f"/>
    <path id="Trazado_114888" data-name="Trazado 114888" d="M451.123,3121.722a4.565,4.565,0,1,1,4.522-4.564A4.548,4.548,0,0,1,451.123,3121.722Zm0-6.037a1.473,1.473,0,1,0,1.46,1.473A1.468,1.468,0,0,0,451.123,3115.685Z" fill="#4f389f"/>
    <path id="Trazado_114889" data-name="Trazado 114889" d="M460.906,3134.115a1.522,1.522,0,0,1-1.083-.452,1.556,1.556,0,0,1,0-2.186l5.726-5.781a1.52,1.52,0,0,1,2.165,0,1.556,1.556,0,0,1,0,2.186l-5.726,5.781A1.521,1.521,0,0,1,460.906,3134.115Z" fill="#4f389f"/>
    <path id="Trazado_114890" data-name="Trazado 114890" d="M468.746,3129.219a4.471,4.471,0,0,1-3.2-1.337,4.6,4.6,0,0,1,0-6.455,4.491,4.491,0,0,1,6.394,0,4.6,4.6,0,0,1,0,6.455A4.471,4.471,0,0,1,468.746,3129.219Zm0-6.038a1.441,1.441,0,0,0-1.032.432,1.466,1.466,0,1,0,2.064,0A1.441,1.441,0,0,0,468.746,3123.181Z" fill="#4f389f"/>
    <path id="Trazado_114891" data-name="Trazado 114891" d="M441.341,3134.115a1.522,1.522,0,0,1-1.083-.452l-5.726-5.781a1.556,1.556,0,0,1,0-2.186,1.52,1.52,0,0,1,2.165,0l5.726,5.781a1.556,1.556,0,0,1,0,2.186A1.521,1.521,0,0,1,441.341,3134.115Z" fill="#4f389f"/>
    <path id="Trazado_114892" data-name="Trazado 114892" d="M433.5,3129.219a4.471,4.471,0,0,1-3.2-1.337,4.6,4.6,0,0,1,0-6.455,4.492,4.492,0,0,1,6.395,0,4.6,4.6,0,0,1,0,6.455A4.471,4.471,0,0,1,433.5,3129.219Zm0-6.038a1.441,1.441,0,0,0-1.032.432,1.466,1.466,0,1,0,2.064,0A1.441,1.441,0,0,0,433.5,3123.181Z" fill="#4f389f"/>
  </g>
</svg>
