<svg xmlns="http://www.w3.org/2000/svg" width="86.514" height="87.341" viewBox="0 0 86.514 87.341">
  <g id="Grupo_81539" data-name="Grupo 81539" transform="translate(-753.397 -3105.074)">
    <path id="Trazado_114897" data-name="Trazado 114897" d="M796.675,3149.341a10.859,10.859,0,1,1,10.755-10.858A10.82,10.82,0,0,1,796.675,3149.341Zm0-18.625a7.767,7.767,0,1,0,7.693,7.767A7.74,7.74,0,0,0,796.675,3130.716Z" fill="#4f389f"/>
    <path id="Trazado_114898" data-name="Trazado 114898" d="M814.71,3162.741H778.64a1.538,1.538,0,0,1-1.531-1.546v-7.413a9.31,9.31,0,0,1,7.057-9.08l5.434-1.344a1.525,1.525,0,0,1,1.48.442,7.614,7.614,0,0,0,11.19,0,1.52,1.52,0,0,1,1.479-.442l5.435,1.344a9.31,9.31,0,0,1,7.057,9.08v7.413A1.539,1.539,0,0,1,814.71,3162.741Zm-34.539-3.091h33.008v-5.868a6.231,6.231,0,0,0-4.724-6.077l-4.609-1.141a10.647,10.647,0,0,1-14.342,0l-4.609,1.141a6.231,6.231,0,0,0-4.724,6.077Z" fill="#4f389f"/>
    <path id="Trazado_114899" data-name="Trazado 114899" d="M796.675,3123.283a1.538,1.538,0,0,1-1.531-1.545V3110.1a1.531,1.531,0,1,1,3.062,0v11.637A1.538,1.538,0,0,1,796.675,3123.283Z" fill="#4f389f"/>
    <path id="Trazado_114900" data-name="Trazado 114900" d="M796.664,3123.677a1.517,1.517,0,0,1-.965-.347l-4.31-3.535a1.556,1.556,0,0,1-.223-2.174,1.522,1.522,0,0,1,2.154-.225l3.337,2.737,3.281-2.73a1.52,1.52,0,0,1,2.155.209,1.556,1.556,0,0,1-.207,2.176l-4.248,3.535A1.516,1.516,0,0,1,796.664,3123.677Z" fill="#4f389f"/>
    <path id="Trazado_114901" data-name="Trazado 114901" d="M756.473,3135.607a1.523,1.523,0,0,1-.522-.093,1.549,1.549,0,0,1-.917-1.98,44.765,44.765,0,0,1,32.087-28.422,1.545,1.545,0,0,1,.658,3.019,41.666,41.666,0,0,0-29.866,26.457A1.534,1.534,0,0,1,756.473,3135.607Z" fill="#4f389f"/>
    <path id="Trazado_114902" data-name="Trazado 114902" d="M787.415,3192.415a1.482,1.482,0,0,1-.33-.037,44.2,44.2,0,0,1-29.58-22.77,1.553,1.553,0,0,1,.639-2.089,1.524,1.524,0,0,1,2.069.645,41.139,41.139,0,0,0,27.53,21.195,1.548,1.548,0,0,1-.328,3.056Z" fill="#4f389f"/>
    <path id="Trazado_114903" data-name="Trazado 114903" d="M796.633,3188.934a1.538,1.538,0,0,1-1.531-1.546v-11.636a1.531,1.531,0,1,1,3.062,0v11.636A1.538,1.538,0,0,1,796.633,3188.934Z" fill="#4f389f"/>
    <path id="Trazado_114904" data-name="Trazado 114904" d="M800.953,3180.44a1.516,1.516,0,0,1-.965-.347l-3.337-2.737-3.281,2.73a1.521,1.521,0,0,1-2.155-.209,1.556,1.556,0,0,1,.207-2.176l4.248-3.535a1.52,1.52,0,0,1,1.94-.007l4.309,3.535a1.556,1.556,0,0,1,.223,2.174A1.524,1.524,0,0,1,800.953,3180.44Z" fill="#4f389f"/>
    <path id="Trazado_114905" data-name="Trazado 114905" d="M834.932,3150.311H823.405a1.546,1.546,0,0,1,0-3.091h11.527a1.546,1.546,0,0,1,0,3.091Z" fill="#4f389f"/>
    <path id="Trazado_114906" data-name="Trazado 114906" d="M826.519,3154.589a1.52,1.52,0,0,1-1.182-.563l-3.5-4.288a1.556,1.556,0,0,1-.007-1.958l3.5-4.351a1.52,1.52,0,0,1,2.153-.224,1.555,1.555,0,0,1,.223,2.174l-2.712,3.369,2.7,3.312a1.556,1.556,0,0,1-.207,2.176A1.518,1.518,0,0,1,826.519,3154.589Z" fill="#4f389f"/>
    <path id="Trazado_114907" data-name="Trazado 114907" d="M778.774,3189.47a1.514,1.514,0,0,1-.642-.143,44.868,44.868,0,0,1-24.7-30.959,1.531,1.531,0,1,1,2.99-.664,41.769,41.769,0,0,0,22.992,28.817,1.551,1.551,0,0,1,.748,2.051A1.529,1.529,0,0,1,778.774,3189.47Z" fill="#4f389f"/>
    <path id="Trazado_114908" data-name="Trazado 114908" d="M815.659,3188.937a1.531,1.531,0,0,1-1.373-.859,1.553,1.553,0,0,1,.69-2.072,41.3,41.3,0,0,0,21.908-28.265,1.532,1.532,0,1,1,2.991.665,44.376,44.376,0,0,1-23.536,30.369A1.522,1.522,0,0,1,815.659,3188.937Z" fill="#4f389f"/>
    <path id="Trazado_114909" data-name="Trazado 114909" d="M838.377,3141a1.536,1.536,0,0,1-1.494-1.214,41.878,41.878,0,0,0-8.115-17.071,1.556,1.556,0,0,1,.234-2.173,1.52,1.52,0,0,1,2.152.236,44.984,44.984,0,0,1,8.72,18.344,1.545,1.545,0,0,1-1.167,1.841A1.482,1.482,0,0,1,838.377,3141Z" fill="#4f389f"/>
    <path id="Trazado_114910" data-name="Trazado 114910" d="M754.93,3140.962a1.512,1.512,0,0,1-.331-.037,1.545,1.545,0,0,1-1.166-1.841,44.578,44.578,0,0,1,12.272-22.286,1.519,1.519,0,0,1,2.165.024,1.556,1.556,0,0,1-.024,2.185,41.5,41.5,0,0,0-11.423,20.741A1.534,1.534,0,0,1,754.93,3140.962Z" fill="#4f389f"/>
    <path id="Trazado_114911" data-name="Trazado 114911" d="M769.9,3150.269H758.376a1.546,1.546,0,0,1,0-3.091H769.9a1.546,1.546,0,0,1,0,3.091Z" fill="#4f389f"/>
    <path id="Trazado_114912" data-name="Trazado 114912" d="M766.789,3154.631a1.511,1.511,0,0,1-.964-.346,1.556,1.556,0,0,1-.223-2.174l2.712-3.369-2.705-3.313a1.555,1.555,0,0,1,.207-2.175,1.523,1.523,0,0,1,2.156.209l3.5,4.288a1.558,1.558,0,0,1,.007,1.958l-3.5,4.351A1.522,1.522,0,0,1,766.789,3154.631Z" fill="#4f389f"/>
    <path id="Trazado_114913" data-name="Trazado 114913" d="M805.856,3192.414a1.548,1.548,0,0,1-.328-3.056,40.623,40.623,0,0,0,11.058-4.222,1.525,1.525,0,0,1,2.082.6,1.554,1.554,0,0,1-.6,2.1,43.667,43.667,0,0,1-11.885,4.537A1.482,1.482,0,0,1,805.856,3192.414Z" fill="#4f389f"/>
    <path id="Trazado_114914" data-name="Trazado 114914" d="M817.33,3188.034a1.53,1.53,0,0,1-1.341-.8,1.554,1.554,0,0,1,.6-2.1,41.4,41.4,0,0,0,11.074-9.026,1.518,1.518,0,0,1,2.16-.145,1.556,1.556,0,0,1,.143,2.181,44.4,44.4,0,0,1-11.893,9.694A1.521,1.521,0,0,1,817.33,3188.034Z" fill="#4f389f"/>
    <path id="Trazado_114915" data-name="Trazado 114915" d="M829.175,3122.3a1.517,1.517,0,0,1-1.165-.543,41.3,41.3,0,0,0-22.444-13.631,1.545,1.545,0,0,1-1.166-1.842,1.529,1.529,0,0,1,1.824-1.177,44.367,44.367,0,0,1,24.115,14.645,1.555,1.555,0,0,1-.171,2.178A1.513,1.513,0,0,1,829.175,3122.3Z" fill="#4f389f"/>
  </g>
</svg>
