<svg xmlns="http://www.w3.org/2000/svg" width="53.437" height="68.975" viewBox="0 0 53.437 68.975">
  <g id="Grupo_81541" data-name="Grupo 81541" transform="translate(-1103.777 -3091.996)">
    <path id="Trazado_114918" data-name="Trazado 114918" d="M1160.148,3141.439a2.8,2.8,0,1,1-2.77,2.8A2.783,2.783,0,0,1,1160.148,3141.439Z" transform="translate(-10.216 -9.424)" fill="#fdda72"/>
    <path id="Trazado_114919" data-name="Trazado 114919" d="M1136.135,3112.452a2.8,2.8,0,1,1-2.77,2.8A2.783,2.783,0,0,1,1136.135,3112.452Z" transform="translate(-5.64 -3.899)" fill="#fdda72"/>
    <path id="Trazado_114920" data-name="Trazado 114920" d="M1118.342,3148.3a7.283,7.283,0,1,1-7.282-7.353A7.326,7.326,0,0,1,1118.342,3148.3Zm-12.087,0a4.8,4.8,0,1,0,4.8-4.851A4.834,4.834,0,0,0,1106.255,3148.3Z" transform="translate(0 -9.331)" fill="#fdda72"/>
    <ellipse id="Elipse_4839" data-name="Elipse 4839" cx="2.77" cy="2.796" rx="2.77" ry="2.796" transform="translate(1108.29 3136.175)" fill="#fdda72"/>
    <path id="Trazado_114921" data-name="Trazado 114921" d="M1142.355,3114.176a7.283,7.283,0,1,1-7.283-7.353A7.326,7.326,0,0,1,1142.355,3114.176Zm-12.088,0a4.8,4.8,0,1,0,4.8-4.851A4.834,4.834,0,0,0,1130.267,3114.176Z" transform="translate(-4.577 -2.826)" fill="#fdda72"/>
    <path id="Trazado_114922" data-name="Trazado 114922" d="M1166.368,3143.163a7.283,7.283,0,1,1-7.283-7.354A7.326,7.326,0,0,1,1166.368,3143.163Zm-12.088,0a4.8,4.8,0,1,0,4.8-4.851A4.833,4.833,0,0,0,1154.28,3143.163Z" transform="translate(-9.154 -8.351)" fill="#fdda72"/>
    <path id="Trazado_114923" data-name="Trazado 114923" d="M1113.722,3157.277v14.647a1.239,1.239,0,1,1-2.478,0v-14.647a1.239,1.239,0,1,1,2.478,0Z" transform="translate(-1.423 -12.204)" fill="#fdda72"/>
    <path id="Trazado_114924" data-name="Trazado 114924" d="M1113.722,3093.247v39.623a1.239,1.239,0,1,1-2.478,0v-39.623a1.239,1.239,0,1,1,2.478,0Z" transform="translate(-1.423)" fill="#fdda72"/>
    <path id="Trazado_114925" data-name="Trazado 114925" d="M1137.734,3123.151v42.269a1.239,1.239,0,1,1-2.478,0v-42.269a1.239,1.239,0,1,1,2.478,0Z" transform="translate(-6 -5.7)" fill="#fdda72"/>
    <path id="Trazado_114926" data-name="Trazado 114926" d="M1137.734,3093.247v12a1.239,1.239,0,1,1-2.478,0v-12a1.239,1.239,0,1,1,2.478,0Z" transform="translate(-6)" fill="#fdda72"/>
    <path id="Trazado_114927" data-name="Trazado 114927" d="M1161.747,3093.247v35.462a1.239,1.239,0,1,1-2.478,0v-35.462a1.239,1.239,0,1,1,2.478,0Z" transform="translate(-10.577)" fill="#fdda72"/>
    <path id="Trazado_114928" data-name="Trazado 114928" d="M1161.747,3152.137v18.807a1.239,1.239,0,1,1-2.478,0v-18.807a1.239,1.239,0,1,1,2.478,0Z" transform="translate(-10.577 -11.225)" fill="#fdda72"/>
  </g>
</svg>
